{
.appVersion = "3436";
.formatVersion = 3;
DisplayStrings = (
"ůŮ",
"̊ů",
"˚",
"~",
" ̃",
"̃̃˜",
"Vad är väl en bal på slottet?",
"ů",
"◌",
"AÁ",
"ĽĽĽĽľľľľťťťť"
);
axes = (
{
name = Weight;
tag = wght;
}
);
classes = (
{
automatic = 1;
code = "A Aacute Abreve Acircumflex Adieresis Agrave Amacron Aogonek Aring Atilde AE B C Cacute Ccaron Ccedilla Cdotaccent D Eth Dcaron Dcroat E Eacute Ecaron Ecircumflex Edieresis Edotaccent Egrave Emacron Eogonek F G Gbreve Gcommaaccent Gdotaccent H Hbar I Iacute Icircumflex Idieresis Idotaccent Igrave Imacron Iogonek J K Kcommaaccent L Lacute Lcaron Lcommaaccent Lslash M N Nacute Ncaron Ncommaaccent Eng Ntilde O Oacute Ocircumflex Odieresis Ograve Ohungarumlaut Omacron Oslash Otilde OE P Thorn Q R Racute Rcaron Rcommaaccent S Sacute Scaron Scedilla Scommaaccent Germandbls T Tbar Tcaron Tcedilla Tcommaaccent U Uacute Ucircumflex Udieresis Ugrave Uhungarumlaut Umacron Uogonek Uring V W Wacute Wcircumflex Wdieresis Wgrave X Y Yacute Ycircumflex Ydieresis Ygrave Z Zacute Zcaron Zdotaccent Delta Omega";
name = Uppercase;
}
);
customParameters = (
{
name = "Write kern Table";
value = true;
},
{
name = fsType;
value = (
);
},
{
name = "Use Typo Metrics";
value = 1;
},
{
name = "Prefer Typo Metrics";
value = true;
},
{
name = "Has WWS Names";
value = 1;
}
);
date = "2025-12-28 12:45:16 +0000";
familyName = "Miranda Sans";
featurePrefixes = (
{
code = "";
name = Languagesystems;
}
);
features = (
{
automatic = 1;
code = "feature calt;
feature sups;
feature frac;
feature ordn;
feature locl;
";
tag = aalt;
},
{
code = "lookupflag IgnoreMarks;

lookup ColonHeightByContext {
    sub @Uppercase colon' @Uppercase by colon.case;
    sub [zero one two three four five six seven eight nine]
        colon'
        [zero one two three four five six seven eight nine]
    by colon.case;
} ColonHeightByContext;";
tag = calt;
},
{
code = "";
tag = case;
},
{
code = "lookup ccmp_Other_1 {

glyphs = (
{
glyphname = A;
kernLeft = A;
kernRight = A;
lastChange = "2025-12-25 20:24:24 +0000";
layers = (
{
anchors = (
{
name = bottom;
pos = (443,0);
},
{
name = ogonek;
pos = (493,10);
},
{
name = top;
pos = (342,720);
}
);
hints = (
{
horizontal = 1;
origin = (1,5);
target = up;
type = BottomGhost;
},
{
horizontal = 1;
origin = (2,2);
target = (2,3);
type = Stem;
},
{
horizontal = 1;
origin = (0,2);
target = down;
type = TopGhost;
},
{
horizontal = 1;
origin = (0,2);
target = (0,3);
type = Stem;
}
);
layerId = "05246BF3-0764-4143-87C4-5D2B296D3790";
shapes = (
{
closed = 1;
nodes = (
(537,0,l),
(389,720,l),
(295,720,l),
(321,612,l),
(325,612,l),
(443,0,l)
);
},
{
closed = 1;
nodes = (
(-13,0,l),
(321,612,l),
(325,612,l),
(389,720,l),
(295,720,l),
(-107,0,l)
);
},
{
closed = 1;
nodes = (
(429,210,l),
(443,290,l),
(83,290,l),
(69,210,l)
);
}
);
width = 684;
},
{
anchors = (
{
name = bottom;
pos = (437,0);
},
{
name = ogonek;
pos = (483,10);
},
{
name = top;
pos = (362,720);
}
);
hints = (
{
horizontal = 1;
origin = (1,5);
target = up;
type = BottomGhost;
},
{
horizontal = 1;
origin = (2,2);
target = (2,3);
type = Stem;
},
{
horizontal = 1;
origin = (0,2);
target = (0,3);
type = Stem;
}
);
layerId = "B51EB05F-9FBB-4087-814F-400611B2D4B0";
shapes = (
{
closed = 1;
nodes = (
(587,0,l),
(439,720,l),
(285,720,l),
(327,548,l),
(337,548,l),
(437,0,l)
);
},
{
closed = 1;
nodes = (
(33,0,l),
(327,548,l),
(337,548,l),
(439,720,l),
(285,720,l),
(-117,0,l)
);
},
{
closed = 1;
nodes = (
(466,195,l),
(488,315,l),
(88,315,l),
(66,195,l)
);
}
);
width = 724;
}
);
unicode = 65;
},
{
glyphname = AE;
kernLeft = A;
kernRight = E;
lastChange = "2025-12-25 20:24:24 +0000";
layers = (
{
hints = (
{
horizontal = 1;
origin = (0,3);
target = (2,2);
type = Stem;
},
{
horizontal = 1;
origin = (1,3);
target = (1,2);
type = Stem;
},
{
horizontal = 1;
origin = (4,3);
target = (4,2);
type = Stem;
},
{
horizontal = 1;
origin = (0,2);
target = (5,3);
type = Stem;
},
{
origin = (3,3);
target = (3,0);
type = Stem;
}
);
layerId = "05246BF3-0764-4143-87C4-5D2B296D3790";
shapes = (
{
closed = 1;
nodes = (
(-13,0,l),
(389,720,l),
(295,720,l),
(-107,0,l)
);
},
{
closed = 1;
nodes = (
(425,210,l),
(439,290,l),
(79,290,l),
(65,210,l)
);
},
{
closed = 1;
nodes = (
(802,0,l),
(816,80,l),
(426,80,l),
(412,0,l)
);
},
{
closed = 1;
nodes = (
(447,0,l),
(574,720,l),
(484,720,l),
(357,0,l)
);
},
{
closed = 1;
nodes = (
(810,330,l),
(824,410,l),
(484,410,l),
(470,330,l)
);
},
{
closed = 1;
nodes = (
(915,640,l),
(929,720,l),
(296,720,l),
(282,640,l)
);
}
);
width = 999;
},
{
hints = (
{
horizontal = 1;
place = (-127,-7);
type = Stem;
},
{
horizontal = 1;
place = (183,-7);
type = Stem;
},
{
horizontal = 1;
place = (593,-7);
type = Stem;
},
{
horizontal = 1;
place = (68,-7);
type = Stem;
},
{
place = (343,23);
type = Stem;
}
);
layerId = "B51EB05F-9FBB-4087-814F-400611B2D4B0";
shapes = (
{
closed = 1;
nodes = (
(23,0,l),
(425,720,l),
(275,720,l),
(-127,0,l)
);
},
{
closed = 1;
nodes = (
(422,195,l),
(444,315,l),
(84,315,l),
(62,195,l)
);
},
{
closed = 1;
nodes = (
(802,0,l),
(823,120,l),
(433,120,l),
(412,0,l)
);
},
{
closed = 1;
nodes = (
(492,0,l),
(619,720,l),
(469,720,l),
(342,0,l)
);
},
{
closed = 1;
nodes = (
(807,310,l),
(828,430,l),
(488,430,l),
(467,310,l)
);
},
{
closed = 1;
nodes = (
(908,600,l),
(929,720,l),
(276,720,l),
(255,600,l)
);
}
);
width = 995;
}
);
unicode = 198;
},
{
glyphname = B;
kernLeft = I;
kernRight = B;
lastChange = "2025-12-25 20:24:24 +0000";
layers = (
{
anchors = (
{
name = bottom;
pos = (193,0);
},
{
name = top;
pos = (316,700);
}
);
hints = (
{
horizontal = 1;
origin = (1,3);
target = (0,20);
type = Stem;
},
{
horizontal = 1;
origin = (0,12);
target = (2,20);
type = Stem;
},
{
horizontal = 1;
origin = (1,2);
target = (2,12);
type = Stem;
},
{
origin = (1,3);
target = (1,0);
type = Stem;
},
{
origin = (0,16);
target = (0,3);
type = Stem;
},
{
origin = (2,16);
target = (2,7);
type = Stem;
}
);
layerId = "05246BF3-0764-4143-87C4-5D2B296D3790";
shapes = (
{
closed = 1;
nodes = (
(228,0,l),
(398,0,o),
(492,78,o),
(515,208,cs),
(531,298,o),
(489,363,o),
(394,380,c),
(396,390,l),
(369,395,o),
(333,390,o),
(297,390,c),
(82,390,l),
(73,340,l),
(288,340,l),
(378,340,o),
(442,308,o),
(425,208,cs),
(407,108,o),
(332,80,o),
(242,80,c),
(27,80,l),
(13,0,l)
);
},
{
closed = 1;
nodes = (
(53,0,l),
(180,720,l),
(90,720,l),
(-37,0,l)
);
},
{
closed = 1;
nodes = (
(263,370,l),
(310,370,o),
(357,368,o),
(394,380,c),
(396,390,l),
(461,410,o),
(507,450,o),
(522,532,cs),
(543,652,o),
(475,720,o),
(325,720,c),
(140,720,l),
(126,640,l),
(311,640,l),
(391,640,o),
(448,622,o),
(432,532,cs),
(416,442,o),
(362,420,o),
(272,420,c),
(87,420,l),
(78,370,l)
);
}
);
width = 645;
},
{
anchors = (
{
name = bottom;
pos = (193,0);
},
{
name = top;
pos = (316,700);
}
);
hints = (
{
horizontal = 1;
origin = (1,3);
target = (0,20);
type = Stem;
},
{
horizontal = 1;
origin = (0,12);
target = (2,20);
type = Stem;
},
{
horizontal = 1;
origin = (1,2);
target = (2,12);
type = Stem;
},
{
origin = (1,3);
target = (1,0);
type = Stem;
},
{
origin = (0,16);
target = (0,3);
type = Stem;
},
{
origin = (2,16);
target = (2,7);
type = Stem;
}
);
layerId = "B51EB05F-9FBB-4087-814F-400611B2D4B0";
shapes = (
{
closed = 1;
nodes = (
(218,0,l),
(423,0,o),
(512,78,o),
(536,218,cs),
(553,313,o),
(485,368,o),
(394,380,c),
(396,390,l),
(369,395,o),
(323,390,o),
(287,390,c),
(72,390,l),
(59,320,l),
(274,320,l),
(339,320,o),
(401,303,o),
(386,218,cs),
(371,133,o),
(314,120,o),
(239,120,c),
(24,120,l),
(3,0,l)
);
},
{
closed = 1;
nodes = (
(73,0,l),
(200,720,l),
(70,720,l),
(-57,0,l)
);
},
{
closed = 1;
nodes = (
(253,370,l),
(300,370,o),
(357,368,o),
(394,380,c),
(396,390,l),
(460,405,o),
(526,440,o),
(540,522,cs),
(565,662,o),
(485,720,o),
(315,720,c),
(130,720,l),
(109,600,l),
(294,600,l),
(349,600,o),
(405,607,o),
(390,522,cs),
(379,457,o),
(341,440,o),
(266,440,c),
(81,440,l),
(68,370,l)
);
}
);
width = 665;
}
);
unicode = 66;
},
{
glyphname = C;
kernLeft = C;
kernRight = C;
lastChange = "2025-12-25 20:24:24 +0000";
layers = (
{
anchors = (
{
name = bottom;
pos = (248,0);
},
{
name = top;
pos = (377,730);
}
);
hints = (
{
horizontal = 1;
origin = (0,6);
target = (0,25);
type = Stem;
},
{
horizontal = 1;
origin = (0,19);
target = (0,12);
type = Stem;
},
{
origin = (0,22);
target = (0,9);
type = Stem;
}
);
layerId = "05246BF3-0764-4143-87C4-5D2B296D3790";
shapes = (
{
closed = 1;
nodes = (
(406,-10,o),
(511,79,o),
(569,205,c),
(477,205,l),
(433,120,o),
(361,70,o),
(260,70,cs),
(100,70,o),
(58,200,o),
(87,360,cs),
(115,520,o),
(203,650,o),
(363,650,cs),
(464,650,o),
(518,600,o),
(532,515,c),
(624,515,l),
(610,641,o),
(537,730,o),
(377,730,cs),
(157,730,o),
(32,560,o),
(-3,360,cs),
(-39,160,o),
(26,-10,o),
(246,-10,cs)
);
}
);
width = 710;
},
{
anchors = (
{
name = bottom;
pos = (238,0);
},
{
name = top;
pos = (367,730);
}
);
hints = (
{
horizontal = 1;
origin = (0,6);
target = (0,25);
type = Stem;
},
{
horizontal = 1;
origin = (0,19);
target = (0,12);
type = Stem;
},
{
origin = (0,22);
target = (0,9);
type = Stem;
}
);
layerId = "B51EB05F-9FBB-4087-814F-400611B2D4B0";
shapes = (
{
closed = 1;
nodes = (
(410,-10,o),
(518,83,o),
(578,225,c),
(426,225,l),
(392,153,o),
(346,110,o),
(257,110,cs),
(117,110,o),
(104,230,o),
(127,360,cs),
(149,490,o),
(206,610,o),
(346,610,cs),
(435,610,o),
(465,567,o),
(473,495,c),
(625,495,l),
(615,637,o),
(541,730,o),
(367,730,cs),
(142,730,o),
(14,575,o),
(-23,360,cs),
(-61,145,o),
(11,-10,o),
(236,-10,cs)
);
}
);
width = 695;
}
);
unicode = 67;
},
{
glyphname = D;
kernLeft = I;
kernRight = O;
lastChange = "2025-12-25 20:24:24 +0000";
layers = (
{
anchors = (
{
name = bottom;
pos = (227,0);
},
{
name = center;
pos = (289,350);
},
{
name = top;
pos = (350,700);
}
);
hints = (
{
horizontal = 1;
origin = (1,3);
target = (0,16);
type = Stem;
},
{
horizontal = 1;
origin = (1,2);
target = (0,8);
type = Stem;
},
{
origin = (1,3);
target = (1,0);
type = Stem;
},
{
origin = (0,12);
target = (0,3);
type = Stem;
}
);
layerId = "05246BF3-0764-4143-87C4-5D2B296D3790";
shapes = (
{
closed = 1;
nodes = (
(191,0,l),
(424,0,o),
(555,167,o),
(590,360,cs),
(624,553,o),
(551,720,o),
(318,720,c),
(130,720,l),
(116,640,l),
(304,640,l),
(486,640,o),
(526,512,o),
(500,360,cs),
(473,208,o),
(387,80,o),
(205,80,c),
(20,80,l),
(6,0,l)
);
},
{
closed = 1;
nodes = (
(53,0,l),
(180,720,l),
(90,720,l),
(-37,0,l)
);
}
);
width = 713;
},
{
anchors = (
{
name = bottom;
pos = (237,0);
},
{
name = center;
pos = (299,350);
},
{
name = top;
pos = (360,700);
}
);
hints = (
{
horizontal = 1;
origin = (1,3);
target = (0,16);
type = Stem;
},
{
horizontal = 1;
origin = (1,2);
target = (0,8);
type = Stem;
},
{
origin = (1,3);
target = (1,0);
type = Stem;
},
{
origin = (0,12);
target = (0,3);
type = Stem;
}
);
layerId = "B51EB05F-9FBB-4087-814F-400611B2D4B0";
shapes = (
{
closed = 1;
nodes = (
(191,0,l),
(444,0,o),
(570,137,o),
(610,360,cs),
(649,583,o),
(571,720,o),
(318,720,c),
(140,720,l),
(119,600,l),
(297,600,l),
(449,600,o),
(483,492,o),
(460,360,cs),
(436,228,o),
(364,120,o),
(212,120,c),
(37,120,l),
(16,0,l)
);
},
{
closed = 1;
nodes = (
(93,0,l),
(220,720,l),
(70,720,l),
(-57,0,l)
);
}
);
width = 713;
}
);
unicode = 68;
},
{
glyphname = Eth;
kernLeft = B;
kernRight = D;
lastChange = "2025-12-25 20:24:24 +0000";
layers = (
{
hints = (
{
horizontal = 1;
origin = (0,3);
target = (0,2);
type = Stem;
}
);
layerId = "05246BF3-0764-4143-87C4-5D2B296D3790";
shapes = (
{
closed = 1;
nodes = (
(282,335,l),
(294,405,l),
(-26,405,l),
(-38,335,l)
);
},
{
pos = (7,0);
ref = D;
}
);
width = 721;
},
{
hints = (
{
horizontal = 1;
origin = (0,3);
target = (0,2);
type = Stem;
},
{
origin = (0,3);
target = (0,0);
type = Stem;
}
);
layerId = "B51EB05F-9FBB-4087-814F-400611B2D4B0";
shapes = (
{
closed = 1;
nodes = (
(324,315,l),
(343,425,l),
(-37,425,l),
(-56,315,l)
);
},
{
pos = (12,0);
ref = D;
}
);
width = 736;
}
);
unicode = 208;
},
{
glyphname = Dcaron;
lastChange = "2025-12-25 20:24:24 +0000";
layers = (
{
anchors = (
{
name = top;
pos = (382,880);
}
);
hints = (
{
horizontal = 1;
origin = (0,4);
target = (0,5);
type = Stem;
},
{
horizontal = 1;
origin = (0,5);
target = (1,4);
type = Stem;
}
);
layerId = "05246BF3-0764-4143-87C4-5D2B296D3790";
shapes = (
{
closed = 1;
nodes = (
(403,770,l),
(538,910,l),
(458,910,l),
(377,823,l),
(367,823,l),
(323,770,l)
);
},
{
closed = 1;
nodes = (
(403,770,l),
(377,823,l),
(367,823,l),
(318,910,l),
(238,910,l),
(323,770,l)
);
},
{
ref = D;
}
);
width = 713;
},
{
anchors = (
{
name = top;
pos = (390,870);
}
);
hints = (
{
horizontal = 1;
origin = (0,5);
target = (0,4);
type = Stem;
},
{
horizontal = 1;
origin = (1,4);
target = (0,5);
type = Stem;
},
{
origin = (1,4);
target = (0,1);
type = Stem;
}
);
layerId = "B51EB05F-9FBB-4087-814F-400611B2D4B0";
shapes = (
{
closed = 1;
nodes = (
(431,760,l),
(566,900,l),
(446,900,l),
(390,839,l),
(380,839,l),
(311,760,l)
);
},
{
closed = 1;
nodes = (
(431,760,l),
(390,839,l),
(380,839,l),
(346,900,l),
(226,900,l),
(311,760,l)
);
},
{
ref = D;
}
);
width = 713;
}
);
unicode = 270;
},
{
glyphname = E;
kernLeft = I;
kernRight = E;
lastChange = "2025-12-25 20:24:24 +0000";
layers = (
{
anchors = (
{
name = bottom;
pos = (318,0);
},
{
name = top;
pos = (315,720);
},
{
name = topleft;
pos = (36,700);
}
);
hints = (
{
horizontal = 1;
origin = (0,3);
target = (1,2);
type = Stem;
},
{
horizontal = 1;
origin = (2,3);
target = (2,2);
type = Stem;
},
{
horizontal = 1;
origin = (0,2);
target = (3,3);
type = Stem;
},
{
origin = (0,3);
target = (0,0);
type = Stem;
}
);
layerId = "05246BF3-0764-4143-87C4-5D2B296D3790";
shapes = (
{
closed = 1;
nodes = (
(53,0,l),
(180,720,l),
(90,720,l),
(-37,0,l)
);
},
{
closed = 1;
nodes = (
(408,0,l),
(422,80,l),
(32,80,l),
(18,0,l)
);
},
{
closed = 1;
nodes = (
(418,340,l),
(432,420,l),
(92,420,l),
(78,340,l)
);
},
{
closed = 1;
nodes = (
(521,640,l),
(535,720,l),
(145,720,l),
(131,640,l)
);
}
);
width = 605;
},
{
anchors = (
{
name = bottom;
pos = (268,0);
},
{
name = top;
pos = (305,720);
},
{
name = topleft;
pos = (46,700);
}
);
hints = (
{
horizontal = 1;
origin = (0,3);
target = (1,2);
type = Stem;
},
{
horizontal = 1;
origin = (2,3);
target = (2,2);
type = Stem;
},
{
horizontal = 1;
origin = (0,2);
target = (3,3);
type = Stem;
},
{
origin = (0,3);
target = (0,0);
type = Stem;
}
);
layerId = "B51EB05F-9FBB-4087-814F-400611B2D4B0";
shapes = (
{
closed = 1;
nodes = (
(93,0,l),
(220,720,l),
(70,720,l),
(-57,0,l)
);
},
{
closed = 1;
nodes = (
(418,0,l),
(439,120,l),
(49,120,l),
(28,0,l)
);
},
{
closed = 1;
nodes = (
(424,320,l),
(446,440,l),
(106,440,l),
(84,320,l)
);
},
{
closed = 1;
nodes = (
(524,600,l),
(545,720,l),
(155,720,l),
(134,600,l)
);
}
);
width = 595;
}
);
unicode = 69;
},
{
glyphname = Eogonek;
lastChange = "2025-12-25 20:24:24 +0000";
layers = (
{
anchors = (
{
name = bottom;
pos = (318,0);
},
{
name = top;
pos = (315,720);
},
{
name = topleft;
pos = (36,700);
}
);
hints = (
{
horizontal = 1;
origin = (0,14);
target = (0,5);
type = Stem;
},
{
horizontal = 1;
origin = (0,6);
target = (0,9);
type = Stem;
},
{
horizontal = 1;
origin = (0,13);
target = (0,10);
type = Stem;
},
{
origin = (0,14);
target = (0,5);
type = Stem;
},
{
horizontal = 1;
place = (-322,-56);
type = Stem;
},
{
place = (232,-41);
type = Stem;
}
);
layerId = "05246BF3-0764-4143-87C4-5D2B296D3790";
shapes = (
{
closed = 1;
nodes = (
(371,-121,l),
(259,-143,o),
(286,-67,o),
(408,0,c),
(422,80,l),
(67,80,l),
(113,340,l),
(418,340,l),
(432,420,l),
(127,420,l),
(166,640,l),
(521,640,l),
(535,720,l),
(90,720,l),
(-37,0,l),
(318,0,l),
(156,-80,o),
(185,-224,o),
(358,-191,c)
);
}
);
width = 605;
},
{
anchors = (
{
name = bottom;
pos = (268,0);
},
{
name = top;
pos = (305,720);
},
{
name = topleft;
pos = (46,700);
}
);
hints = (
{
horizontal = 1;
origin = (0,14);
target = (0,5);
type = Stem;
},
{
horizontal = 1;
origin = (0,6);
target = (0,9);
type = Stem;
},
{
horizontal = 1;
origin = (0,13);
target = (0,10);
type = Stem;
},
{
origin = (0,14);
target = (0,5);
type = Stem;
},
{
horizontal = 1;
place = (-325,-39);
type = Stem;
},
{
place = (187,19);
type = Stem;
}
);
layerId = "B51EB05F-9FBB-4087-814F-400611B2D4B0";
shapes = (
{
closed = 1;
nodes = (
(394,-105,l),
(282,-127,o),
(296,-67,o),
(418,0,c),
(439,120,l),
(114,120,l),
(149,320,l),
(424,320,l),
(446,440,l),
(171,440,l),
(199,600,l),
(524,600,l),
(545,720,l),
(70,720,l),
(-57,0,l),
(268,0,l),
(94,-86,o),
(155,-233,o),
(379,-190,c)
);
}
);
width = 595;
}
);
unicode = 280;
},
{
glyphname = F;
kernLeft = I;
kernRight = F;
lastChange = "2025-12-25 20:24:24 +0000";
layers = (
{
anchors = (
{
name = bottom;
pos = (143,0);
},
{
name = top;
pos = (266,700);
}
);
hints = (
{
horizontal = 1;
origin = (0,3);
target = up;
type = BottomGhost;
},
{
horizontal = 1;
origin = (1,3);
target = (1,2);
type = Stem;
},
{
horizontal = 1;
origin = (0,2);
target = (2,3);
type = Stem;
},
{
origin = (0,3);
target = (0,0);
type = Stem;
}
);
layerId = "05246BF3-0764-4143-87C4-5D2B296D3790";
shapes = (
{
closed = 1;
nodes = (
(53,0,l),
(180,720,l),
(90,720,l),
(-37,0,l)
);
},
{
closed = 1;
nodes = (
(418,340,l),
(432,420,l),
(92,420,l),
(78,340,l)
);
},
{
closed = 1;
nodes = (
(521,640,l),
(535,720,l),
(145,720,l),
(131,640,l)
);
}
);
width = 595;
},
{
anchors = (
{
name = bottom;
pos = (153,0);
},
{
name = top;
pos = (276,700);
}
);
hints = (
{
horizontal = 1;
origin = (0,3);
target = up;
type = BottomGhost;
},
{
horizontal = 1;
origin = (1,3);
target = (1,2);
type = Stem;
},
{
horizontal = 1;
origin = (0,2);
target = (2,3);
type = Stem;
},
{
origin = (0,3);
target = (0,0);
type = Stem;
}
);
layerId = "B51EB05F-9FBB-4087-814F-400611B2D4B0";
shapes = (
{
closed = 1;
nodes = (
(93,0,l),
(220,720,l),
(70,720,l),
(-57,0,l)
);
},
{
closed = 1;
nodes = (
(424,320,l),
(446,440,l),
(106,440,l),
(84,320,l)
);
},
{
closed = 1;
nodes = (
(524,600,l),
(545,720,l),
(155,720,l),
(134,600,l)
);
}
);
width = 585;
}
);
unicode = 70;
},
{
glyphname = G;
kernLeft = C;
kernRight = G;
lastChange = "2025-12-25 20:24:24 +0000";
layers = (
{
anchors = (
{
name = bottom;
pos = (248,0);
},
{
name = top;
pos = (377,730);
}
);
hints = (
{
horizontal = 1;
origin = (0,6);
target = (0,25);
type = Stem;
},
{
horizontal = 1;
origin = (1,2);
target = (1,3);
type = Stem;
},
{
horizontal = 1;
origin = (0,19);
target = (0,12);
type = Stem;
},
{
origin = (0,22);
target = (0,9);
type = Stem;
},
{
origin = (0,3);
target = (0,2);
type = Stem;
}
);
layerId = "05246BF3-0764-4143-87C4-5D2B296D3790";
shapes = (
{
closed = 1;
nodes = (
(456,-10,o),
(558,105,o),
(592,275,c),
(502,275,l),
(471,125,o),
(410,70,o),
(260,70,cs),
(100,70,o),
(58,200,o),
(87,360,cs),
(115,520,o),
(203,650,o),
(363,650,cs),
(464,650,o),
(518,600,o),
(532,515,c),
(624,515,l),
(610,641,o),
(537,730,o),
(377,730,cs),
(157,730,o),
(32,560,o),
(-3,360,cs),
(-39,160,o),
(26,-10,o),
(246,-10,cs)
);
},
{
closed = 1;
nodes = (
(592,275,l),
(606,355,l),
(336,355,l),
(322,275,l)
);
}
);
width = 730;
},
{
anchors = (
{
name = bottom;
pos = (238,0);
},
{
name = top;
pos = (367,730);
}
);
hints = (
{
horizontal = 1;
origin = (0,6);
target = (0,25);
type = Stem;
},
{
horizontal = 1;
origin = (1,2);
target = (1,3);
type = Stem;
},
{
horizontal = 1;
origin = (0,19);
target = (0,12);
type = Stem;
},
{
origin = (0,22);
target = (0,9);
type = Stem;
},
{
origin = (0,3);
target = (0,2);
type = Stem;
}
);
layerId = "B51EB05F-9FBB-4087-814F-400611B2D4B0";
shapes = (
{
closed = 1;
nodes = (
(446,-10,o),
(556,75,o),
(590,265,c),
(440,265,l),
(419,145,o),
(377,110,o),
(257,110,cs),
(117,110,o),
(104,230,o),
(127,360,cs),
(149,490,o),
(206,610,o),
(346,610,cs),
(435,610,o),
(465,567,o),
(473,495,c),
(625,495,l),
(615,637,o),
(541,730,o),
(367,730,cs),
(142,730,o),
(14,575,o),
(-23,360,cs),
(-61,145,o),
(11,-10,o),
(236,-10,cs)
);
},
{
closed = 1;
nodes = (
(590,265,l),
(609,375,l),
(299,375,l),
(280,265,l)
);
}
);
width = 710;
}
);
unicode = 71;
},
{
glyphname = H;
kernLeft = I;
kernRight = I;
lastChange = "2025-12-25 20:24:24 +0000";
layers = (
{
anchors = (
{
name = bottom;
pos = (231,0);
},
{
name = center;
pos = (293,350);
},
{
name = top;
pos = (354,700);
},
{
name = topleft;
pos = (36,700);
}
);
hints = (
{
horizontal = 1;
origin = (1,3);
target = up;
type = BottomGhost;
},
{
horizontal = 1;
origin = (2,3);
target = (2,2);
type = Stem;
},
{
horizontal = 1;
origin = (1,2);
target = down;
type = TopGhost;
},
{
origin = (1,3);
target = (1,0);
type = Stem;
},
{
origin = (0,3);
target = (0,0);
type = Stem;
}
);
layerId = "05246BF3-0764-4143-87C4-5D2B296D3790";
shapes = (
{
closed = 1;
nodes = (
(498,0,l),
(625,720,l),
(535,720,l),
(408,0,l)
);
},
{
closed = 1;
nodes = (
(53,0,l),
(180,720,l),
(90,720,l),
(-37,0,l)
);
},
{
closed = 1;
nodes = (
(496,330,l),
(510,410,l),
(90,410,l),
(76,330,l)
);
}
);
width = 715;
},
{
anchors = (
{
name = bottom;
pos = (241,0);
},
{
name = center;
pos = (303,350);
},
{
name = top;
pos = (364,700);
},
{
name = topleft;
pos = (46,700);
}
);
hints = (
{
horizontal = 1;
origin = (1,3);
target = up;
type = BottomGhost;
},
{
horizontal = 1;
origin = (2,3);
target = (2,2);
type = Stem;
},
{
horizontal = 1;
origin = (1,2);
target = down;
type = TopGhost;
},
{
origin = (1,3);
target = (1,0);
type = Stem;
},
{
origin = (0,3);
target = (0,0);
type = Stem;
}
);
layerId = "B51EB05F-9FBB-4087-814F-400611B2D4B0";
shapes = (
{
closed = 1;
nodes = (
(538,0,l),
(665,720,l),
(515,720,l),
(388,0,l)
);
},
{
closed = 1;
nodes = (
(93,0,l),
(220,720,l),
(70,720,l),
(-57,0,l)
);
},
{
closed = 1;
nodes = (
(503,310,l),
(524,430,l),
(104,430,l),
(83,310,l)
);
}
);
width = 735;
}
);
unicode = 72;
},
{
glyphname = Hbar;
lastChange = "2025-12-25 20:24:24 +0000";
layers = (
{
hints = (
{
horizontal = 1;
origin = (1,3);
target = up;
type = BottomGhost;
},
{
horizontal = 1;
origin = (2,3);
target = (2,2);
type = Stem;
},
{
horizontal = 1;
origin = (3,3);
target = (3,2);
type = Stem;
},
{
horizontal = 1;
origin = (3,3);
target = (1,2);
type = Stem;
},
{
origin = (1,3);
target = (1,0);
type = Stem;
},
{
origin = (0,3);
target = (0,0);
type = Stem;
}
);
layerId = "05246BF3-0764-4143-87C4-5D2B296D3790";
shapes = (
{
closed = 1;
nodes = (
(498,0,l),
(625,720,l),
(535,720,l),
(408,0,l)
);
},
{
closed = 1;
nodes = (
(53,0,l),
(180,720,l),
(90,720,l),
(-37,0,l)
);
},
{
closed = 1;
nodes = (
(496,330,l),
(510,410,l),
(90,410,l),
(76,330,l)
);
},
{
closed = 1;
nodes = (
(660,520,l),
(674,600,l),
(-1,600,l),
(-15,520,l)
);
}
);
width = 715;
},
{
hints = (
{
horizontal = 1;
origin = (1,3);
target = up;
type = BottomGhost;
},
{
horizontal = 1;
origin = (2,3);
target = (2,2);
type = Stem;
},
{
horizontal = 1;
origin = (3,3);
target = (3,2);
type = Stem;
},
{
horizontal = 1;
origin = (1,2);
target = (3,3);
type = Stem;
},
{
origin = (1,3);
target = (1,0);
type = Stem;
},
{
origin = (0,3);
target = (0,0);
type = Stem;
}
);
layerId = "B51EB05F-9FBB-4087-814F-400611B2D4B0";
shapes = (
{
closed = 1;
nodes = (
(538,0,l),
(665,720,l),
(515,720,l),
(388,0,l)
);
},
{
closed = 1;
nodes = (
(93,0,l),
(220,720,l),
(70,720,l),
(-57,0,l)
);
},
{
closed = 1;
nodes = (
(503,310,l),
(524,430,l),
(104,430,l),
(83,310,l)
);
},
{
closed = 1;
nodes = (
(697,505,l),
(716,615,l),
(-19,615,l),
(-38,505,l)
);
}
);
width = 735;
}
);
unicode = 294;
},
{
glyphname = I;
kernLeft = I;
kernRight = I;
lastChange = "2025-12-25 20:24:24 +0000";
layers = (
{
anchors = (
{
name = bottom;
pos = (-37,0);
},
{
name = top;
pos = (135,720);
},
{
name = topleft;
pos = (36,700);
}
);
hints = (
{
horizontal = 1;
origin = (0,3);
target = up;
type = BottomGhost;
},
{
horizontal = 1;
origin = (0,2);
target = down;
type = TopGhost;
},
{
origin = (0,3);
target = (0,0);
type = Stem;
}
);
layerId = "05246BF3-0764-4143-87C4-5D2B296D3790";
shapes = (
{
closed = 1;
nodes = (
(53,0,l),
(180,720,l),
(90,720,l),
(-37,0,l)
);
}
);
width = 270;
},
{
anchors = (
{
name = bottom;
pos = (-57,0);
},
{
name = top;
pos = (145,720);
},
{
name = topleft;
pos = (70,720);
}
);
hints = (
{
horizontal = 1;
origin = (0,3);
target = up;
type = BottomGhost;
},
{
horizontal = 1;
origin = (0,2);
target = down;
type = TopGhost;
},
{
origin = (0,3);
target = (0,0);
type = Stem;
}
);
layerId = "B51EB05F-9FBB-4087-814F-400611B2D4B0";
shapes = (
{
closed = 1;
nodes = (
(93,0,l),
(220,720,l),
(70,720,l),
(-57,0,l)
);
}
);
width = 290;
}
);
unicode = 73;
},
{
glyphname = Iogonek;
lastChange = "2025-12-25 20:24:24 +0000";
layers = (
{
anchors = (
{
name = bottom;
pos = (-37,0);
},
{
name = top;
pos = (135,720);
},
{
name = topleft;
pos = (36,700);
}
);
hints = (
{
horizontal = 1;
origin = (0,6);
target = up;
type = BottomGhost;
},
{
horizontal = 1;
origin = (0,5);
target = down;
type = TopGhost;
},
{
origin = (0,6);
target = (0,3);
type = Stem;
},
{
horizontal = 1;
place = (-322,-56);
type = Stem;
},
{
place = (-123,-41);
type = Stem;
}
);
layerId = "05246BF3-0764-4143-87C4-5D2B296D3790";
shapes = (
{
closed = 1;
nodes = (
(16,-121,l),
(-96,-143,o),
(-69,-67,o),
(53,0,c),
(180,720,l),
(90,720,l),
(-37,0,l),
(-199,-80,o),
(-170,-224,o),
(3,-191,c)
);
}
);
width = 270;
},
{
anchors = (
{
name = bottom;
pos = (-57,0);
},
{
name = top;
pos = (145,720);
},
{
name = topleft;
pos = (70,720);
}
);
hints = (
{
horizontal = 1;
origin = (0,6);
target = up;
type = BottomGhost;
},
{
horizontal = 1;
origin = (0,5);
target = down;
type = TopGhost;
},
{
origin = (0,6);
target = (0,3);
type = Stem;
},
{
horizontal = 1;
place = (-325,-39);
type = Stem;
},
{
place = (-138,19);
type = Stem;
}
);
layerId = "B51EB05F-9FBB-4087-814F-400611B2D4B0";
shapes = (
{
closed = 1;
nodes = (
(69,-105,l),
(-43,-127,o),
(-29,-67,o),
(93,0,c),
(220,720,l),
(70,720,l),
(-57,0,l),
(-231,-86,o),
(-170,-233,o),
(54,-190,c)
);
}
);
width = 290;
}
);
unicode = 302;
},
{
glyphname = J;
kernLeft = J;
kernRight = J;
lastChange = "2025-12-25 20:24:24 +0000";
layers = (
{
anchors = (
{
name = bottom;
pos = (144,0);
},
{
name = top;
pos = (267,700);
}
);
hints = (
{
horizontal = 1;
origin = (0,15);
target = (0,8);
type = Stem;
},
{
horizontal = 1;
origin = (0,4);
target = down;
type = TopGhost;
},
{
origin = (0,12);
target = (0,11);
type = Stem;
},
{
origin = (0,5);
target = (0,2);
type = Stem;
}
);
layerId = "05246BF3-0764-4143-87C4-5D2B296D3790";
shapes = (
{
closed = 1;
nodes = (
(238,-10,o),
(347,60,o),
(371,200,c),
(463,720,l),
(373,720,l),
(281,200,l),
(265,110,o),
(212,70,o),
(132,70,cs),
(52,70,o),
(12,110,o),
(28,200,c),
(-62,200,l),
(-86,60,o),
(-2,-10,o),
(118,-10,cs)
);
}
);
width = 543;
},
{
anchors = (
{
name = bottom;
pos = (159,0);
},
{
name = top;
pos = (282,700);
}
);
hints = (
{
horizontal = 1;
origin = (0,15);
target = (0,8);
type = Stem;
},
{
horizontal = 1;
origin = (0,4);
target = down;
type = TopGhost;
},
{
origin = (0,12);
target = (0,11);
type = Stem;
},
{
origin = (0,5);
target = (0,2);
type = Stem;
}
);
layerId = "B51EB05F-9FBB-4087-814F-400611B2D4B0";
shapes = (
{
closed = 1;
nodes = (
(273,-10,o),
(388,40,o),
(416,200,c),
(508,720,l),
(358,720,l),
(266,200,l),
(255,135,o),
(209,110,o),
(154,110,cs),
(89,110,o),
(63,140,o),
(78,225,c),
(-72,225,l),
(-102,55,o),
(-17,-10,o),
(133,-10,cs)
);
}
);
width = 568;
}
);
unicode = 74;
},
{
glyphname = K;
kernLeft = I;
kernRight = K;
lastChange = "2025-12-25 20:24:24 +0000";
layers = (
{
anchors = (
{
name = bottom;
pos = (193,0);
},
{
name = top;
pos = (316,700);
}
);
hints = (
{
horizontal = 1;
origin = (1,3);
target = up;
type = BottomGhost;
},
{
horizontal = 1;
origin = (1,2);
target = down;
type = TopGhost;
},
{
origin = (1,3);
target = (1,0);
type = Stem;
}
);
layerId = "05246BF3-0764-4143-87C4-5D2B296D3790";
shapes = (
{
closed = 1;
nodes = (
(580,720,l),
(475,720,l),
(37,305,l),
(98,253,l)
);
},
{
closed = 1;
nodes = (
(53,0,l),
(180,720,l),
(90,720,l),
(-37,0,l)
);
},
{
closed = 1;
nodes = (
(493,0,l),
(234,410,l),
(163,357,l),
(388,0,l)
);
}
);
width = 650;
},
{
anchors = (
{
name = bottom;
pos = (208,0);
},
{
name = top;
pos = (331,700);
}
);
hints = (
{
horizontal = 1;
origin = (1,3);
target = up;
type = BottomGhost;
},
{
horizontal = 1;
origin = (1,2);
target = down;
type = TopGhost;
},
{
origin = (1,3);
target = (1,0);
type = Stem;
}
);
layerId = "B51EB05F-9FBB-4087-814F-400611B2D4B0";
shapes = (
{
closed = 1;
nodes = (
(655,720,l),
(480,720,l),
(42,305,l),
(127,223,l)
);
},
{
closed = 1;
nodes = (
(98,0,l),
(225,720,l),
(75,720,l),
(-52,0,l)
);
},
{
closed = 1;
nodes = (
(568,0,l),
(309,410,l),
(168,357,l),
(393,0,l)
);
}
);
width = 710;
}
);
unicode = 75;
},
{
glyphname = L;
kernLeft = I;
kernRight = L;
lastChange = "2025-12-25 20:24:24 +0000";
layers = (
{
anchors = (
{
name = bottom;
pos = (143,0);
},
{
name = center;
pos = (205,350);
},
{
name = top;
pos = (266,700);
},
{
name = topright;
pos = (496,700);
}
);
hints = (
{
horizontal = 1;
origin = (0,3);
target = (1,2);
type = Stem;
},
{
horizontal = 1;
origin = (0,2);
target = down;
type = TopGhost;
},
{
origin = (0,3);
target = (0,0);
type = Stem;
}
);
layerId = "05246BF3-0764-4143-87C4-5D2B296D3790";
shapes = (
{
closed = 1;
nodes = (
(53,0,l),
(180,720,l),
(90,720,l),
(-37,0,l)
);
},
{
closed = 1;
nodes = (
(368,0,l),
(382,80,l),
(32,80,l),
(18,0,l)
);
}
);
width = 535;
},
{
anchors = (
{
name = bottom;
pos = (153,0);
},
{
name = center;
pos = (215,350);
},
{
name = top;
pos = (276,700);
},
{
name = topright;
pos = (506,700);
}
);
hints = (
{
horizontal = 1;
origin = (0,3);
target = (1,2);
type = Stem;
},
{
horizontal = 1;
origin = (0,2);
target = down;
type = TopGhost;
},
{
origin = (0,3);
target = (0,0);
type = Stem;
}
);
layerId = "B51EB05F-9FBB-4087-814F-400611B2D4B0";
shapes = (
{
closed = 1;
nodes = (
(103,0,l),
(230,720,l),
(70,720,l),
(-57,0,l)
);
},
{
closed = 1;
nodes = (
(418,0,l),
(439,120,l),
(49,120,l),
(28,0,l)
);
}
);
width = 555;
}
);
unicode = 76;
},
{
glyphname = Lslash;
kernLeft = B;
kernRight = L;
lastChange = "2025-12-25 20:24:24 +0000";
layers = (
{
hints = (
{
horizontal = 1;
origin = (0,1);
target = down;
type = TopGhost;
}
);
layerId = "05246BF3-0764-4143-87C4-5D2B296D3790";
shapes = (
{
closed = 1;
nodes = (
(292,450,l),
(305,520,l),
(-30,381,l),
(-42,311,l)
);
},
{
pos = (7,0);
ref = L;
}
);
width = 535;
},
{
hints = (
{
horizontal = 1;
origin = (0,1);
target = down;
type = TopGhost;
},
{
origin = (0,3);
target = (0,0);
type = Stem;
}
);
layerId = "B51EB05F-9FBB-4087-814F-400611B2D4B0";
shapes = (
{
closed = 1;
nodes = (
(342,420,l),
(361,530,l),
(-45,381,l),
(-64,271,l)
);
},
{
pos = (12,0);
ref = L;
}
);
width = 575;
}
);
unicode = 321;
},
{
glyphname = M;
kernLeft = I;
kernRight = I;
lastChange = "2025-12-25 20:24:24 +0000";
layers = (
{
anchors = (
{
name = bottom;
pos = (328,0);
},
{
name = top;
pos = (451,700);
}
);
hints = (
{
horizontal = 1;
origin = (1,3);
target = up;
type = BottomGhost;
},
{
horizontal = 1;
origin = (1,2);
target = (2,5);
type = Stem;
},
{
horizontal = 1;
origin = (1,3);
target = (0,6);
type = Stem;
},
{
origin = (1,3);
target = (1,0);
type = Stem;
},
{
origin = (3,3);
target = (3,0);
type = Stem;
}
);
layerId = "05246BF3-0764-4143-87C4-5D2B296D3790";
shapes = (
{
closed = 1;
nodes = (
(378,0,l),
(693,568,l),
(703,568,l),
(780,720,l),
(690,720,l),
(353,131,l),
(349,131,l),
(278,0,l)
);
},
{
closed = 1;
nodes = (
(53,0,l),
(180,720,l),
(90,720,l),
(-37,0,l)
);
},
{
closed = 1;
nodes = (
(378,0,l),
(353,131,l),
(349,131,l),
(220,720,l),
(130,720,l),
(153,568,l),
(163,568,l),
(278,0,l)
);
},
{
closed = 1;
nodes = (
(693,0,l),
(820,720,l),
(730,720,l),
(603,0,l)
);
}
);
width = 910;
},
{
anchors = (
{
name = bottom;
pos = (328,0);
},
{
name = top;
pos = (451,700);
}
);
hints = (
{
horizontal = 1;
origin = (1,3);
target = up;
type = BottomGhost;
},
{
horizontal = 1;
origin = (1,2);
target = down;
type = TopGhost;
},
{
horizontal = 1;
origin = (1,2);
target = (2,5);
type = Stem;
},
{
origin = (1,3);
target = (1,0);
type = Stem;
},
{
origin = (3,3);
target = (3,0);
type = Stem;
}
);
layerId = "B51EB05F-9FBB-4087-814F-400611B2D4B0";
shapes = (
{
closed = 1;
nodes = (
(373,0,l),
(635,462,l),
(645,462,l),
(820,720,l),
(650,720,l),
(373,227,l),
(363,227,l),
(283,0,l)
);
},
{
closed = 1;
nodes = (
(93,0,l),
(220,720,l),
(70,720,l),
(-57,0,l)
);
},
{
closed = 1;
nodes = (
(373,0,l),
(373,227,l),
(363,227,l),
(260,720,l),
(90,720,l),
(175,462,l),
(185,462,l),
(283,0,l)
);
},
{
closed = 1;
nodes = (
(713,0,l),
(840,720,l),
(690,720,l),
(563,0,l)
);
}
);
width = 910;
}
);
unicode = 77;
},
{
glyphname = N;
kernLeft = I;
kernRight = I;
lastChange = "2025-12-25 20:24:24 +0000";
layers = (
{
anchors = (
{
name = bottom;
pos = (253,0);
},
{
name = top;
pos = (380,720);
}
);
hints = (
{
horizontal = 1;
origin = (1,3);
target = (0,2);
type = Stem;
},
{
horizontal = 1;
origin = (1,2);
target = (0,5);
type = Stem;
},
{
origin = (1,3);
target = (1,0);
type = Stem;
},
{
place = (463,-42);
type = Stem;
}
);
layerId = "05246BF3-0764-4143-87C4-5D2B296D3790";
shapes = (
{
closed = 1;
nodes = (
(528,0,l),
(484,121,l),
(474,121,l),
(210,720,l),
(115,720,l),
(159,599,l),
(169,599,l),
(433,0,l)
);
},
{
closed = 1;
nodes = (
(53,0,l),
(180,720,l),
(90,720,l),
(-37,0,l)
);
},
{
closed = 1;
nodes = (
(553,0,l),
(680,720,l),
(590,720,l),
(463,0,l)
);
}
);
width = 770;
},
{
anchors = (
{
name = bottom;
pos = (253,0);
},
{
name = top;
pos = (380,720);
}
);
hints = (
{
horizontal = 1;
origin = (1,3);
target = up;
type = BottomGhost;
},
{
horizontal = 1;
origin = (1,2);
target = down;
type = TopGhost;
},
{
origin = (1,3);
target = (1,0);
type = Stem;
},
{
origin = (2,3);
target = (2,0);
type = Stem;
}
);
layerId = "B51EB05F-9FBB-4087-814F-400611B2D4B0";
shapes = (
{
closed = 1;
nodes = (
(548,0,l),
(454,234,l),
(444,234,l),
(230,720,l),
(85,720,l),
(179,486,l),
(189,486,l),
(403,0,l)
);
},
{
closed = 1;
nodes = (
(93,0,l),
(220,720,l),
(70,720,l),
(-57,0,l)
);
},
{
closed = 1;
nodes = (
(563,0,l),
(690,720,l),
(540,720,l),
(413,0,l)
);
}
);
width = 760;
}
);
unicode = 78;
},
{
glyphname = Eng;
lastChange = "2025-12-25 20:24:24 +0000";
layers = (
{
hints = (
{
horizontal = 1;
origin = (0,11);
target = (0,10);
type = Stem;
},
{
origin = (0,6);
target = (0,3);
type = Stem;
}
);
layerId = "05246BF3-0764-4143-87C4-5D2B296D3790";
shapes = (
{
closed = 1;
nodes = (
(413,-200,ls),
(463,-200,o),
(525,-160,o),
(537,-90,cs),
(553,0,l),
(463,0,l),
(447,-90,ls),
(442,-120,o),
(416,-130,o),
(396,-130,cs),
(340,-130,l),
(328,-200,l)
);
},
{
ref = N;
}
);
width = 746;
},
{
hints = (
{
horizontal = 1;
place = (-327,-17);
type = Stem;
},
{
place = (413,23);
type = Stem;
}
);
layerId = "B51EB05F-9FBB-4087-814F-400611B2D4B0";
shapes = (
{
closed = 1;
nodes = (
(423,-200,ls),
(473,-200,o),
(535,-160,o),
(547,-90,cs),
(563,0,l),
(413,0,l),
(402,-60,ls),
(397,-90,o),
(371,-100,o),
(351,-100,cs),
(325,-100,l),
(308,-200,l)
);
},
{
ref = N;
}
);
width = 760;
}
);
unicode = 330;
},
{
glyphname = O;
kernLeft = C;
kernRight = O;
lastChange = "2025-12-25 20:24:24 +0000";
layers = (
{
anchors = (
{
name = bottom;
pos = (248,0);
},
{
name = center;
pos = (310,350);
},
{
name = ogonek;
pos = (522,10);
},
{
name = top;
pos = (377,730);
},
{
name = topleft;
pos = (51,700);
},
{
name = topright;
pos = (691,700);
}
);
hints = (
{
horizontal = 1;
origin = (0,11);
target = (1,11);
type = Stem;
},
{
horizontal = 1;
origin = (0,5);
target = (1,5);
type = Stem;
},
{
origin = (0,8);
target = (1,2);
type = Stem;
},
{
origin = (1,8);
target = (0,2);
type = Stem;
}
);
layerId = "05246BF3-0764-4143-87C4-5D2B296D3790";
shapes = (
{
closed = 1;
nodes = (
(466,-10,o),
(591,160,o),
(627,360,cs),
(662,560,o),
(597,730,o),
(377,730,cs),
(157,730,o),
(32,560,o),
(-3,360,cs),
(-39,160,o),
(26,-10,o),
(246,-10,cs)
);
},
{
closed = 1;
nodes = (
(100,70,o),
(58,200,o),
(87,360,cs),
(115,520,o),
(203,650,o),
(363,650,cs),
(523,650,o),
(565,520,o),
(537,360,cs),
(508,200,o),
(420,70,o),
(260,70,cs)
);
}
);
width = 750;
},
{
anchors = (
{
name = bottom;
pos = (238,0);
},
{
name = center;
pos = (300,350);
},
{
name = ogonek;
pos = (512,10);
},
{
name = top;
pos = (367,730);
},
{
name = topleft;
pos = (41,700);
},
{
name = topright;
pos = (681,700);
}
);
hints = (
{
horizontal = 1;
origin = (0,11);
target = (1,11);
type = Stem;
},
{
horizontal = 1;
origin = (0,5);
target = (1,5);
type = Stem;
},
{
origin = (0,8);
target = (1,2);
type = Stem;
},
{
origin = (1,8);
target = (0,2);
type = Stem;
}
);
layerId = "B51EB05F-9FBB-4087-814F-400611B2D4B0";
shapes = (
{
closed = 1;
nodes = (
(461,-10,o),
(589,145,o),
(627,360,cs),
(664,575,o),
(592,730,o),
(367,730,cs),
(142,730,o),
(14,575,o),
(-23,360,cs),
(-61,145,o),
(11,-10,o),
(236,-10,cs)
);
},
{
closed = 1;
nodes = (
(117,110,o),
(104,230,o),
(127,360,cs),
(149,490,o),
(206,610,o),
(346,610,cs),
(486,610,o),
(499,490,o),
(477,360,cs),
(454,230,o),
(397,110,o),
(257,110,cs)
);
}
);
width = 730;
}
);
unicode = 79;
},
{
glyphname = Oslash;
kernLeft = C;
kernRight = O;
lastChange = "2025-12-25 20:24:24 +0000";
layers = (
{
hints = (
{
horizontal = 1;
origin = (0,3);
target = up;
type = BottomGhost;
},
{
horizontal = 1;
origin = (0,2);
target = down;
type = TopGhost;
}
);
layerId = "05246BF3-0764-4143-87C4-5D2B296D3790";
shapes = (
{
closed = 1;
nodes = (
(-21,-10,l),
(690,730,l),
(620,730,l),
(-91,-10,l)
);
},
{
ref = O;
}
);
width = 726;
},
{
hints = (
{
horizontal = 1;
origin = (0,3);
target = up;
type = BottomGhost;
},
{
horizontal = 1;
origin = (0,2);
target = down;
type = TopGhost;
}
);
layerId = "B51EB05F-9FBB-4087-814F-400611B2D4B0";
shapes = (
{
closed = 1;
nodes = (
(-1,-10,l),
(730,730,l),
(620,730,l),
(-111,-10,l)
);
},
{
ref = O;
}
);
width = 746;
}
);
unicode = 216;
},
{
glyphname = OE;
kernLeft = C;
kernRight = E;
lastChange = "2025-12-25 20:24:24 +0000";
layers = (
{
hints = (
{
horizontal = 1;
origin = (2,3);
target = (3,2);
type = Stem;
},
{
horizontal = 1;
origin = (4,3);
target = (4,2);
type = Stem;
},
{
horizontal = 1;
origin = (2,2);
target = (5,3);
type = Stem;
},
{
horizontal = 1;
origin = (0,11);
target = (1,11);
type = Stem;
},
{
horizontal = 1;
origin = (0,5);
target = (1,5);
type = Stem;
},
{
origin = (0,8);
target = (1,2);
type = Stem;
},
{
origin = (2,3);
target = (2,0);
type = Stem;
}
);
layerId = "05246BF3-0764-4143-87C4-5D2B296D3790";
shapes = (
{
closed = 1;
nodes = (
(466,-10,o),
(591,160,o),
(627,360,cs),
(662,560,o),
(597,730,o),
(377,730,cs),
(157,730,o),
(32,560,o),
(-3,360,cs),
(-39,160,o),
(26,-10,o),
(246,-10,cs)
);
},
{
closed = 1;
nodes = (
(100,70,o),
(58,200,o),
(87,360,cs),
(115,520,o),
(203,650,o),
(363,650,cs),
(523,650,o),
(565,520,o),
(537,360,cs),
(508,200,o),
(420,70,o),
(260,70,cs)
);
},
{
closed = 1;
nodes = (
(563,0,l),
(690,720,l),
(600,720,l),
(473,0,l)
);
},
{
closed = 1;
nodes = (
(918,0,l),
(932,80,l),
(542,80,l),
(528,0,l)
);
},
{
closed = 1;
nodes = (
(926,330,l),
(940,410,l),
(600,410,l),
(586,330,l)
);
},
{
closed = 1;
nodes = (
(1031,640,l),
(1045,720,l),
(655,720,l),
(641,640,l)
);
}
);
width = 1115;
},
{
hints = (
{
horizontal = 1;
origin = (2,3);
target = (3,2);
type = Stem;
},
{
horizontal = 1;
origin = (4,3);
target = (4,2);
type = Stem;
},
{
horizontal = 1;
origin = (2,2);
target = (5,3);
type = Stem;
},
{
horizontal = 1;
origin = (0,11);
target = (1,11);
type = Stem;
},
{
horizontal = 1;
origin = (0,5);
target = (1,5);
type = Stem;
},
{
origin = (0,8);
target = (1,2);
type = Stem;
},
{
origin = (2,3);
target = (2,0);
type = Stem;
}
);
layerId = "B51EB05F-9FBB-4087-814F-400611B2D4B0";
shapes = (
{
closed = 1;
nodes = (
(461,-10,o),
(589,145,o),
(627,360,cs),
(664,575,o),
(592,730,o),
(367,730,cs),
(142,730,o),
(14,575,o),
(-23,360,cs),
(-61,145,o),
(11,-10,o),
(236,-10,cs)
);
},
{
closed = 1;
nodes = (
(117,110,o),
(104,230,o),
(127,360,cs),
(149,490,o),
(206,610,o),
(346,610,cs),
(486,610,o),
(499,490,o),
(477,360,cs),
(454,230,o),
(397,110,o),
(257,110,cs)
);
},
{
closed = 1;
nodes = (
(563,0,l),
(690,720,l),
(540,720,l),
(413,0,l)
);
},
{
closed = 1;
nodes = (
(888,0,l),
(909,120,l),
(519,120,l),
(498,0,l)
);
},
{
closed = 1;
nodes = (
(893,310,l),
(914,430,l),
(574,430,l),
(553,310,l)
);
},
{
closed = 1;
nodes = (
(994,600,l),
(1015,720,l),
(625,720,l),
(604,600,l)
);
}
);
width = 1065;
}
);
unicode = 338;
},
{
glyphname = P;
kernLeft = I;
kernRight = P;
lastChange = "2025-12-25 20:24:24 +0000";
layers = (
{
anchors = (
{
name = bottom;
pos = (186,0);
},
{
name = top;
pos = (309,700);
}
);
hints = (
{
horizontal = 1;
origin = (1,3);
target = up;
type = BottomGhost;
},
{
horizontal = 1;
origin = (0,17);
target = (0,16);
type = Stem;
},
{
horizontal = 1;
origin = (1,2);
target = (0,8);
type = Stem;
},
{
origin = (1,3);
target = (1,0);
type = Stem;
},
{
origin = (0,12);
target = (0,3);
type = Stem;
}
);
layerId = "05246BF3-0764-4143-87C4-5D2B296D3790";
shapes = (
{
closed = 1;
nodes = (
(239,260,l),
(419,260,o),
(507,360,o),
(529,490,cs),
(552,620,o),
(500,720,o),
(320,720,c),
(130,720,l),
(116,640,l),
(306,640,l),
(416,640,o),
(459,600,o),
(439,490,cs),
(420,380,o),
(363,340,o),
(253,340,c),
(63,340,l),
(49,260,l)
);
},
{
closed = 1;
nodes = (
(53,0,l),
(180,720,l),
(90,720,l),
(-37,0,l)
);
}
);
width = 620;
},
{
anchors = (
{
name = bottom;
pos = (196,0);
},
{
name = top;
pos = (319,700);
}
);
hints = (
{
horizontal = 1;
origin = (1,3);
target = up;
type = BottomGhost;
},
{
horizontal = 1;
origin = (0,17);
target = (0,16);
type = Stem;
},
{
horizontal = 1;
origin = (1,2);
target = (0,8);
type = Stem;
},
{
origin = (1,3);
target = (1,0);
type = Stem;
},
{
origin = (0,12);
target = (0,3);
type = Stem;
}
);
layerId = "B51EB05F-9FBB-4087-814F-400611B2D4B0";
shapes = (
{
closed = 1;
nodes = (
(245,240,l),
(445,240,o),
(542,335,o),
(568,480,cs),
(593,625,o),
(530,720,o),
(330,720,c),
(140,720,l),
(119,600,l),
(309,600,l),
(394,600,o),
(433,565,o),
(418,480,cs),
(403,395,o),
(352,360,o),
(267,360,c),
(77,360,l),
(55,240,l)
);
},
{
closed = 1;
nodes = (
(93,0,l),
(220,720,l),
(70,720,l),
(-57,0,l)
);
}
);
width = 630;
}
);
unicode = 80;
},
{
glyphname = Thorn;
kernLeft = B;
kernRight = Thorn;
lastChange = "2025-12-25 20:24:24 +0000";
layers = (
{
hints = (
{
horizontal = 1;
origin = (1,3);
target = up;
type = BottomGhost;
},
{
horizontal = 1;
origin = (0,17);
target = (0,16);
type = Stem;
},
{
horizontal = 1;
origin = (0,8);
target = (0,7);
type = Stem;
},
{
horizontal = 1;
origin = (1,2);
target = down;
type = TopGhost;
},
{
origin = (1,3);
target = (1,0);
type = Stem;
},
{
origin = (0,12);
target = (0,3);
type = Stem;
}
);
layerId = "05246BF3-0764-4143-87C4-5D2B296D3790";
shapes = (
{
closed = 1;
nodes = (
(236,170,l),
(396,170,o),
(482,260,o),
(501,370,cs),
(521,480,o),
(467,570,o),
(307,570,c),
(107,570,l),
(94,500,l),
(294,500,l),
(384,500,o),
(437,460,o),
(421,370,cs),
(405,280,o),
(338,240,o),
(248,240,c),
(48,240,l),
(36,170,l)
);
},
{
closed = 1;
nodes = (
(46,0,l),
(173,720,l),
(93,720,l),
(-34,0,l)
);
}
);
width = 603;
},
{
hints = (
{
horizontal = 1;
origin = (1,3);
target = up;
type = BottomGhost;
},
{
horizontal = 1;
origin = (0,17);
target = (0,16);
type = Stem;
},
{
horizontal = 1;
origin = (0,8);
target = (0,7);
type = Stem;
},
{
horizontal = 1;
origin = (1,2);
target = down;
type = TopGhost;
},
{
origin = (1,3);
target = (1,0);
type = Stem;
},
{
origin = (0,12);
target = (0,3);
type = Stem;
}
);
layerId = "B51EB05F-9FBB-4087-814F-400611B2D4B0";
shapes = (
{
closed = 1;
nodes = (
(236,170,l),
(411,170,o),
(509,245,o),
(531,370,cs),
(553,495,o),
(482,570,o),
(307,570,c),
(107,570,l),
(87,460,l),
(287,460,l),
(357,460,o),
(394,440,o),
(381,370,cs),
(369,300,o),
(325,280,o),
(255,280,c),
(55,280,l),
(36,170,l)
);
},
{
closed = 1;
nodes = (
(76,0,l),
(203,720,l),
(73,720,l),
(-54,0,l)
);
}
);
width = 613;
}
);
unicode = 222;
},
{
glyphname = Q;
kernLeft = C;
kernRight = O;
lastChange = "2025-12-25 20:24:24 +0000";
layers = (
{
anchors = (
{
name = bottom;
pos = (236,0);
},
{
name = top;
pos = (356,700);
}
);
hints = (
{
horizontal = 1;
origin = (0,9);
target = (0,2);
type = Stem;
},
{
origin = (1,2);
target = (0,0);
type = Stem;
}
);
layerId = "05246BF3-0764-4143-87C4-5D2B296D3790";
shapes = (
{
closed = 1;
nodes = (
(389,-160,l),
(403,-80,l),
(347,-80,ls),
(331,-80,o),
(313,-72,o),
(310,-54,c),
(218,-92,l),
(226,-135,o),
(265,-160,o),
(304,-160,cs)
);
},
{
closed = 1;
nodes = (
(310,-54,l),
(293,40,l),
(193,40,l),
(218,-92,l)
);
},
{
ref = O;
}
);
width = 750;
},
{
anchors = (
{
name = bottom;
pos = (246,0);
},
{
name = top;
pos = (356,700);
}
);
hints = (
{
horizontal = 1;
origin = (0,9);
target = (0,2);
type = Stem;
},
{
origin = (1,2);
target = (0,0);
type = Stem;
}
);
layerId = "B51EB05F-9FBB-4087-814F-400611B2D4B0";
shapes = (
{
closed = 1;
nodes = (
(429,-160,l),
(448,-50,l),
(392,-50,ls),
(366,-50,o),
(352,-46,o),
(347,-24,c),
(198,-92,l),
(206,-135,o),
(245,-160,o),
(284,-160,cs)
);
},
{
closed = 1;
nodes = (
(347,-24,l),
(333,40,l),
(173,40,l),
(198,-92,l)
);
},
{
ref = O;
}
);
width = 730;
}
);
unicode = 81;
},
{
glyphname = R;
kernLeft = I;
kernRight = R;
lastChange = "2025-12-25 20:24:24 +0000";
layers = (
{
anchors = (
{
name = bottom;
pos = (193,0);
},
{
name = top;
pos = (316,700);
}
);
hints = (
{
horizontal = 1;
origin = (1,3);
target = up;
type = BottomGhost;
},
{
horizontal = 1;
origin = (0,17);
target = (0,16);
type = Stem;
},
{
horizontal = 1;
origin = (1,2);
target = (0,8);
type = Stem;
},
{
origin = (1,3);
target = (1,0);
type = Stem;
},
{
origin = (0,12);
target = (0,3);
type = Stem;
}
);
layerId = "05246BF3-0764-4143-87C4-5D2B296D3790";
shapes = (
{
closed = 1;
nodes = (
(259,260,l),
(439,260,o),
(527,360,o),
(549,490,cs),
(572,620,o),
(520,720,o),
(340,720,c),
(130,720,l),
(116,640,l),
(326,640,l),
(436,640,o),
(479,600,o),
(459,490,cs),
(440,380,o),
(383,340,o),
(273,340,c),
(63,340,l),
(49,260,l)
);
},
{
closed = 1;
nodes = (
(53,0,l),
(180,720,l),
(90,720,l),
(-37,0,l)
);
},
{
closed = 1;
nodes = (
(488,0,l),
(376,300,l),
(276,300,l),
(388,0,l)
);
}
);
width = 665;
},
{
anchors = (
{
name = bottom;
pos = (203,0);
},
{
name = top;
pos = (330,720);
}
);
hints = (
{
horizontal = 1;
origin = (1,3);
target = up;
type = BottomGhost;
},
{
horizontal = 1;
origin = (0,17);
target = (0,16);
type = Stem;
},
{
horizontal = 1;
origin = (1,2);
target = (0,8);
type = Stem;
},
{
origin = (1,3);
target = (1,0);
type = Stem;
},
{
origin = (0,12);
target = (0,3);
type = Stem;
}
);
layerId = "B51EB05F-9FBB-4087-814F-400611B2D4B0";
shapes = (
{
closed = 1;
nodes = (
(245,240,l),
(445,240,o),
(542,335,o),
(568,480,cs),
(593,625,o),
(530,720,o),
(330,720,c),
(140,720,l),
(119,600,l),
(309,600,l),
(394,600,o),
(433,565,o),
(418,480,cs),
(403,395,o),
(352,360,o),
(267,360,c),
(77,360,l),
(55,240,l)
);
},
{
closed = 1;
nodes = (
(93,0,l),
(220,720,l),
(70,720,l),
(-57,0,l)
);
},
{
closed = 1;
nodes = (
(508,0,l),
(396,300,l),
(236,300,l),
(348,0,l)
);
}
);
width = 665;
}
);
unicode = 82;
},
{
glyphname = S;
kernLeft = S;
kernRight = S;
lastChange = "2025-12-25 20:24:24 +0000";
layers = (
{
anchors = (
{
name = bottom;
pos = (181,0);
},
{
name = top;
pos = (310,729);
}
);
hints = (
{
horizontal = 1;
origin = (0,30);
target = (0,37);
type = Stem;
},
{
horizontal = 1;
origin = (0,18);
target = (0,11);
type = Stem;
},
{
origin = (0,21);
target = (0,8);
type = Stem;
},
{
origin = (0,27);
target = (0,2);
type = Stem;
}
);
layerId = "05246BF3-0764-4143-87C4-5D2B296D3790";
shapes = (
{
closed = 1;
nodes = (
(349,-10,o),
(464,63,o),
(489,203,cs),
(506,303,o),
(482,380,o),
(264,412,cs),
(180,424,o),
(115,463,o),
(125,523,cs),
(138,593,o),
(205,649,o),
(295,649,cs),
(384,649,o),
(433,611,o),
(439,540,c),
(533,540,l),
(525,652,o),
(459,729,o),
(310,729,cs),
(180,729,o),
(56,643,o),
(35,523,cs),
(16,413,o),
(72,342,o),
(228,322,cs),
(333,309,o),
(413,283,o),
(399,203,cs),
(383,113,o),
(303,70,o),
(193,70,cs),
(101,70,o),
(35,120,o),
(38,185,c),
(-54,185,l),
(-58,60,o),
(38,-10,o),
(179,-10,cs)
);
}
);
width = 640;
},
{
anchors = (
{
name = bottom;
pos = (193,0);
},
{
name = top;
pos = (322,729);
}
);
hints = (
{
horizontal = 1;
origin = (0,37);
target = (0,30);
type = Stem;
},
{
horizontal = 1;
origin = (0,18);
target = (0,11);
type = Stem;
},
{
origin = (0,21);
target = (0,8);
type = Stem;
},
{
origin = (0,27);
target = (0,2);
type = Stem;
}
);
layerId = "B51EB05F-9FBB-4087-814F-400611B2D4B0";
shapes = (
{
closed = 1;
nodes = (
(381,-10,o),
(494,53,o),
(521,203,cs),
(542,323,o),
(492,403,o),
(279,432,cs),
(195,443,o),
(160,483,o),
(167,523,cs),
(179,588,o),
(237,619,o),
(302,619,cs),
(370,619,o),
(402,578,o),
(404,520,c),
(558,520,l),
(560,647,o),
(485,729,o),
(322,729,cs),
(182,729,o),
(42,663,o),
(17,523,cs),
(-6,393,o),
(65,313,o),
(235,292,cs),
(321,281,o),
(380,253,o),
(371,203,cs),
(358,133,o),
(292,110,o),
(212,110,cs),
(142,110,o),
(98,135,o),
(88,205,c),
(-66,205,l),
(-70,74,o),
(15,-10,o),
(191,-10,cs)
);
}
);
width = 642;
}
);
unicode = 83;
},
{
glyphname = Germandbls;
lastChange = "2025-12-25 20:24:24 +0000";
layers = (
{
layerId = "05246BF3-0764-4143-87C4-5D2B296D3790";
shapes = (
{
closed = 1;
nodes = (
(28,0,l),
(123,540,l),
(136,610,o),
(174,660,o),
(254,660,cs),
(334,660,o),
(356,610,o),
(343,540,cs),
(329,460,o),
(214,490,o),
(195,380,cs),
(170,240,o),
(363,320,o),
(337,170,cs),
(323,90,o),
(240,70,o),
(160,70,c),
(140,70,l),
(128,0,l),
(148,0,l),
(258,0,o),
(391,23,o),
(417,170,cs),
(449,350,o),
(264,320,o),
(275,380,cs),
(286,440,o),
(402,420,o),
(423,540,cs),
(443,650,o),
(387,730,o),
(267,730,cs),
(147,730,o),
(63,650,o),
(43,540,c),
(-52,0,l)
);
}
);
width = 564;
},
{
layerId = "B51EB05F-9FBB-4087-814F-400611B2D4B0";
shapes = (
{
closed = 1;
nodes = (
(83,0,l),
(178,540,l),
(187,590,o),
(217,620,o),
(277,620,cs),
(337,620,o),
(352,590,o),
(343,540,cs),
(332,475,o),
(217,505,o),
(195,380,cs),
(168,225,o),
(359,305,o),
(335,170,cs),
(324,105,o),
(262,110,o),
(207,110,c),
(147,110,l),
(128,0,l),
(188,0,l),
(313,0,o),
(456,8,o),
(485,170,cs),
(519,365,o),
(337,335,o),
(345,380,cs),
(353,425,o),
(469,405,o),
(493,540,cs),
(515,665,o),
(432,730,o),
(297,730,cs),
(162,730,o),
(50,665,o),
(28,540,c),
(-67,0,l)
);
}
);
width = 622;
}
);
unicode = 7838;
},
{
glyphname = T;
kernLeft = T;
kernRight = T;
lastChange = "2025-12-25 20:24:24 +0000";
layers = (
{
anchors = (
{
name = bottom;
pos = (178,0);
},
{
name = center;
pos = (240,350);
},
{
name = top;
pos = (305,720);
}
);
hints = (
{
horizontal = 1;
origin = (0,3);
target = up;
type = BottomGhost;
},
{
horizontal = 1;
origin = (1,2);
target = (1,3);
type = Stem;
},
{
origin = (0,3);
target = (0,0);
type = Stem;
}
);
layerId = "05246BF3-0764-4143-87C4-5D2B296D3790";
shapes = (
{
closed = 1;
nodes = (
(223,0,l),
(350,720,l),
(260,720,l),
(133,0,l)
);
},
{
closed = 1;
nodes = (
(566,640,l),
(580,720,l),
(30,720,l),
(16,640,l)
);
}
);
width = 610;
},
{
anchors = (
{
name = bottom;
pos = (168,0);
},
{
name = center;
pos = (230,350);
},
{
name = top;
pos = (295,720);
}
);
hints = (
{
horizontal = 1;
origin = (0,3);
target = up;
type = BottomGhost;
},
{
horizontal = 1;
origin = (1,2);
target = (1,3);
type = Stem;
},
{
origin = (0,3);
target = (0,0);
type = Stem;
}
);
layerId = "B51EB05F-9FBB-4087-814F-400611B2D4B0";
shapes = (
{
closed = 1;
nodes = (
(243,0,l),
(370,720,l),
(220,720,l),
(93,0,l)
);
},
{
closed = 1;
nodes = (
(549,600,l),
(570,720,l),
(20,720,l),
(-1,600,l)
);
}
);
width = 590;
}
);
unicode = 84;
},
{
glyphname = Tbar;
lastChange = "2025-12-25 20:24:24 +0000";
layers = (
{
hints = (
{
horizontal = 1;
origin = (0,3);
target = (0,2);
type = Stem;
}
);
layerId = "05246BF3-0764-4143-87C4-5D2B296D3790";
shapes = (
{
closed = 1;
nodes = (
(416,315,l),
(428,385,l),
(28,385,l),
(16,315,l)
);
},
{
ref = T;
}
);
width = 574;
},
{
hints = (
{
horizontal = 1;
origin = (0,3);
target = (0,2);
type = Stem;
},
{
origin = (0,3);
target = (0,0);
type = Stem;
}
);
layerId = "B51EB05F-9FBB-4087-814F-400611B2D4B0";
shapes = (
{
closed = 1;
nodes = (
(422,296,l),
(442,406,l),
(22,406,l),
(2,296,l)
);
},
{
ref = T;
}
);
width = 574;
}
);
unicode = 358;
},
{
glyphname = Tcaron;
lastChange = "2025-12-25 20:24:24 +0000";
layers = (
{
anchors = (
{
name = top;
pos = (337,900);
}
);
hints = (
{
horizontal = 1;
origin = (0,4);
target = (0,5);
type = Stem;
},
{
horizontal = 1;
origin = (0,5);
target = (1,4);
type = Stem;
}
);
layerId = "05246BF3-0764-4143-87C4-5D2B296D3790";
shapes = (
{
closed = 1;
nodes = (
(357,790,l),
(492,930,l),
(412,930,l),
(332,843,l),
(322,843,l),
(277,790,l)
);
},
{
closed = 1;
nodes = (
(357,790,l),
(332,843,l),
(322,843,l),
(272,930,l),
(192,930,l),
(277,790,l)
);
},
{
ref = T;
}
);
width = 610;
},
{
anchors = (
{
name = top;
pos = (325,890);
}
);
hints = (
{
horizontal = 1;
origin = (0,5);
target = (0,4);
type = Stem;
},
{
horizontal = 1;
origin = (1,4);
target = (0,5);
type = Stem;
},
{
origin = (1,4);
target = (0,1);
type = Stem;
}
);
layerId = "B51EB05F-9FBB-4087-814F-400611B2D4B0";
shapes = (
{
closed = 1;
nodes = (
(366,780,l),
(500,920,l),
(380,920,l),
(325,859,l),
(315,859,l),
(246,780,l)
);
},
{
closed = 1;
nodes = (
(366,780,l),
(325,859,l),
(315,859,l),
(280,920,l),
(160,920,l),
(246,780,l)
);
},
{
ref = T;
}
);
width = 590;
}
);
unicode = 356;
},
{
glyphname = U;
kernLeft = U;
kernRight = U;
lastChange = "2025-12-25 20:24:24 +0000";
layers = (
{
anchors = (
{
name = bottom;
pos = (177,-5);
},
{
name = ogonek;
pos = (462,10);
},
{
name = top;
pos = (345,720);
},
{
name = topright;
pos = (626,700);
}
);
hints = (
{
horizontal = 1;
origin = (0,8);
target = (0,17);
type = Stem;
},
{
horizontal = 1;
origin = (0,13);
target = down;
type = TopGhost;
},
{
origin = (0,14);
target = (0,11);
type = Stem;
},
{
origin = (0,5);
target = (0,2);
type = Stem;
}
);
layerId = "05246BF3-0764-4143-87C4-5D2B296D3790";
shapes = (
{
closed = 1;
nodes = (
(416,-10,o),
(499,90,o),
(527,250,c),
(610,720,l),
(520,720,l),
(437,250,l),
(414,120,o),
(350,70,o),
(230,70,cs),
(110,70,o),
(64,120,o),
(87,250,c),
(170,720,l),
(80,720,l),
(-3,250,l),
(-31,90,o),
(16,-10,o),
(216,-10,cs)
);
}
);
width = 690;
},
{
anchors = (
{
name = bottom;
pos = (178,1);
},
{
name = ogonek;
pos = (462,10);
},
{
name = top;
pos = (345,720);
},
{
name = topright;
pos = (626,700);
}
);
hints = (
{
horizontal = 1;
origin = (0,17);
target = (0,8);
type = Stem;
},
{
horizontal = 1;
origin = (0,13);
target = down;
type = TopGhost;
},
{
origin = (0,14);
target = (0,11);
type = Stem;
},
{
origin = (0,5);
target = (0,2);
type = Stem;
}
);
layerId = "B51EB05F-9FBB-4087-814F-400611B2D4B0";
shapes = (
{
closed = 1;
nodes = (
(426,-10,o),
(517,80,o),
(547,250,c),
(630,720,l),
(480,720,l),
(397,250,l),
(379,150,o),
(327,110,o),
(237,110,cs),
(147,110,o),
(109,150,o),
(127,250,c),
(210,720,l),
(60,720,l),
(-23,250,l),
(-53,80,o),
(6,-10,o),
(216,-10,cs)
);
}
);
width = 690;
}
);
unicode = 85;
},
{
glyphname = V;
kernLeft = V;
kernRight = V;
lastChange = "2025-12-25 20:24:24 +0000";
layers = (
{
anchors = (
{
name = bottom;
pos = (177,0);
},
{
name = top;
pos = (300,700);
}
);
hints = (
{
horizontal = 1;
origin = (0,5);
target = (0,4);
type = Stem;
},
{
horizontal = 1;
origin = (1,4);
target = down;
type = TopGhost;
}
);
layerId = "05246BF3-0764-4143-87C4-5D2B296D3790";
shapes = (
{
closed = 1;
nodes = (
(242,0,l),
(624,720,l),
(530,720,l),
(220,130,l),
(216,130,l),
(148,0,l)
);
},
{
closed = 1;
nodes = (
(242,0,l),
(220,130,l),
(216,130,l),
(114,720,l),
(20,720,l),
(148,0,l)
);
}
);
width = 644;
},
{
anchors = (
{
name = bottom;
pos = (197,0);
},
{
name = top;
pos = (320,700);
}
);
hints = (
{
horizontal = 1;
origin = (0,5);
target = (0,4);
type = Stem;
},
{
horizontal = 1;
origin = (1,4);
target = down;
type = TopGhost;
}
);
layerId = "B51EB05F-9FBB-4087-814F-400611B2D4B0";
shapes = (
{
closed = 1;
nodes = (
(292,0,l),
(674,720,l),
(524,720,l),
(256,203,l),
(246,203,l),
(138,0,l)
);
},
{
closed = 1;
nodes = (
(292,0,l),
(256,203,l),
(246,203,l),
(160,720,l),
(10,720,l),
(138,0,l)
);
}
);
width = 684;
}
);
unicode = 86;
},
{
glyphname = W;
kernLeft = W;
kernRight = V;
lastChange = "2025-12-25 20:24:24 +0000";
layers = (
{
anchors = (
{
name = bottom;
pos = (360,0);
},
{
name = top;
pos = (487,720);
}
);
hints = (
{
horizontal = 1;
origin = (1,5);
target = (1,2);
type = Stem;
},
{
horizontal = 1;
origin = (1,4);
target = down;
type = TopGhost;
},
{
horizontal = 1;
origin = (1,5);
target = up;
type = BottomGhost;
},
{
horizontal = 1;
origin = (1,4);
target = (2,1);
type = Stem;
}
);
layerId = "05246BF3-0764-4143-87C4-5D2B296D3790";
shapes = (
{
closed = 1;
nodes = (
(612,0,l),
(944,720,l),
(850,720,l),
(593,150,l),
(589,150,l),
(518,0,l)
);
},
{
closed = 1;
nodes = (
(202,0,l),
(183,150,l),
(179,150,l),
(124,720,l),
(30,720,l),
(108,0,l)
);
},
{
closed = 1;
nodes = (
(202,0,l),
(459,570,l),
(463,570,l),
(534,720,l),
(440,720,l),
(183,150,l),
(179,150,l),
(108,0,l)
);
},
{
closed = 1;
nodes = (
(612,0,l),
(593,150,l),
(589,150,l),
(534,720,l),
(440,720,l),
(459,570,l),
(463,570,l),
(518,0,l)
);
}
);
width = 974;
},
{
anchors = (
{
name = bottom;
pos = (372,0);
},
{
name = top;
pos = (499,720);
}
);
hints = (
{
horizontal = 1;
origin = (1,5);
target = (1,2);
type = Stem;
},
{
horizontal = 1;
origin = (1,4);
target = down;
type = TopGhost;
}
);
layerId = "B51EB05F-9FBB-4087-814F-400611B2D4B0";
shapes = (
{
closed = 1;
nodes = (
(656,0,l),
(988,720,l),
(838,720,l),
(626,237,l),
(616,237,l),
(502,0,l)
);
},
{
closed = 1;
nodes = (
(242,0,l),
(212,237,l),
(202,237,l),
(160,720,l),
(10,720,l),
(88,0,l)
);
},
{
closed = 1;
nodes = (
(242,0,l),
(452,483,l),
(462,483,l),
(574,720,l),
(424,720,l),
(212,237,l),
(202,237,l),
(88,0,l)
);
},
{
closed = 1;
nodes = (
(656,0,l),
(626,237,l),
(616,237,l),
(574,720,l),
(424,720,l),
(452,483,l),
(462,483,l),
(502,0,l)
);
}
);
width = 998;
}
);
unicode = 87;
},
{
glyphname = X;
kernLeft = X;
kernRight = X;
lastChange = "2025-12-25 20:24:24 +0000";
layers = (
{
anchors = (
{
name = bottom;
pos = (221,0);
},
{
name = top;
pos = (344,700);
}
);
hints = (
{
horizontal = 1;
origin = (1,7);
target = up;
type = BottomGhost;
},
{
horizontal = 1;
origin = (0,4);
target = down;
type = TopGhost;
}
);
layerId = "05246BF3-0764-4143-87C4-5D2B296D3790";
shapes = (
{
closed = 1;
nodes = (
(537,0,l),
(310,469,l),
(306,469,l),
(182,720,l),
(80,720,l),
(278,311,l),
(282,311,l),
(435,0,l)
);
},
{
closed = 1;
nodes = (
(15,0,l),
(278,311,l),
(282,311,l),
(624,720,l),
(522,720,l),
(310,469,l),
(306,469,l),
(-87,0,l)
);
}
);
width = 704;
},
{
anchors = (
{
name = bottom;
pos = (226,0);
},
{
name = top;
pos = (349,700);
}
);
hints = (
{
horizontal = 1;
origin = (1,7);
target = up;
type = BottomGhost;
},
{
horizontal = 1;
origin = (0,4);
target = down;
type = TopGhost;
}
);
layerId = "B51EB05F-9FBB-4087-814F-400611B2D4B0";
shapes = (
{
closed = 1;
nodes = (
(568,0,l),
(323,511,l),
(313,511,l),
(213,720,l),
(55,720,l),
(270,269,l),
(280,269,l),
(410,0,l)
);
},
{
closed = 1;
nodes = (
(46,0,l),
(270,269,l),
(280,269,l),
(655,720,l),
(497,720,l),
(323,511,l),
(313,511,l),
(-112,0,l)
);
}
);
width = 710;
}
);
unicode = 88;
},
{
glyphname = Y;
kernLeft = Y;
kernRight = Y;
lastChange = "2025-12-25 20:24:24 +0000";
layers = (
{
anchors = (
{
name = bottom;
pos = (163,0);
},
{
name = top;
pos = (290,720);
},
{
name = topleft;
pos = (16,700);
}
);
hints = (
{
horizontal = 1;
origin = (1,3);
target = up;
type = BottomGhost;
},
{
horizontal = 1;
origin = (2,4);
target = down;
type = TopGhost;
},
{
origin = (1,3);
target = (1,0);
type = Stem;
}
);
layerId = "05246BF3-0764-4143-87C4-5D2B296D3790";
shapes = (
{
closed = 1;
nodes = (
(261,300,l),
(560,720,l),
(465,720,l),
(234,390,l),
(230,390,l),
(171,300,l)
);
},
{
closed = 1;
nodes = (
(208,0,l),
(263,310,l),
(173,310,l),
(118,0,l)
);
},
{
closed = 1;
nodes = (
(261,300,l),
(234,390,l),
(230,390,l),
(115,720,l),
(20,720,l),
(171,300,l)
);
}
);
width = 580;
},
{
anchors = (
{
name = bottom;
pos = (183,0);
},
{
name = top;
pos = (310,720);
},
{
name = topleft;
pos = (36,700);
}
);
hints = (
{
horizontal = 1;
origin = (1,3);
target = up;
type = BottomGhost;
},
{
horizontal = 1;
origin = (2,4);
target = down;
type = TopGhost;
},
{
origin = (1,3);
target = (1,0);
type = Stem;
}
);
layerId = "B51EB05F-9FBB-4087-814F-400611B2D4B0";
shapes = (
{
closed = 1;
nodes = (
(311,300,l),
(610,720,l),
(460,720,l),
(266,444,l),
(256,444,l),
(161,300,l)
);
},
{
closed = 1;
nodes = (
(258,0,l),
(313,310,l),
(163,310,l),
(108,0,l)
);
},
{
closed = 1;
nodes = (
(311,300,l),
(266,444,l),
(256,444,l),
(160,720,l),
(10,720,l),
(161,300,l)
);
}
);
width = 620;
}
);
unicode = 89;
},
{
glyphname = Z;
kernLeft = Z;
kernRight = Z;
lastChange = "2025-12-25 20:24:24 +0000";
layers = (
{
anchors = (
{
name = bottom;
pos = (151,0);
},
{
name = center;
pos = (213,350);
},
{
name = top;
pos = (274,700);
}
);
hints = (
{
horizontal = 1;
origin = (1,3);
target = (0,3);
type = Stem;
},
{
horizontal = 1;
origin = (2,2);
target = (2,3);
type = Stem;
}
);
layerId = "05246BF3-0764-4143-87C4-5D2B296D3790";
shapes = (
{
closed = 1;
nodes = (
(27,80,l),
(501,640,l),
(401,640,l),
(-73,80,l)
);
},
{
closed = 1;
nodes = (
(388,0,l),
(402,80,l),
(-73,80,l),
(-87,0,l)
);
},
{
closed = 1;
nodes = (
(501,640,l),
(515,720,l),
(45,720,l),
(31,640,l)
);
}
);
width = 555;
},
{
anchors = (
{
name = bottom;
pos = (171,0);
},
{
name = center;
pos = (233,350);
},
{
name = top;
pos = (300,720);
}
);
hints = (
{
horizontal = 1;
origin = (1,3);
target = (0,3);
type = Stem;
},
{
horizontal = 1;
origin = (2,2);
target = (2,3);
type = Stem;
}
);
layerId = "B51EB05F-9FBB-4087-814F-400611B2D4B0";
shapes = (
{
closed = 1;
nodes = (
(94,120,l),
(544,600,l),
(374,600,l),
(-76,120,l)
);
},
{
closed = 1;
nodes = (
(438,0,l),
(459,120,l),
(-76,120,l),
(-97,0,l)
);
},
{
closed = 1;
nodes = (
(544,600,l),
(565,720,l),
(35,720,l),
(14,600,l)
);
}
);
width = 595;
}
);
unicode = 90;
},
{
glyphname = a;
kernLeft = a;
kernRight = a;
lastChange = "2025-12-25 20:24:24 +0000";
layers = (
{
anchors = (
{
name = bottom;
pos = (295,13);
},
{
name = top;
pos = (221,530);
}
);
hints = (
{
horizontal = 1;
origin = (2,9);
target = (2,2);
type = Stem;
},
{
horizontal = 1;
origin = (1,16);
target = (1,13);
type = Stem;
},
{
horizontal = 1;
origin = (0,4);
target = (0,11);
type = Stem;
},
{
horizontal = 1;
origin = (1,7);
target = (1,22);
type = Stem;
},
{
origin = (1,19);
target = (1,10);
type = Stem;
},
{
origin = (0,15);
target = (0,0);
type = Stem;
}
);
layerId = "05246BF3-0764-4143-87C4-5D2B296D3790";
shapes = (
{
closed = 1;
nodes = (
(353,90,l),
(390,300,ls),
(416,450,o),
(380,530,o),
(221,530,cs),
(114,530,o),
(30,475,o),
(-6,385,c),
(89,385,l),
(106,425,o),
(154,450,o),
(207,450,cs),
(317,450,o),
(324,400,o),
(308,310,cs),
(269,90,l)
);
},
{
closed = 1;
nodes = (
(156,-10,o),
(218,30,o),
(259,90,c),
(269,90,l),
(290,210,l),
(274,120,o),
(190,70,o),
(100,70,cs),
(50,70,o),
(11,100,o),
(19,150,cs),
(28,200,o),
(69,230,o),
(159,230,cs),
(294,230,l),
(306,300,l),
(161,300,ls),
(11,300,o),
(-56,230,o),
(-71,150,cs),
(-85,70,o),
(-44,-10,o),
(66,-10,cs)
);
},
{
closed = 1;
nodes = (
(383,0,l),
(397,80,l),
(381,80,ls),
(361,80,o),
(353,90,o),
(358,120,c),
(269,90,l),
(257,20,o),
(303,0,o),
(353,0,cs)
);
}
);
width = 530;
},
{
anchors = (
{
name = bottom;
pos = (276,20);
},
{
name = top;
pos = (233,540);
}
);
hints = (
{
horizontal = 1;
origin = (2,9);
target = (2,2);
type = Stem;
},
{
horizontal = 1;
origin = (1,13);
target = (1,16);
type = Stem;
},
{
horizontal = 1;
origin = (0,4);
target = (0,11);
type = Stem;
},
{
horizontal = 1;
origin = (1,22);
target = (1,7);
type = Stem;
},
{
horizontal = 1;
origin = (0,4);
target = (0,7);
type = Stem;
},
{
origin = (0,15);
target = (0,0);
type = Stem;
},
{
origin = (1,19);
target = (1,10);
type = Stem;
}
);
layerId = "B51EB05F-9FBB-4087-814F-400611B2D4B0";
shapes = (
{
closed = 1;
nodes = (
(398,120,l),
(430,300,ls),
(456,449,o),
(392,540,o),
(233,540,cs),
(106,540,o),
(15,475,o),
(-25,365,c),
(120,365,l),
(134,395,o),
(160,427,o),
(214,430,cs),
(295,434,o),
(312,390,o),
(298,310,cs),
(255,70,l)
);
},
{
closed = 1;
nodes = (
(156,-10,o),
(207,20,o),
(245,70,c),
(255,70,l),
(282,220,l),
(266,130,o),
(196,100,o),
(116,100,cs),
(76,100,o),
(55,125,o),
(60,155,cs),
(66,185,o),
(87,220,o),
(167,220,cs),
(282,220,l),
(298,310,l),
(173,310,ls),
(13,310,o),
(-65,240,o),
(-81,150,cs),
(-96,60,o),
(-54,-10,o),
(76,-10,cs)
);
},
{
closed = 1;
nodes = (
(423,0,l),
(442,110,l),
(426,110,l),
(406,110,o),
(398,120,o),
(403,150,c),
(255,70,l),
(248,30,o),
(283,0,o),
(333,0,c)
);
}
);
width = 560;
}
);
unicode = 97;
},
{
glyphname = ae;
kernLeft = a;
kernRight = e;
lastChange = "2025-12-25 20:24:24 +0000";
layers = (
{
hints = (
{
horizontal = 1;
origin = (1,22);
target = (1,7);
type = Stem;
},
{
horizontal = 1;
origin = (1,13);
target = (1,16);
type = Stem;
},
{
horizontal = 1;
origin = (0,4);
target = (0,11);
type = Stem;
},
{
origin = (1,19);
target = (1,10);
type = Stem;
},
{
place = (268,-35);
type = Stem;
},
{
origin = (2,18);
target = (2,22);
type = Stem;
},
{
place = (268,-36);
type = Stem;
}
);
layerId = "05246BF3-0764-4143-87C4-5D2B296D3790";
shapes = (
{
closed = 1;
nodes = (
(368,90,l),
(405,300,ls),
(431,450,o),
(395,530,o),
(236,530,cs),
(129,530,o),
(45,475,o),
(9,385,c),
(104,385,l),
(121,425,o),
(169,450,o),
(222,450,cs),
(332,450,o),
(337,390,o),
(321,300,cs),
(284,90,l)
);
},
{
closed = 1;
nodes = (
(171,-10,o),
(278,30,o),
(319,90,c),
(329,90,l),
(305,210,l),
(289,120,o),
(205,70,o),
(115,70,cs),
(65,70,o),
(26,100,o),
(34,150,cs),
(43,200,o),
(84,230,o),
(174,230,cs),
(309,230,l),
(321,300,l),
(176,300,ls),
(26,300,o),
(-41,230,o),
(-56,150,cs),
(-70,70,o),
(-29,-10,o),
(81,-10,cs)
);
},
{
closed = 1;
nodes = (
(609,-10,o),
(684,51,o),
(736,135,c),
(640,135,l),
(607,94,o),
(580,70,o),
(520,70,cs),
(410,70,o),
(386,160,o),
(404,260,cs),
(422,360,o),
(477,450,o),
(587,450,cs),
(697,450,o),
(707,360,o),
(689,260,cs),
(687,248,o),
(685,241,o),
(682,230,c),
(773,230,l),
(776,242,o),
(777,248,o),
(779,260,cs),
(807,420,o),
(751,530,o),
(601,530,cs),
(451,530,o),
(342,420,o),
(314,260,cs),
(286,100,o),
(356,-10,o),
(506,-10,cs)
);
},
{
closed = 1;
nodes = (
(724,230,l),
(736,300,l),
(366,300,l),
(354,230,l)
);
}
);
width = 916;
},
{
hints = (
{
horizontal = 1;
origin = (1,22);
target = (1,7);
type = Stem;
},
{
horizontal = 1;
origin = (1,13);
target = (1,16);
type = Stem;
},
{
horizontal = 1;
origin = (0,4);
target = (0,11);
type = Stem;
},
{
origin = (1,19);
target = (1,10);
type = Stem;
},
{
place = (253,25);
type = Stem;
},
{
place = (612,24);
type = Stem;
}
);
layerId = "B51EB05F-9FBB-4087-814F-400611B2D4B0";
shapes = (
{
closed = 1;
nodes = (
(408,120,l),
(440,300,ls),
(466,449,o),
(402,540,o),
(243,540,cs),
(116,540,o),
(25,475,o),
(-15,365,c),
(130,365,l),
(146,395,o),
(171,430,o),
(224,430,cs),
(314,430,o),
(320,380,o),
(308,310,cs),
(272,110,l)
);
},
{
closed = 1;
nodes = (
(166,-10,o),
(282,20,o),
(320,70,c),
(330,70,l),
(292,220,l),
(276,130,o),
(206,100,o),
(126,100,cs),
(86,100,o),
(65,125,o),
(70,155,cs),
(76,185,o),
(97,220,o),
(177,220,cs),
(292,220,l),
(308,310,l),
(183,310,ls),
(23,310,o),
(-55,240,o),
(-71,150,cs),
(-86,60,o),
(-44,-10,o),
(86,-10,cs)
);
},
{
closed = 1;
nodes = (
(634,-10,o),
(735,61,o),
(777,145,c),
(627,145,l),
(595,114,o),
(581,100,o),
(531,100,cs),
(441,100,o),
(436,185,o),
(450,265,cs),
(464,345,o),
(499,430,o),
(589,430,cs),
(679,430,o),
(676,355,o),
(660,265,cs),
(658,253,o),
(653,231,o),
(650,220,c),
(801,220,l),
(803,231,o),
(808,253,o),
(810,265,cs),
(840,435,o),
(768,540,o),
(608,540,cs),
(448,540,o),
(330,435,o),
(300,265,cs),
(270,95,o),
(351,-10,o),
(511,-10,cs)
);
},
{
closed = 1;
nodes = (
(732,220,l),
(748,310,l),
(373,310,l),
(357,220,l)
);
}
);
width = 916;
}
);
unicode = 230;
},
{
glyphname = b;
kernLeft = I;
kernRight = o;
lastChange = "2025-12-25 20:24:24 +0000";
layers = (
{
anchors = (
{
name = bottom;
pos = (198,0);
},
{
name = top;
pos = (336,780);
}
);
hints = (
{
horizontal = 1;
origin = (1,11);
target = (0,18);
type = Stem;
},
{
horizontal = 1;
origin = (0,5);
target = (1,5);
type = Stem;
},
{
horizontal = 1;
origin = (0,11);
target = down;
type = TopGhost;
},
{
horizontal = 1;
origin = (0,12);
target = up;
type = BottomGhost;
},
{
origin = (0,12);
target = (0,13);
type = Stem;
},
{
origin = (1,8);
target = (0,2);
type = Stem;
},
{
origin = (0,12);
target = (1,2);
type = Stem;
}
);
layerId = "05246BF3-0764-4143-87C4-5D2B296D3790";
shapes = (
{
closed = 1;
nodes = (
(351,-10,o),
(461,100,o),
(489,260,cs),
(517,420,o),
(446,530,o),
(316,530,cs),
(236,530,o),
(164,490,o),
(122,420,c),
(112,420,l),
(165,720,l),
(75,720,l),
(-52,0,l),
(38,0,l),
(56,100,l),
(66,100,l),
(83,30,o),
(141,-10,o),
(221,-10,cs)
);
},
{
closed = 1;
nodes = (
(125,70,o),
(66,130,o),
(89,260,cs),
(112,390,o),
(192,450,o),
(282,450,cs),
(372,450,o),
(422,390,o),
(399,260,cs),
(376,130,o),
(305,70,o),
(215,70,cs)
);
}
);
width = 615;
},
{
anchors = (
{
name = bottom;
pos = (198,0);
},
{
name = top;
pos = (336,780);
}
);
hints = (
{
horizontal = 1;
origin = (0,18);
target = (1,11);
type = Stem;
},
{
horizontal = 1;
origin = (0,5);
target = (1,5);
type = Stem;
},
{
horizontal = 1;
origin = (0,11);
target = down;
type = TopGhost;
},
{
horizontal = 1;
origin = (0,12);
target = (1,11);
type = Stem;
},
{
origin = (0,12);
target = (0,13);
type = Stem;
},
{
origin = (1,8);
target = (0,2);
type = Stem;
},
{
origin = (0,12);
target = (1,2);
type = Stem;
}
);
layerId = "B51EB05F-9FBB-4087-814F-400611B2D4B0";
shapes = (
{
closed = 1;
nodes = (
(386,-10,o),
(495,95,o),
(525,265,cs),
(555,435,o),
(483,540,o),
(343,540,cs),
(263,540,o),
(211,500,o),
(172,450,c),
(162,450,l),
(210,720,l),
(60,720,l),
(-67,0,l),
(83,0,l),
(97,80,l),
(107,80,l),
(128,30,o),
(166,-10,o),
(246,-10,cs)
);
},
{
closed = 1;
nodes = (
(146,100,o),
(117,165,o),
(135,265,cs),
(152,365,o),
(204,430,o),
(284,430,cs),
(364,430,o),
(392,365,o),
(375,265,cs),
(357,165,o),
(306,100,o),
(226,100,cs)
);
}
);
width = 635;
}
);
unicode = 98;
},
{
glyphname = c;
kernLeft = o;
kernRight = c;
lastChange = "2025-12-25 20:24:24 +0000";
layers = (
{
anchors = (
{
name = bottom;
pos = (158,0);
},
{
name = top;
pos = (251,530);
}
);
hints = (
{
horizontal = 1;
origin = (0,6);
target = (0,25);
type = Stem;
},
{
horizontal = 1;
origin = (0,19);
target = (0,12);
type = Stem;
},
{
origin = (0,22);
target = (0,9);
type = Stem;
}
);
layerId = "05246BF3-0764-4143-87C4-5D2B296D3790";
shapes = (
{
closed = 1;
nodes = (
(266,-10,o),
(357,50,o),
(406,160,c),
(316,160,l),
(286,100,o),
(240,70,o),
(170,70,cs),
(60,70,o),
(36,160,o),
(54,260,cs),
(72,360,o),
(127,450,o),
(237,450,cs),
(307,450,o),
(342,420,o),
(352,360,c),
(442,360,l),
(431,470,o),
(361,530,o),
(251,530,cs),
(101,530,o),
(-8,420,o),
(-36,260,cs),
(-64,100,o),
(6,-10,o),
(156,-10,cs)
);
}
);
width = 550;
},
{
anchors = (
{
name = bottom;
pos = (163,0);
},
{
name = top;
pos = (258,540);
}
);
hints = (
{
horizontal = 1;
origin = (0,25);
target = (0,6);
type = Stem;
},
{
horizontal = 1;
origin = (0,19);
target = (0,12);
type = Stem;
},
{
origin = (0,22);
target = (0,9);
type = Stem;
}
);
layerId = "B51EB05F-9FBB-4087-814F-400611B2D4B0";
shapes = (
{
closed = 1;
nodes = (
(291,-10,o),
(394,60,o),
(445,180,c),
(295,180,l),
(278,140,o),
(251,100,o),
(181,100,cs),
(91,100,o),
(86,185,o),
(100,265,cs),
(114,345,o),
(149,430,o),
(239,430,cs),
(309,430,o),
(322,390,o),
(325,350,c),
(475,350,l),
(466,470,o),
(388,540,o),
(258,540,cs),
(98,540,o),
(-20,435,o),
(-50,265,cs),
(-80,95,o),
(1,-10,o),
(161,-10,cs)
);
}
);
width = 570;
}
);
unicode = 99;
},
{
glyphname = d;
kernLeft = o;
kernRight = I;
lastChange = "2025-12-25 20:24:24 +0000";
layers = (
{
anchors = (
{
name = bottom;
pos = (138,0);
},
{
name = center;
pos = (189,260);
},
{
name = top;
pos = (230,520);
},
{
name = topright;
pos = (515,520);
}
);
hints = (
{
horizontal = 1;
origin = (1,11);
target = (0,18);
type = Stem;
},
{
horizontal = 1;
origin = (0,12);
target = (1,5);
type = Stem;
},
{
horizontal = 1;
origin = (0,7);
target = down;
type = TopGhost;
},
{
horizontal = 1;
origin = (0,4);
target = up;
type = BottomGhost;
},
{
origin = (0,15);
target = (1,2);
type = Stem;
},
{
origin = (0,4);
target = (0,5);
type = Stem;
},
{
origin = (1,8);
target = (0,5);
type = Stem;
}
);
layerId = "05246BF3-0764-4143-87C4-5D2B296D3790";
shapes = (
{
closed = 1;
nodes = (
(216,-10,o),
(288,30,o),
(331,100,c),
(341,100,l),
(323,0,l),
(413,0,l),
(540,720,l),
(450,720,l),
(397,420,l),
(387,420,l),
(369,490,o),
(311,530,o),
(231,530,cs),
(101,530,o),
(-8,420,o),
(-36,260,cs),
(-64,100,o),
(6,-10,o),
(136,-10,cs)
);
},
{
closed = 1;
nodes = (
(80,70,o),
(31,130,o),
(54,260,cs),
(77,390,o),
(147,450,o),
(237,450,cs),
(327,450,o),
(387,390,o),
(364,260,cs),
(341,130,o),
(260,70,o),
(170,70,cs)
);
}
);
width = 615;
},
{
anchors = (
{
name = bottom;
pos = (158,0);
},
{
name = center;
pos = (204,260);
},
{
name = top;
pos = (201,530);
},
{
name = topright;
pos = (530,520);
}
);
hints = (
{
horizontal = 1;
origin = (0,18);
target = (1,11);
type = Stem;
},
{
horizontal = 1;
origin = (0,12);
target = (1,5);
type = Stem;
},
{
horizontal = 1;
origin = (0,7);
target = down;
type = TopGhost;
},
{
horizontal = 1;
origin = (0,4);
target = (1,11);
type = Stem;
},
{
origin = (0,15);
target = (1,2);
type = Stem;
},
{
origin = (0,4);
target = (0,5);
type = Stem;
},
{
origin = (1,8);
target = (0,5);
type = Stem;
}
);
layerId = "B51EB05F-9FBB-4087-814F-400611B2D4B0";
shapes = (
{
closed = 1;
nodes = (
(211,-10,o),
(263,30,o),
(302,80,c),
(312,80,l),
(298,0,l),
(448,0,l),
(575,720,l),
(425,720,l),
(377,450,l),
(367,450,l),
(346,500,o),
(308,540,o),
(228,540,cs),
(88,540,o),
(-20,435,o),
(-50,265,cs),
(-80,95,o),
(-9,-10,o),
(131,-10,cs)
);
},
{
closed = 1;
nodes = (
(111,100,o),
(82,165,o),
(100,265,cs),
(117,365,o),
(169,430,o),
(249,430,cs),
(329,430,o),
(357,365,o),
(340,265,cs),
(322,165,o),
(271,100,o),
(191,100,cs)
);
}
);
width = 635;
}
);
unicode = 100;
},
{
glyphname = eth;
kernLeft = a.alt01;
kernRight = o;
lastChange = "2025-12-25 20:24:24 +0000";
layers = (
{
hints = (
{
horizontal = 1;
origin = (0,14);
target = (1,11);
type = Stem;
},
{
horizontal = 1;
origin = (1,5);
target = (0,8);
type = Stem;
},
{
horizontal = 1;
origin = (2,3);
target = down;
type = TopGhost;
},
{
origin = (0,11);
target = (1,2);
type = Stem;
},
{
origin = (1,8);
target = (0,2);
type = Stem;
}
);
layerId = "05246BF3-0764-4143-87C4-5D2B296D3790";
shapes = (
{
closed = 1;
nodes = (
(316,-10,o),
(417,80,o),
(456,300,c),
(431,355,l),
(390,380,l),
(380,380,l),
(362,450,o),
(304,490,o),
(224,490,cs),
(94,490,o),
(-8,390,o),
(-35,240,cs),
(-61,90,o),
(6,-10,o),
(136,-10,cs)
);
},
{
closed = 1;
nodes = (
(80,70,o),
(38,140,o),
(55,240,cs),
(73,340,o),
(140,410,o),
(230,410,cs),
(310,410,o),
(368,340,o),
(350,240,cs),
(333,140,o),
(250,70,o),
(170,70,cs)
);
},
{
closed = 1;
nodes = (
(456,300,l),
(523,680,o),
(132,730,o),
(132,730,c),
(118,650,l),
(118,650,o),
(372,620,o),
(390,380,c),
(365,240,l)
);
},
{
closed = 1;
nodes = (
(436,670,l),
(449,740,l),
(127,590,l),
(115,520,l)
);
}
);
width = 580;
},
{
hints = (
{
horizontal = 1;
origin = (0,14);
target = (1,11);
type = Stem;
},
{
horizontal = 1;
origin = (1,5);
target = (0,8);
type = Stem;
},
{
horizontal = 1;
origin = (2,4);
target = (2,3);
type = Stem;
},
{
origin = (0,11);
target = (1,2);
type = Stem;
},
{
origin = (1,8);
target = (0,2);
type = Stem;
}
);
layerId = "B51EB05F-9FBB-4087-814F-400611B2D4B0";
shapes = (
{
closed = 1;
nodes = (
(326,-10,o),
(437,80,o),
(476,300,c),
(431,355,l),
(382,390,l),
(372,390,l),
(354,460,o),
(294,490,o),
(224,490,cs),
(84,490,o),
(-26,400,o),
(-55,240,cs),
(-83,80,o),
(-4,-10,o),
(136,-10,cs)
);
},
{
closed = 1;
nodes = (
(106,100,o),
(79,150,o),
(95,240,cs),
(111,330,o),
(155,380,o),
(225,380,cs),
(285,380,o),
(326,330,o),
(310,240,cs),
(294,150,o),
(236,100,o),
(176,100,cs)
);
},
{
closed = 1;
nodes = (
(476,300,l),
(548,710,o),
(134,740,o),
(134,740,c),
(114,630,l),
(114,630,o),
(359,600,o),
(382,390,c),
(355,240,l)
);
},
{
closed = 1;
nodes = (
(444,660,l),
(459,740,l),
(115,580,l),
(101,500,l)
);
}
);
width = 580;
}
);
unicode = 240;
},
{
glyphname = dcroat;
lastChange = "2025-12-25 20:24:24 +0000";
layers = (
{
hints = (
{
horizontal = 1;
origin = (0,3);
target = (0,2);
type = Stem;
},
{
origin = (0,3);
target = (0,0);
type = Stem;
}
);
layerId = "05246BF3-0764-4143-87C4-5D2B296D3790";
shapes = (
{
closed = 1;
nodes = (
(578,600,l),
(588,660,l),
(318,660,l),
(308,600,l)
);
},
{
ref = d;
}
);
width = 615;
},
{
hints = (
{
horizontal = 1;
origin = (0,3);
target = (0,2);
type = Stem;
},
{
origin = (0,3);
target = (0,0);
type = Stem;
}
);
layerId = "B51EB05F-9FBB-4087-814F-400611B2D4B0";
shapes = (
{
closed = 1;
nodes = (
(613,570,l),
(630,670,l),
(290,670,l),
(273,570,l)
);
},
{
ref = d;
}
);
width = 600;
}
);
unicode = 273;
},
{
glyphname = e;
kernLeft = o;
kernRight = o;
lastChange = "2025-12-25 20:24:24 +0000";
layers = (
{
anchors = (
{
name = bottom;
pos = (153,0);
},
{
name = top;
pos = (251,530);
}
);
hints = (
{
horizontal = 1;
origin = (0,6);
target = (0,31);
type = Stem;
},
{
horizontal = 1;
origin = (1,2);
target = (1,3);
type = Stem;
},
{
horizontal = 1;
origin = (0,25);
target = (0,12);
type = Stem;
},
{
place = (-82,-35);
type = Stem;
},
{
place = (292,-36);
type = Stem;
}
);
layerId = "05246BF3-0764-4143-87C4-5D2B296D3790";
shapes = (
{
closed = 1;
nodes = (
(259,-10,o),
(342,41,o),
(396,135,c),
(300,135,l),
(266,89,o),
(230,70,o),
(170,70,cs),
(60,70,o),
(36,160,o),
(54,260,cs),
(72,360,o),
(127,450,o),
(237,450,cs),
(347,450,o),
(357,360,o),
(339,260,cs),
(337,248,o),
(334,236,o),
(331,225,c),
(422,225,l),
(424,236,o),
(427,248,o),
(429,260,cs),
(457,420,o),
(401,530,o),
(251,530,cs),
(101,530,o),
(-8,420,o),
(-36,260,cs),
(-64,100,o),
(6,-10,o),
(156,-10,cs)
);
},
{
closed = 1;
nodes = (
(373,225,l),
(385,295,l),
(15,295,l),
(3,225,l)
);
}
);
width = 555;
},
{
anchors = (
{
name = bottom;
pos = (163,0);
},
{
name = top;
pos = (260,550);
}
);
hints = (
{
horizontal = 1;
origin = (0,31);
target = (0,6);
type = Stem;
},
{
horizontal = 1;
origin = (1,3);
target = (1,2);
type = Stem;
},
{
horizontal = 1;
origin = (0,25);
target = (0,12);
type = Stem;
},
{
place = (-97,25);
type = Stem;
},
{
place = (262,24);
type = Stem;
}
);
layerId = "B51EB05F-9FBB-4087-814F-400611B2D4B0";
shapes = (
{
closed = 1;
nodes = (
(284,-10,o),
(385,61,o),
(427,145,c),
(277,145,l),
(245,114,o),
(231,100,o),
(181,100,cs),
(91,100,o),
(86,185,o),
(100,265,cs),
(114,345,o),
(149,430,o),
(239,430,cs),
(329,430,o),
(326,355,o),
(310,265,cs),
(308,253,o),
(303,231,o),
(300,220,c),
(451,220,l),
(453,231,o),
(458,253,o),
(460,265,cs),
(490,435,o),
(418,540,o),
(258,540,cs),
(98,540,o),
(-20,435,o),
(-50,265,cs),
(-80,95,o),
(1,-10,o),
(161,-10,cs)
);
},
{
closed = 1;
nodes = (
(382,220,l),
(398,310,l),
(23,310,l),
(7,220,l)
);
}
);
width = 570;
}
);
unicode = 101;
},
{
glyphname = eogonek;
lastChange = "2025-12-25 20:24:24 +0000";
layers = (
{
layerId = "05246BF3-0764-4143-87C4-5D2B296D3790";
shapes = (
{
closed = 1;
nodes = (
(259,-10,o),
(342,41,o),
(396,135,c),
(300,135,l),
(266,89,o),
(230,70,o),
(170,70,cs),
(60,70,o),
(36,160,o),
(54,260,cs),
(72,360,o),
(127,450,o),
(237,450,cs),
(347,450,o),
(357,360,o),
(339,260,cs),
(337,248,o),
(334,236,o),
(331,225,c),
(422,225,l),
(424,236,o),
(427,248,o),
(429,260,cs),
(457,420,o),
(401,530,o),
(251,530,cs),
(101,530,o),
(-8,420,o),
(-36,260,cs),
(-64,100,o),
(6,-10,o),
(156,-10,cs)
);
},
{
closed = 1;
nodes = (
(194,-121,l),
(82,-143,o),
(109,-67,o),
(231,0,c),
(141,0,l),
(-21,-80,o),
(8,-224,o),
(181,-191,c)
);
},
{
closed = 1;
nodes = (
(373,225,l),
(385,295,l),
(15,295,l),
(3,225,l)
);
}
);
width = 555;
},
{
layerId = "B51EB05F-9FBB-4087-814F-400611B2D4B0";
shapes = (
{
closed = 1;
nodes = (
(284,-10,o),
(385,61,o),
(427,145,c),
(277,145,l),
(245,114,o),
(231,100,o),
(181,100,cs),
(91,100,o),
(86,185,o),
(100,265,cs),
(114,345,o),
(149,430,o),
(239,430,cs),
(329,430,o),
(326,355,o),
(310,265,cs),
(308,253,o),
(303,231,o),
(300,220,c),
(451,220,l),
(453,231,o),
(458,253,o),
(460,265,cs),
(490,435,o),
(418,540,o),
(258,540,cs),
(98,540,o),
(-20,435,o),
(-50,265,cs),
(-80,95,o),
(1,-10,o),
(161,-10,cs)
);
},
{
closed = 1;
nodes = (
(216,-105,l),
(104,-127,o),
(118,-67,o),
(240,0,c),
(90,0,l),
(-84,-86,o),
(-23,-233,o),
(201,-190,c)
);
},
{
closed = 1;
nodes = (
(382,220,l),
(398,310,l),
(23,310,l),
(7,220,l)
);
}
);
width = 570;
}
);
unicode = 281;
},
{
glyphname = f;
kernLeft = f;
kernRight = f;
lastChange = "2025-12-25 20:24:24 +0000";
layers = (
{
anchors = (
{
name = bottom;
pos = (56,0);
},
{
name = top;
pos = (194,780);
}
);
hints = (
{
horizontal = 1;
origin = (0,3);
target = up;
type = BottomGhost;
},
{
horizontal = 1;
origin = (1,2);
target = (1,3);
type = Stem;
},
{
horizontal = 1;
origin = (2,6);
target = (2,3);
type = Stem;
},
{
origin = (0,3);
target = (0,0);
type = Stem;
}
);
layerId = "05246BF3-0764-4143-87C4-5D2B296D3790";
shapes = (
{
closed = 1;
nodes = (
(68,0,l),
(174,600,l),
(86,610,l),
(-22,0,l)
);
},
{
closed = 1;
nodes = (
(271,440,l),
(285,520,l),
(-5,520,l),
(-19,440,l)
);
},
{
closed = 1;
nodes = (
(174,600,l),
(179,630,o),
(201,640,o),
(221,640,cs),
(306,640,l),
(320,720,l),
(205,720,ls),
(155,720,o),
(98,680,o),
(86,610,c)
);
}
);
width = 330;
},
{
anchors = (
{
name = bottom;
pos = (27,0);
},
{
name = top;
pos = (165,780);
}
);
hints = (
{
horizontal = 1;
origin = (0,3);
target = up;
type = BottomGhost;
},
{
horizontal = 1;
origin = (1,2);
target = (1,3);
type = Stem;
},
{
horizontal = 1;
origin = (2,6);
target = (2,3);
type = Stem;
},
{
origin = (0,3);
target = (0,0);
type = Stem;
}
);
layerId = "B51EB05F-9FBB-4087-814F-400611B2D4B0";
shapes = (
{
closed = 1;
nodes = (
(123,0,l),
(224,570,l),
(75,580,l),
(-27,0,l)
);
},
{
closed = 1;
nodes = (
(327,420,l),
(346,530,l),
(-14,530,l),
(-33,420,l)
);
},
{
closed = 1;
nodes = (
(224,570,l),
(229,600,o),
(241,610,o),
(271,610,cs),
(361,610,l),
(380,720,l),
(250,720,ls),
(170,720,o),
(91,670,o),
(75,580,c)
);
}
);
width = 380;
}
);
unicode = 102;
},
{
glyphname = g;
kernLeft = g;
kernRight = g;
lastChange = "2025-12-25 20:24:24 +0000";
layers = (
{
anchors = (
{
name = bottom;
pos = (141,-210);
},
{
name = top;
pos = (261,530);
}
);
hints = (
{
horizontal = 1;
origin = (1,6);
target = (1,13);
type = Stem;
},
{
horizontal = 1;
origin = (2,11);
target = (0,18);
type = Stem;
},
{
horizontal = 1;
origin = (0,12);
target = (2,5);
type = Stem;
},
{
horizontal = 1;
origin = (0,7);
target = down;
type = TopGhost;
},
{
origin = (0,15);
target = (2,2);
type = Stem;
},
{
origin = (0,4);
target = (0,5);
type = Stem;
},
{
origin = (2,8);
target = (0,5);
type = Stem;
}
);
layerId = "05246BF3-0764-4143-87C4-5D2B296D3790";
shapes = (
{
closed = 1;
nodes = (
(216,-10,o),
(288,30,o),
(331,100,c),
(341,100,l),
(323,0,l),
(413,0,l),
(505,520,l),
(415,520,l),
(397,420,l),
(387,420,l),
(369,490,o),
(311,530,o),
(231,530,cs),
(91,530,o),
(-6,430,o),
(-36,260,cs),
(-66,90,o),
(-4,-10,o),
(136,-10,cs)
);
},
{
closed = 1;
nodes = (
(282,-220,o),
(388,-143,o),
(413,0,c),
(323,0,l),
(306,-94,o),
(245,-140,o),
(153,-140,cs),
(87,-140,o),
(43,-110,o),
(30,-70,c),
(-65,-70,l),
(-51,-160,o),
(19,-220,o),
(139,-220,cs)
);
},
{
closed = 1;
nodes = (
(80,70,o),
(31,130,o),
(54,260,cs),
(77,390,o),
(147,450,o),
(237,450,cs),
(327,450,o),
(387,390,o),
(364,260,cs),
(341,130,o),
(260,70,o),
(170,70,cs)
);
}
);
width = 615;
},
{
anchors = (
{
name = bottom;
pos = (131,-210);
},
{
name = top;
pos = (258,540);
}
);
hints = (
{
horizontal = 1;
origin = (1,6);
target = (1,13);
type = Stem;
},
{
horizontal = 1;
origin = (2,11);
target = (0,18);
type = Stem;
},
{
horizontal = 1;
origin = (0,12);
target = (2,5);
type = Stem;
},
{
horizontal = 1;
origin = (0,7);
target = (2,5);
type = Stem;
},
{
origin = (0,15);
target = (2,2);
type = Stem;
},
{
origin = (0,4);
target = (0,5);
type = Stem;
},
{
origin = (2,8);
target = (0,5);
type = Stem;
}
);
layerId = "B51EB05F-9FBB-4087-814F-400611B2D4B0";
shapes = (
{
closed = 1;
nodes = (
(211,-10,o),
(263,30,o),
(302,80,c),
(312,80,l),
(298,0,l),
(448,0,l),
(541,530,l),
(391,530,l),
(377,450,l),
(367,450,l),
(346,500,o),
(308,540,o),
(228,540,cs),
(88,540,o),
(-20,435,o),
(-50,265,cs),
(-80,95,o),
(-9,-10,o),
(131,-10,cs)
);
},
{
closed = 1;
nodes = (
(269,-220,o),
(421,-153,o),
(448,0,c),
(298,0,l),
(285,-74,o),
(231,-110,o),
(149,-110,cs),
(103,-110,o),
(81,-89,o),
(58,-50,c),
(-97,-50,l),
(-85,-131,o),
(-11,-220,o),
(129,-220,cs)
);
},
{
closed = 1;
nodes = (
(111,100,o),
(82,165,o),
(100,265,cs),
(117,365,o),
(169,430,o),
(249,430,cs),
(329,430,o),
(357,365,o),
(340,265,cs),
(322,165,o),
(271,100,o),
(191,100,cs)
);
}
);
width = 635;
}
);
unicode = 103;
},
{
glyphname = h;
kernLeft = I;
kernRight = n;
lastChange = "2025-12-25 20:24:24 +0000";
layers = (
{
anchors = (
{
name = bottom;
pos = (181,0);
},
{
name = center;
pos = (250,390);
},
{
name = top;
pos = (319,780);
}
);
hints = (
{
horizontal = 1;
origin = (0,20);
target = up;
type = BottomGhost;
},
{
horizontal = 1;
origin = (0,13);
target = (0,4);
type = Stem;
},
{
horizontal = 1;
origin = (0,19);
target = down;
type = TopGhost;
},
{
origin = (0,20);
target = (0,0);
type = Stem;
},
{
origin = (0,8);
target = (0,9);
type = Stem;
}
);
layerId = "05246BF3-0764-4143-87C4-5D2B296D3790";
shapes = (
{
closed = 1;
nodes = (
(38,0,l),
(87,280,ls),
(107,390,o),
(182,450,o),
(252,450,cs),
(322,450,o),
(362,420,o),
(346,330,c),
(288,0,l),
(378,0,l),
(436,330,l),
(461,470,o),
(396,530,o),
(296,530,cs),
(216,530,o),
(164,490,o),
(122,420,c),
(112,420,l),
(165,720,l),
(75,720,l),
(-52,0,l)
);
}
);
width = 570;
},
{
anchors = (
{
name = bottom;
pos = (195,0);
},
{
name = center;
pos = (264,390);
},
{
name = top;
pos = (333,780);
}
);
hints = (
{
horizontal = 1;
origin = (0,20);
target = up;
type = BottomGhost;
},
{
horizontal = 1;
origin = (0,13);
target = (0,4);
type = Stem;
},
{
horizontal = 1;
origin = (0,19);
target = down;
type = TopGhost;
},
{
origin = (0,20);
target = (0,0);
type = Stem;
},
{
origin = (0,8);
target = (0,9);
type = Stem;
}
);
layerId = "B51EB05F-9FBB-4087-814F-400611B2D4B0";
shapes = (
{
closed = 1;
nodes = (
(83,0,l),
(132,280,ls),
(148,370,o),
(194,430,o),
(254,430,cs),
(314,430,o),
(334,400,o),
(321,330,c),
(263,0,l),
(413,0,l),
(471,330,l),
(496,470,o),
(433,540,o),
(333,540,cs),
(263,540,o),
(213,510,o),
(172,450,c),
(162,450,l),
(210,720,l),
(60,720,l),
(-67,0,l)
);
}
);
width = 590;
}
);
unicode = 104;
},
{
glyphname = hbar;
lastChange = "2025-12-25 20:24:24 +0000";
layers = (
{
hints = (
{
horizontal = 1;
origin = (0,20);
target = up;
type = BottomGhost;
},
{
horizontal = 1;
origin = (0,13);
target = (0,4);
type = Stem;
},
{
horizontal = 1;
origin = (0,19);
target = (1,3);
type = Stem;
},
{
horizontal = 1;
origin = (1,3);
target = (1,2);
type = Stem;
},
{
origin = (0,20);
target = (0,0);
type = Stem;
},
{
origin = (0,8);
target = (0,9);
type = Stem;
}
);
layerId = "05246BF3-0764-4143-87C4-5D2B296D3790";
shapes = (
{
closed = 1;
nodes = (
(38,0,l),
(87,280,ls),
(107,390,o),
(182,450,o),
(252,450,cs),
(322,450,o),
(362,420,o),
(346,330,c),
(288,0,l),
(378,0,l),
(436,330,l),
(461,470,o),
(396,530,o),
(296,530,cs),
(216,530,o),
(164,490,o),
(122,420,c),
(112,420,l),
(165,720,l),
(75,720,l),
(-52,0,l)
);
},
{
closed = 1;
nodes = (
(274,601,l),
(286,671,l),
(16,671,l),
(4,601,l)
);
}
);
width = 600;
},
{
hints = (
{
horizontal = 1;
origin = (0,20);
target = up;
type = BottomGhost;
},
{
horizontal = 1;
origin = (0,13);
target = (0,4);
type = Stem;
},
{
horizontal = 1;
origin = (0,19);
target = (1,3);
type = Stem;
},
{
horizontal = 1;
origin = (1,3);
target = (1,2);
type = Stem;
},
{
origin = (0,20);
target = (0,0);
type = Stem;
},
{
origin = (0,8);
target = (0,9);
type = Stem;
}
);
layerId = "B51EB05F-9FBB-4087-814F-400611B2D4B0";
shapes = (
{
closed = 1;
nodes = (
(83,0,l),
(132,280,ls),
(148,370,o),
(194,430,o),
(254,430,cs),
(314,430,o),
(334,400,o),
(321,330,c),
(263,0,l),
(413,0,l),
(471,330,l),
(496,470,o),
(433,540,o),
(333,540,cs),
(263,540,o),
(213,510,o),
(172,450,c),
(162,450,l),
(210,720,l),
(60,720,l),
(-67,0,l)
);
},
{
closed = 1;
nodes = (
(320,581,l),
(336,671,l),
(-4,671,l),
(-20,581,l)
);
}
);
width = 600;
}
);
unicode = 295;
},
{
glyphname = i;
kernLeft = i;
kernRight = i;
lastChange = "2025-12-25 20:24:24 +0000";
layers = (
{
anchors = (
{
name = bottom;
pos = (-7,0);
}
);
hints = (
{
horizontal = 1;
origin = (0,3);
target = up;
type = BottomGhost;
},
{
horizontal = 1;
origin = (0,2);
target = down;
type = TopGhost;
},
{
horizontal = 1;
origin = (1,5);
target = (1,11);
type = Stem;
},
{
origin = (1,8);
target = (1,2);
type = Stem;
},
{
origin = (0,3);
target = (0,0);
type = Stem;
}
);
layerId = "05246BF3-0764-4143-87C4-5D2B296D3790";
shapes = (
{
closed = 1;
nodes = (
(38,0,l),
(130,520,l),
(40,520,l),
(-52,0,l)
);
},
{
closed = 1;
nodes = (
(133,620,o),
(162,644,o),
(167,675,cs),
(173,706,o),
(153,730,o),
(122,730,cs),
(91,730,o),
(63,706,o),
(57,675,cs),
(52,644,o),
(71,620,o),
(102,620,cs)
);
}
);
width = 240;
},
{
anchors = (
{
name = bottom;
pos = (13,0);
}
);
hints = (
{
horizontal = 1;
origin = (0,3);
target = up;
type = BottomGhost;
},
{
horizontal = 1;
origin = (0,2);
target = down;
type = TopGhost;
},
{
horizontal = 1;
origin = (1,11);
target = (1,5);
type = Stem;
},
{
origin = (1,8);
target = (1,2);
type = Stem;
},
{
origin = (0,3);
target = (0,0);
type = Stem;
}
);
layerId = "B51EB05F-9FBB-4087-814F-400611B2D4B0";
shapes = (
{
closed = 1;
nodes = (
(88,0,l),
(181,530,l),
(31,530,l),
(-62,0,l)
);
},
{
closed = 1;
nodes = (
(163,580,o),
(207,617,o),
(215,665,cs),
(224,713,o),
(193,750,o),
(145,750,cs),
(97,750,o),
(54,713,o),
(45,665,cs),
(37,617,o),
(67,580,o),
(115,580,cs)
);
}
);
width = 280;
}
);
unicode = 105;
},
{
glyphname = idotless;
lastChange = "2025-12-25 20:24:24 +0000";
layers = (
{
anchors = (
{
name = bottom;
pos = (-41,0);
},
{
name = top;
pos = (96,520);
}
);
hints = (
{
horizontal = 1;
origin = (0,3);
target = up;
type = BottomGhost;
},
{
horizontal = 1;
origin = (0,2);
target = down;
type = TopGhost;
},
{
origin = (0,3);
target = (0,0);
type = Stem;
}
);
layerId = "05246BF3-0764-4143-87C4-5D2B296D3790";
shapes = (
{
closed = 1;
nodes = (
(49,0,l),
(141,520,l),
(51,520,l),
(-41,0,l)
);
}
);
width = 262;
},
{
anchors = (
{
name = bottom;
pos = (-71,0);
},
{
name = top;
pos = (97,530);
}
);
hints = (
{
horizontal = 1;
origin = (0,3);
target = up;
type = BottomGhost;
},
{
horizontal = 1;
origin = (0,2);
target = down;
type = TopGhost;
},
{
origin = (0,3);
target = (0,0);
type = Stem;
}
);
layerId = "B51EB05F-9FBB-4087-814F-400611B2D4B0";
shapes = (
{
closed = 1;
nodes = (
(79,0,l),
(172,530,l),
(22,530,l),
(-71,0,l)
);
}
);
width = 262;
}
);
unicode = 305;
},
{
glyphname = iogonek;
lastChange = "2025-12-25 20:24:24 +0000";
layers = (
{
anchors = (
{
name = bottom;
pos = (-41,0);
},
{
name = top;
pos = (96,520);
}
);
hints = (
{
horizontal = 1;
origin = (0,6);
target = up;
type = BottomGhost;
},
{
horizontal = 1;
origin = (0,5);
target = down;
type = TopGhost;
},
{
origin = (0,6);
target = (0,3);
type = Stem;
},
{
horizontal = 1;
place = (-322,-56);
type = Stem;
},
{
place = (-127,-41);
type = Stem;
},
{
horizontal = 1;
origin = (1,5);
target = (1,11);
type = Stem;
},
{
origin = (1,8);
target = (1,2);
type = Stem;
}
);
layerId = "05246BF3-0764-4143-87C4-5D2B296D3790";
shapes = (
{
closed = 1;
nodes = (
(12,-121,l),
(-100,-143,o),
(-73,-67,o),
(49,0,c),
(141,520,l),
(51,520,l),
(-41,0,l),
(-203,-80,o),
(-174,-224,o),
(-1,-191,c)
);
},
{
closed = 1;
nodes = (
(143,630,o),
(169,652,o),
(174,680,cs),
(179,708,o),
(161,730,o),
(133,730,cs),
(105,730,o),
(79,708,o),
(74,680,cs),
(69,652,o),
(87,630,o),
(115,630,cs)
);
}
);
width = 262;
},
{
anchors = (
{
name = bottom;
pos = (-71,0);
},
{
name = top;
pos = (97,530);
}
);
hints = (
{
horizontal = 1;
origin = (0,6);
target = up;
type = BottomGhost;
},
{
horizontal = 1;
origin = (0,5);
target = down;
type = TopGhost;
},
{
origin = (0,6);
target = (0,3);
type = Stem;
},
{
horizontal = 1;
origin = (1,11);
target = (1,5);
type = Stem;
},
{
origin = (1,8);
target = (1,2);
type = Stem;
},
{
horizontal = 1;
place = (-325,-39);
type = Stem;
},
{
place = (-152,19);
type = Stem;
}
);
layerId = "B51EB05F-9FBB-4087-814F-400611B2D4B0";
shapes = (
{
closed = 1;
nodes = (
(55,-105,l),
(-57,-127,o),
(-43,-67,o),
(79,0,c),
(172,530,l),
(22,530,l),
(-71,0,l),
(-245,-86,o),
(-184,-233,o),
(40,-190,c)
);
},
{
closed = 1;
nodes = (
(158,600,o),
(201,637,o),
(210,685,cs),
(218,733,o),
(188,770,o),
(140,770,cs),
(92,770,o),
(48,733,o),
(40,685,cs),
(31,637,o),
(62,600,o),
(110,600,cs)
);
}
);
width = 262;
}
);
unicode = 303;
},
{
glyphname = j;
kernLeft = j;
kernRight = j;
lastChange = "2025-12-25 20:24:24 +0000";
layers = (
{
hints = (
{
horizontal = 1;
origin = (1,8);
target = (1,9);
type = Stem;
},
{
horizontal = 1;
origin = (0,2);
target = down;
type = TopGhost;
},
{
horizontal = 1;
origin = (2,5);
target = (2,11);
type = Stem;
},
{
origin = (1,0);
target = (2,2);
type = Stem;
},
{
origin = (0,3);
target = (0,0);
type = Stem;
}
);
layerId = "05246BF3-0764-4143-87C4-5D2B296D3790";
shapes = (
{
closed = 1;
nodes = (
(34,-110,l),
(145,520,l),
(55,520,l),
(-55,-100,l)
);
},
{
closed = 1;
nodes = (
(-86,-220,ls),
(-36,-220,o),
(21,-180,o),
(34,-110,c),
(-55,-100,l),
(-60,-130,o),
(-82,-140,o),
(-102,-140,cs),
(-162,-140,l),
(-176,-220,l)
);
},
{
closed = 1;
nodes = (
(148,620,o),
(177,644,o),
(182,675,cs),
(188,706,o),
(168,730,o),
(137,730,cs),
(106,730,o),
(78,706,o),
(72,675,cs),
(67,644,o),
(86,620,o),
(117,620,cs)
);
}
);
width = 255;
},
{
hints = (
{
horizontal = 1;
origin = (1,8);
target = (1,9);
type = Stem;
},
{
horizontal = 1;
origin = (0,2);
target = down;
type = TopGhost;
},
{
horizontal = 1;
origin = (2,11);
target = (2,5);
type = Stem;
},
{
origin = (2,8);
target = (2,2);
type = Stem;
},
{
origin = (1,0);
target = (0,0);
type = Stem;
}
);
layerId = "B51EB05F-9FBB-4087-814F-400611B2D4B0";
shapes = (
{
closed = 1;
nodes = (
(99,-80,l),
(206,530,l),
(56,530,l),
(-49,-70,l)
);
},
{
closed = 1;
nodes = (
(-76,-220,ls),
(4,-220,o),
(83,-170,o),
(99,-80,c),
(-49,-70,l),
(-55,-100,o),
(-76,-110,o),
(-96,-110,cs),
(-166,-110,l),
(-186,-220,l)
);
},
{
closed = 1;
nodes = (
(188,580,o),
(232,617,o),
(240,665,cs),
(249,713,o),
(218,750,o),
(170,750,cs),
(122,750,o),
(79,713,o),
(70,665,cs),
(62,617,o),
(92,580,o),
(140,580,cs)
);
}
);
width = 305;
}
);
unicode = 106;
},
{
glyphname = jdotless;
lastChange = "2025-12-25 20:24:24 +0000";
layers = (
{
anchors = (
{
name = top;
pos = (100,520);
}
);
hints = (
{
horizontal = 1;
origin = (1,9);
target = (1,8);
type = Stem;
},
{
horizontal = 1;
origin = (0,1);
target = down;
type = TopGhost;
},
{
origin = (0,2);
target = (0,3);
type = Stem;
}
);
layerId = "05246BF3-0764-4143-87C4-5D2B296D3790";
shapes = (
{
closed = 1;
nodes = (
(145,520,l),
(55,520,l),
(-55,-100,l),
(34,-110,l)
);
},
{
closed = 1;
nodes = (
(-86,-220,ls),
(-36,-220,o),
(21,-180,o),
(34,-110,c),
(-55,-100,l),
(-60,-130,o),
(-82,-140,o),
(-102,-140,cs),
(-162,-140,l),
(-176,-220,l)
);
}
);
width = 245;
},
{
anchors = (
{
name = top;
pos = (131,530);
}
);
hints = (
{
horizontal = 1;
origin = (1,9);
target = (1,8);
type = Stem;
},
{
horizontal = 1;
origin = (0,1);
target = down;
type = TopGhost;
},
{
origin = (1,0);
target = (0,3);
type = Stem;
}
);
layerId = "B51EB05F-9FBB-4087-814F-400611B2D4B0";
shapes = (
{
closed = 1;
nodes = (
(206,530,l),
(56,530,l),
(-49,-70,l),
(99,-80,l)
);
},
{
closed = 1;
nodes = (
(-76,-220,ls),
(4,-220,o),
(83,-170,o),
(99,-80,c),
(-49,-70,l),
(-55,-100,o),
(-76,-110,o),
(-96,-110,cs),
(-166,-110,l),
(-186,-220,l)
);
}
);
width = 295;
}
);
unicode = 567;
},
{
glyphname = k;
kernLeft = I;
kernRight = k;
lastChange = "2025-12-25 20:24:24 +0000";
layers = (
{
anchors = (
{
name = bottom;
pos = (158,0);
},
{
name = top;
pos = (274,780);
}
);
hints = (
{
horizontal = 1;
origin = (1,3);
target = up;
type = BottomGhost;
},
{
horizontal = 1;
origin = (0,1);
target = down;
type = TopGhost;
},
{
horizontal = 1;
origin = (1,2);
target = down;
type = TopGhost;
},
{
origin = (1,3);
target = (1,0);
type = Stem;
}
);
layerId = "05246BF3-0764-4143-87C4-5D2B296D3790";
shapes = (
{
closed = 1;
nodes = (
(435,520,l),
(335,520,l),
(99,290,l),
(89,290,l),
(68,170,l)
);
},
{
closed = 1;
nodes = (
(38,0,l),
(165,720,l),
(75,720,l),
(-52,0,l)
);
},
{
closed = 1;
nodes = (
(378,0,l),
(202,306,l),
(129,263,l),
(283,0,l)
);
}
);
width = 515;
},
{
anchors = (
{
name = bottom;
pos = (168,0);
},
{
name = top;
pos = (284,780);
}
);
hints = (
{
horizontal = 1;
origin = (1,3);
target = up;
type = BottomGhost;
},
{
horizontal = 1;
origin = (0,1);
target = down;
type = TopGhost;
},
{
horizontal = 1;
origin = (1,2);
target = down;
type = TopGhost;
},
{
origin = (1,3);
target = (1,0);
type = Stem;
}
);
layerId = "B51EB05F-9FBB-4087-814F-400611B2D4B0";
shapes = (
{
closed = 1;
nodes = (
(501,530,l),
(341,530,l),
(153,340,l),
(143,340,l),
(109,145,l)
);
},
{
closed = 1;
nodes = (
(83,0,l),
(210,720,l),
(60,720,l),
(-67,0,l)
);
},
{
closed = 1;
nodes = (
(448,0,l),
(272,306,l),
(136,263,l),
(288,0,l)
);
}
);
width = 585;
}
);
unicode = 107;
},
{
glyphname = l;
kernLeft = I;
kernRight = l;
lastChange = "2025-12-25 20:24:24 +0000";
layers = (
{
anchors = (
{
name = bottom;
pos = (31,0);
},
{
name = center;
pos = (100,390);
},
{
name = top;
pos = (129,740);
}
);
hints = (
{
horizontal = 1;
origin = (1,9);
target = (1,2);
type = Stem;
},
{
origin = (0,3);
target = (0,0);
type = Stem;
}
);
layerId = "05246BF3-0764-4143-87C4-5D2B296D3790";
shapes = (
{
closed = 1;
nodes = (
(59,120,l),
(169,740,l),
(79,740,l),
(-33,110,l)
);
},
{
closed = 1;
nodes = (
(113,0,l),
(127,80,l),
(92,80,l),
(72,80,o),
(54,90,o),
(59,120,c),
(-33,110,l),
(-45,40,o),
(-2,0,o),
(48,0,c)
);
}
);
width = 260;
},
{
anchors = (
{
name = bottom;
pos = (41,0);
},
{
name = center;
pos = (110,390);
},
{
name = top;
pos = (139,740);
}
);
hints = (
{
horizontal = 1;
origin = (1,9);
target = (1,2);
type = Stem;
},
{
origin = (0,3);
target = (1,9);
type = Stem;
}
);
layerId = "B51EB05F-9FBB-4087-814F-400611B2D4B0";
shapes = (
{
closed = 1;
nodes = (
(109,150,l),
(214,740,l),
(64,740,l),
(-42,140,l)
);
},
{
closed = 1;
nodes = (
(178,0,l),
(197,110,l),
(142,110,l),
(122,110,o),
(104,120,o),
(109,150,c),
(-42,140,l),
(-58,50,o),
(3,0,o),
(83,0,c)
);
}
);
width = 315;
}
);
unicode = 108;
},
{
glyphname = lslash;
kernLeft = l;
kernRight = l;
lastChange = "2025-12-25 20:24:24 +0000";
layers = (
{
hints = (
{
horizontal = 1;
origin = (0,3);
target = (0,1);
type = Stem;
},
{
origin = (0,3);
target = (0,0);
type = Stem;
}
);
layerId = "05246BF3-0764-4143-87C4-5D2B296D3790";
shapes = (
{
closed = 1;
nodes = (
(178,397,l),
(190,467,l),
(-27,367,l),
(-40,297,l)
);
},
{
pos = (10,0);
ref = l;
}
);
width = 281;
},
{
hints = (
{
horizontal = 1;
origin = (0,3);
target = (0,1);
type = Stem;
},
{
origin = (0,3);
target = (0,0);
type = Stem;
}
);
layerId = "B51EB05F-9FBB-4087-814F-400611B2D4B0";
shapes = (
{
closed = 1;
nodes = (
(228,397,l),
(246,497,l),
(-49,357,l),
(-67,257,l)
);
},
{
pos = (10,0);
ref = l;
}
);
width = 335;
}
);
unicode = 322;
},
{
glyphname = m;
kernLeft = n;
kernRight = n;
lastChange = "2025-12-25 20:24:24 +0000";
layers = (
{
anchors = (
{
name = bottom;
pos = (316,0);
},
{
name = top;
pos = (408,520);
}
);
hints = (
{
horizontal = 1;
origin = (0,20);
target = up;
type = BottomGhost;
},
{
horizontal = 1;
origin = (0,13);
target = (0,4);
type = Stem;
},
{
horizontal = 1;
origin = (0,19);
target = down;
type = TopGhost;
},
{
origin = (0,20);
target = (0,0);
type = Stem;
},
{
origin = (0,8);
target = (0,9);
type = Stem;
},
{
origin = (1,16);
target = (1,0);
type = Stem;
}
);
layerId = "05246BF3-0764-4143-87C4-5D2B296D3790";
shapes = (
{
closed = 1;
nodes = (
(38,0,l),
(87,280,ls),
(107,390,o),
(172,450,o),
(242,450,cs),
(302,450,o),
(340,410,o),
(326,330,c),
(268,0,l),
(358,0,l),
(416,330,l),
(441,470,o),
(376,530,o),
(286,530,cs),
(206,530,o),
(164,490,o),
(122,420,c),
(112,420,l),
(130,520,l),
(40,520,l),
(-52,0,l)
);
},
{
closed = 1;
nodes = (
(678,0,l),
(736,330,l),
(761,470,o),
(696,530,o),
(606,530,cs),
(526,530,o),
(472,490,o),
(430,420,c),
(418,420,l),
(407,280,l),
(427,390,o),
(492,450,o),
(562,450,cs),
(622,450,o),
(660,410,o),
(646,330,c),
(588,0,l)
);
}
);
width = 870;
},
{
anchors = (
{
name = bottom;
pos = (311,0);
},
{
name = top;
pos = (403,520);
}
);
hints = (
{
horizontal = 1;
origin = (0,20);
target = up;
type = BottomGhost;
},
{
horizontal = 1;
origin = (0,13);
target = (0,4);
type = Stem;
},
{
horizontal = 1;
origin = (0,19);
target = (0,4);
type = Stem;
},
{
origin = (0,20);
target = (0,0);
type = Stem;
},
{
origin = (0,8);
target = (0,9);
type = Stem;
},
{
origin = (1,16);
target = (1,0);
type = Stem;
}
);
layerId = "B51EB05F-9FBB-4087-814F-400611B2D4B0";
shapes = (
{
closed = 1;
nodes = (
(83,0,l),
(132,280,ls),
(150,380,o),
(184,430,o),
(244,430,cs),
(294,430,o),
(312,390,o),
(301,330,c),
(243,0,l),
(393,0,l),
(451,330,l),
(476,470,o),
(423,540,o),
(323,540,cs),
(253,540,o),
(213,510,o),
(172,450,c),
(162,450,l),
(176,530,l),
(26,530,l),
(-67,0,l)
);
},
{
closed = 1;
nodes = (
(703,0,l),
(761,330,l),
(786,470,o),
(723,540,o),
(623,540,cs),
(553,540,o),
(503,510,o),
(462,450,c),
(442,450,l),
(442,280,l),
(460,380,o),
(494,430,o),
(554,430,cs),
(604,430,o),
(622,390,o),
(611,330,c),
(553,0,l)
);
}
);
width = 880;
}
);
unicode = 109;
},
{
glyphname = n;
kernLeft = n;
kernRight = n;
lastChange = "2025-12-25 20:24:24 +0000";
layers = (
{
anchors = (
{
name = bottom;
pos = (173,0);
},
{
name = top;
pos = (266,530);
}
);
hints = (
{
horizontal = 1;
origin = (0,20);
target = up;
type = BottomGhost;
},
{
horizontal = 1;
origin = (0,13);
target = (0,4);
type = Stem;
},
{
horizontal = 1;
origin = (0,19);
target = down;
type = TopGhost;
},
{
origin = (0,20);
target = (0,0);
type = Stem;
},
{
origin = (0,8);
target = (0,9);
type = Stem;
}
);
layerId = "05246BF3-0764-4143-87C4-5D2B296D3790";
shapes = (
{
closed = 1;
nodes = (
(38,0,l),
(87,280,ls),
(107,390,o),
(182,450,o),
(252,450,cs),
(322,450,o),
(362,420,o),
(346,330,c),
(288,0,l),
(378,0,l),
(436,330,l),
(461,470,o),
(396,530,o),
(296,530,cs),
(216,530,o),
(166,500,o),
(124,430,c),
(114,430,l),
(130,520,l),
(40,520,l),
(-52,0,l)
);
}
);
width = 570;
},
{
anchors = (
{
name = bottom;
pos = (178,0);
},
{
name = top;
pos = (273,540);
}
);
hints = (
{
horizontal = 1;
origin = (0,20);
target = up;
type = BottomGhost;
},
{
horizontal = 1;
origin = (0,13);
target = (0,4);
type = Stem;
},
{
horizontal = 1;
origin = (0,19);
target = (0,4);
type = Stem;
},
{
origin = (0,20);
target = (0,0);
type = Stem;
},
{
origin = (0,8);
target = (0,9);
type = Stem;
}
);
layerId = "B51EB05F-9FBB-4087-814F-400611B2D4B0";
shapes = (
{
closed = 1;
nodes = (
(83,0,l),
(132,280,ls),
(148,370,o),
(194,430,o),
(254,430,cs),
(314,430,o),
(334,400,o),
(321,330,c),
(263,0,l),
(413,0,l),
(471,330,l),
(496,470,o),
(433,540,o),
(333,540,cs),
(263,540,o),
(213,510,o),
(172,450,c),
(162,450,l),
(176,530,l),
(26,530,l),
(-67,0,l)
);
}
);
width = 590;
}
);
unicode = 110;
},
{
glyphname = eng;
lastChange = "2025-12-25 20:24:24 +0000";
layers = (
{
hints = (
{
horizontal = 1;
origin = (0,9);
target = (0,8);
type = Stem;
},
{
origin = (0,4);
target = (0,3);
type = Stem;
}
);
layerId = "05246BF3-0764-4143-87C4-5D2B296D3790";
shapes = (
{
closed = 1;
nodes = (
(238,-200,ls),
(288,-200,o),
(350,-160,o),
(362,-90,c),
(272,-90,l),
(267,-120,o),
(241,-130,o),
(221,-130,cs),
(165,-130,l),
(153,-200,l)
);
},
{
closed = 1;
nodes = (
(362,-90,l),
(378,0,l),
(288,0,l),
(272,-90,l)
);
},
{
ref = n;
}
);
width = 580;
},
{
hints = (
{
horizontal = 1;
origin = (0,9);
target = (0,8);
type = Stem;
},
{
origin = (0,4);
target = (0,3);
type = Stem;
}
);
layerId = "B51EB05F-9FBB-4087-814F-400611B2D4B0";
shapes = (
{
closed = 1;
nodes = (
(263,-200,ls),
(313,-200,o),
(385,-160,o),
(397,-90,c),
(254,-50,l),
(249,-80,o),
(223,-90,o),
(203,-90,cs),
(137,-90,l),
(118,-200,l)
);
},
{
closed = 1;
nodes = (
(397,-90,l),
(413,0,l),
(263,0,l),
(254,-50,l)
);
},
{
ref = n;
}
);
width = 600;
}
);
unicode = 331;
},
{
glyphname = o;
kernLeft = o;
kernRight = o;
lastChange = "2025-12-25 20:24:24 +0000";
layers = (
{
anchors = (
{
name = bottom;
pos = (158,0);
},
{
name = center;
pos = (204,260);
},
{
name = ogonek;
pos = (392,10);
},
{
name = top;
pos = (250,520);
},
{
name = topright;
pos = (520,520);
}
);
hints = (
{
horizontal = 1;
origin = (1,11);
target = (0,11);
type = Stem;
},
{
horizontal = 1;
origin = (0,5);
target = (1,5);
type = Stem;
},
{
origin = (0,8);
target = (1,2);
type = Stem;
},
{
origin = (1,8);
target = (0,2);
type = Stem;
}
);
layerId = "05246BF3-0764-4143-87C4-5D2B296D3790";
shapes = (
{
closed = 1;
nodes = (
(306,-10,o),
(416,100,o),
(444,260,cs),
(472,420,o),
(401,530,o),
(251,530,cs),
(101,530,o),
(-8,420,o),
(-36,260,cs),
(-64,100,o),
(6,-10,o),
(156,-10,cs)
);
},
{
closed = 1;
nodes = (
(60,70,o),
(36,160,o),
(54,260,cs),
(72,360,o),
(127,450,o),
(237,450,cs),
(347,450,o),
(372,360,o),
(354,260,cs),
(336,160,o),
(280,70,o),
(170,70,cs)
);
}
);
width = 570;
},
{
anchors = (
{
name = bottom;
pos = (163,0);
},
{
name = center;
pos = (211,260);
},
{
name = ogonek;
pos = (399,10);
},
{
name = top;
pos = (258,540);
},
{
name = topright;
pos = (527,520);
}
);
hints = (
{
horizontal = 1;
origin = (0,11);
target = (1,11);
type = Stem;
},
{
horizontal = 1;
origin = (0,5);
target = (1,5);
type = Stem;
},
{
origin = (0,8);
target = (1,2);
type = Stem;
},
{
origin = (1,8);
target = (0,2);
type = Stem;
}
);
layerId = "B51EB05F-9FBB-4087-814F-400611B2D4B0";
shapes = (
{
closed = 1;
nodes = (
(321,-10,o),
(440,95,o),
(470,265,cs),
(500,435,o),
(418,540,o),
(258,540,cs),
(98,540,o),
(-20,435,o),
(-50,265,cs),
(-80,95,o),
(1,-10,o),
(161,-10,cs)
);
},
{
closed = 1;
nodes = (
(91,100,o),
(86,185,o),
(100,265,cs),
(114,345,o),
(149,430,o),
(239,430,cs),
(329,430,o),
(334,345,o),
(320,265,cs),
(306,185,o),
(271,100,o),
(181,100,cs)
);
}
);
width = 580;
}
);
unicode = 111;
},
{
glyphname = oslash;
kernLeft = c;
kernRight = o;
lastChange = "2025-12-25 20:24:24 +0000";
layers = (
{
hints = (
{
horizontal = 1;
origin = (0,3);
target = up;
type = BottomGhost;
},
{
horizontal = 1;
origin = (0,2);
target = down;
type = TopGhost;
}
);
layerId = "05246BF3-0764-4143-87C4-5D2B296D3790";
shapes = (
{
closed = 1;
nodes = (
(-32,-10,l),
(513,530,l),
(443,530,l),
(-102,-10,l)
);
},
{
ref = o;
}
);
width = 574;
},
{
hints = (
{
horizontal = 1;
origin = (0,3);
target = up;
type = BottomGhost;
},
{
horizontal = 1;
origin = (0,2);
target = down;
type = TopGhost;
}
);
layerId = "B51EB05F-9FBB-4087-814F-400611B2D4B0";
shapes = (
{
closed = 1;
nodes = (
(-12,-10,l),
(553,530,l),
(443,530,l),
(-122,-10,l)
);
},
{
ref = o;
}
);
width = 594;
}
);
unicode = 248;
},
{
glyphname = oe;
kernLeft = c;
kernRight = e;
lastChange = "2025-12-25 20:24:24 +0000";
layers = (
{
hints = (
{
horizontal = 1;
origin = (0,11);
target = (1,11);
type = Stem;
},
{
horizontal = 1;
origin = (3,3);
target = (3,2);
type = Stem;
},
{
horizontal = 1;
origin = (0,5);
target = (1,5);
type = Stem;
},
{
origin = (0,8);
target = (1,2);
type = Stem;
},
{
place = (308,-25);
type = Stem;
},
{
place = (692,-36);
type = Stem;
}
);
layerId = "05246BF3-0764-4143-87C4-5D2B296D3790";
shapes = (
{
closed = 1;
nodes = (
(306,-10,o),
(416,100,o),
(444,260,cs),
(472,420,o),
(401,530,o),
(251,530,cs),
(101,530,o),
(-8,420,o),
(-36,260,cs),
(-64,100,o),
(6,-10,o),
(156,-10,cs)
);
},
{
closed = 1;
nodes = (
(60,70,o),
(36,160,o),
(54,260,cs),
(72,360,o),
(127,450,o),
(237,450,cs),
(347,450,o),
(372,360,o),
(354,260,cs),
(336,160,o),
(280,70,o),
(170,70,cs)
);
},
{
closed = 1;
nodes = (
(659,-10,o),
(734,51,o),
(786,135,c),
(690,135,l),
(657,94,o),
(630,70,o),
(570,70,cs),
(460,70,o),
(436,160,o),
(454,260,cs),
(472,360,o),
(527,450,o),
(637,450,cs),
(747,450,o),
(757,360,o),
(739,260,cs),
(737,248,o),
(734,236,o),
(731,225,c),
(822,225,l),
(824,236,o),
(827,248,o),
(829,260,cs),
(857,420,o),
(801,530,o),
(651,530,cs),
(501,530,o),
(392,420,o),
(364,260,cs),
(336,100,o),
(406,-10,o),
(556,-10,cs)
);
},
{
closed = 1;
nodes = (
(773,225,l),
(785,295,l),
(415,295,l),
(403,225,l)
);
}
);
width = 964;
},
{
hints = (
{
horizontal = 1;
origin = (0,11);
target = (1,11);
type = Stem;
},
{
horizontal = 1;
origin = (3,3);
target = (3,2);
type = Stem;
},
{
horizontal = 1;
origin = (0,5);
target = (1,5);
type = Stem;
},
{
origin = (0,8);
target = (1,2);
type = Stem;
},
{
place = (273,45);
type = Stem;
},
{
place = (652,24);
type = Stem;
}
);
layerId = "B51EB05F-9FBB-4087-814F-400611B2D4B0";
shapes = (
{
closed = 1;
nodes = (
(321,-10,o),
(440,95,o),
(470,265,cs),
(500,435,o),
(418,540,o),
(258,540,cs),
(98,540,o),
(-20,435,o),
(-50,265,cs),
(-80,95,o),
(1,-10,o),
(161,-10,cs)
);
},
{
closed = 1;
nodes = (
(91,100,o),
(86,185,o),
(100,265,cs),
(114,345,o),
(149,430,o),
(239,430,cs),
(329,430,o),
(334,345,o),
(320,265,cs),
(306,185,o),
(271,100,o),
(181,100,cs)
);
},
{
closed = 1;
nodes = (
(674,-10,o),
(775,61,o),
(817,145,c),
(667,145,l),
(635,114,o),
(621,100,o),
(571,100,cs),
(481,100,o),
(476,185,o),
(490,265,cs),
(504,345,o),
(539,430,o),
(629,430,cs),
(719,430,o),
(716,355,o),
(700,265,cs),
(698,253,o),
(693,231,o),
(690,220,c),
(841,220,l),
(843,231,o),
(848,253,o),
(850,265,cs),
(880,435,o),
(808,540,o),
(648,540,cs),
(488,540,o),
(370,435,o),
(340,265,cs),
(310,95,o),
(391,-10,o),
(551,-10,cs)
);
},
{
closed = 1;
nodes = (
(772,220,l),
(788,310,l),
(413,310,l),
(397,220,l)
);
}
);
width = 964;
}
);
unicode = 339;
},
{
glyphname = p;
kernLeft = p;
kernRight = o;
lastChange = "2025-12-25 20:24:24 +0000";
layers = (
{
anchors = (
{
name = bottom;
pos = (183,0);
},
{
name = top;
pos = (275,520);
}
);
hints = (
{
horizontal = 1;
origin = (1,11);
target = (0,5);
type = Stem;
},
{
horizontal = 1;
origin = (0,11);
target = (1,5);
type = Stem;
},
{
horizontal = 1;
origin = (0,17);
target = down;
type = TopGhost;
},
{
origin = (0,18);
target = (0,0);
type = Stem;
},
{
origin = (1,8);
target = (0,8);
type = Stem;
},
{
origin = (0,18);
target = (1,2);
type = Stem;
}
);
layerId = "05246BF3-0764-4143-87C4-5D2B296D3790";
shapes = (
{
closed = 1;
nodes = (
(-1,-220,l),
(56,100,l),
(66,100,l),
(83,30,o),
(141,-10,o),
(221,-10,cs),
(351,-10,o),
(461,100,o),
(489,260,cs),
(517,420,o),
(446,530,o),
(316,530,cs),
(236,530,o),
(164,490,o),
(122,420,c),
(112,420,l),
(130,520,l),
(40,520,l),
(-91,-220,l)
);
},
{
closed = 1;
nodes = (
(125,70,o),
(66,130,o),
(89,260,cs),
(112,390,o),
(192,450,o),
(282,450,cs),
(372,450,o),
(422,390,o),
(399,260,cs),
(376,130,o),
(305,70,o),
(215,70,cs)
);
}
);
width = 615;
},
{
anchors = (
{
name = bottom;
pos = (198,0);
},
{
name = top;
pos = (290,520);
}
);
hints = (
{
horizontal = 1;
origin = (0,5);
target = (1,11);
type = Stem;
},
{
horizontal = 1;
origin = (0,11);
target = (1,5);
type = Stem;
},
{
horizontal = 1;
origin = (0,17);
target = (1,5);
type = Stem;
},
{
origin = (0,18);
target = (0,0);
type = Stem;
},
{
origin = (1,8);
target = (0,8);
type = Stem;
},
{
origin = (0,18);
target = (1,2);
type = Stem;
}
);
layerId = "B51EB05F-9FBB-4087-814F-400611B2D4B0";
shapes = (
{
closed = 1;
nodes = (
(48,-200,l),
(97,80,l),
(107,80,l),
(128,30,o),
(166,-10,o),
(246,-10,cs),
(386,-10,o),
(495,95,o),
(525,265,cs),
(555,435,o),
(483,540,o),
(343,540,cs),
(263,540,o),
(211,500,o),
(172,450,c),
(162,450,l),
(176,530,l),
(26,530,l),
(-102,-200,l)
);
},
{
closed = 1;
nodes = (
(146,100,o),
(117,165,o),
(135,265,cs),
(152,365,o),
(204,430,o),
(284,430,cs),
(364,430,o),
(392,365,o),
(375,265,cs),
(357,165,o),
(306,100,o),
(226,100,cs)
);
}
);
width = 635;
}
);
unicode = 112;
},
{
glyphname = thorn;
kernRight = b;
lastChange = "2025-12-25 20:24:24 +0000";
layers = (
{
hints = (
{
horizontal = 1;
origin = (0,5);
target = (1,11);
type = Stem;
},
{
horizontal = 1;
origin = (0,11);
target = (1,5);
type = Stem;
},
{
horizontal = 1;
origin = (0,17);
target = down;
type = TopGhost;
},
{
origin = (0,18);
target = (0,0);
type = Stem;
},
{
origin = (1,8);
target = (0,8);
type = Stem;
},
{
origin = (0,18);
target = (1,2);
type = Stem;
}
);
layerId = "05246BF3-0764-4143-87C4-5D2B296D3790";
shapes = (
{
closed = 1;
nodes = (
(-1,-220,l),
(56,100,l),
(66,100,l),
(83,30,o),
(141,-10,o),
(221,-10,cs),
(351,-10,o),
(461,100,o),
(489,260,cs),
(517,420,o),
(446,530,o),
(316,530,cs),
(236,530,o),
(164,490,o),
(122,420,c),
(112,420,l),
(165,720,l),
(75,720,l),
(-91,-220,l)
);
},
{
closed = 1;
nodes = (
(125,70,o),
(66,130,o),
(89,260,cs),
(112,390,o),
(192,450,o),
(282,450,cs),
(372,450,o),
(422,390,o),
(399,260,cs),
(376,130,o),
(305,70,o),
(215,70,cs)
);
}
);
width = 615;
},
{
hints = (
{
horizontal = 1;
origin = (0,5);
target = (1,11);
type = Stem;
},
{
horizontal = 1;
origin = (0,11);
target = (1,5);
type = Stem;
},
{
horizontal = 1;
origin = (0,17);
target = down;
type = TopGhost;
},
{
origin = (0,18);
target = (0,0);
type = Stem;
},
{
origin = (1,8);
target = (0,8);
type = Stem;
},
{
origin = (0,18);
target = (1,2);
type = Stem;
}
);
layerId = "B51EB05F-9FBB-4087-814F-400611B2D4B0";
shapes = (
{
closed = 1;
nodes = (
(48,-200,l),
(97,80,l),
(107,80,l),
(128,30,o),
(166,-10,o),
(246,-10,cs),
(386,-10,o),
(495,95,o),
(525,265,cs),
(555,435,o),
(483,540,o),
(343,540,cs),
(263,540,o),
(211,500,o),
(172,450,c),
(162,450,l),
(210,720,l),
(60,720,l),
(-102,-200,l)
);
},
{
closed = 1;
nodes = (
(146,100,o),
(117,165,o),
(135,265,cs),
(152,365,o),
(204,430,o),
(284,430,cs),
(364,430,o),
(392,365,o),
(375,265,cs),
(357,165,o),
(306,100,o),
(226,100,cs)
);
}
);
width = 635;
}
);
unicode = 254;
},
{
glyphname = q;
kernLeft = o;
kernRight = g;
lastChange = "2025-12-25 20:24:24 +0000";
layers = (
{
anchors = (
{
name = bottom;
pos = (168,0);
},
{
name = top;
pos = (260,520);
}
);
hints = (
{
horizontal = 1;
origin = (1,11);
target = (0,13);
type = Stem;
},
{
horizontal = 1;
origin = (0,7);
target = (1,5);
type = Stem;
},
{
horizontal = 1;
origin = (0,2);
target = down;
type = TopGhost;
},
{
origin = (0,10);
target = (1,2);
type = Stem;
},
{
origin = (0,18);
target = (0,0);
type = Stem;
},
{
origin = (1,8);
target = (0,0);
type = Stem;
}
);
layerId = "05246BF3-0764-4143-87C4-5D2B296D3790";
shapes = (
{
closed = 1;
nodes = (
(374,-220,l),
(505,520,l),
(415,520,l),
(397,420,l),
(387,420,l),
(369,490,o),
(311,530,o),
(231,530,cs),
(101,530,o),
(-8,420,o),
(-36,260,cs),
(-64,100,o),
(6,-10,o),
(136,-10,cs),
(216,-10,o),
(288,30,o),
(331,100,c),
(341,100,l),
(284,-220,l)
);
},
{
closed = 1;
nodes = (
(80,70,o),
(31,130,o),
(54,260,cs),
(77,390,o),
(147,450,o),
(237,450,cs),
(327,450,o),
(387,390,o),
(364,260,cs),
(341,130,o),
(260,70,o),
(170,70,cs)
);
}
);
width = 615;
},
{
anchors = (
{
name = bottom;
pos = (193,0);
},
{
name = top;
pos = (285,520);
}
);
hints = (
{
horizontal = 1;
origin = (0,13);
target = (1,11);
type = Stem;
},
{
horizontal = 1;
origin = (0,7);
target = (1,5);
type = Stem;
},
{
horizontal = 1;
origin = (0,2);
target = (1,5);
type = Stem;
},
{
origin = (0,10);
target = (1,2);
type = Stem;
},
{
origin = (0,18);
target = (0,0);
type = Stem;
},
{
origin = (1,8);
target = (0,0);
type = Stem;
}
);
layerId = "B51EB05F-9FBB-4087-814F-400611B2D4B0";
shapes = (
{
closed = 1;
nodes = (
(413,-200,l),
(541,530,l),
(391,530,l),
(377,450,l),
(367,450,l),
(346,500,o),
(308,540,o),
(228,540,cs),
(88,540,o),
(-20,435,o),
(-50,265,cs),
(-80,95,o),
(-9,-10,o),
(131,-10,cs),
(211,-10,o),
(263,30,o),
(302,80,c),
(312,80,l),
(263,-200,l)
);
},
{
closed = 1;
nodes = (
(111,100,o),
(82,165,o),
(100,265,cs),
(117,365,o),
(169,430,o),
(249,430,cs),
(329,430,o),
(357,365,o),
(340,265,cs),
(322,165,o),
(271,100,o),
(191,100,cs)
);
}
);
width = 635;
}
);
unicode = 113;
},
{
glyphname = r;
kernLeft = n;
kernRight = r;
lastChange = "2025-12-25 20:24:24 +0000";
layers = (
{
anchors = (
{
name = bottom;
pos = (-7,0);
},
{
name = top;
pos = (190,520);
}
);
hints = (
{
horizontal = 1;
origin = (0,14);
target = up;
type = BottomGhost;
},
{
horizontal = 1;
origin = (0,13);
target = (0,4);
type = Stem;
},
{
origin = (0,14);
target = (0,0);
type = Stem;
}
);
layerId = "05246BF3-0764-4143-87C4-5D2B296D3790";
shapes = (
{
closed = 1;
nodes = (
(38,0,l),
(87,280,ls),
(107,390,o),
(181,440,o),
(251,440,c),
(306,440,l),
(320,520,l),
(295,520,l),
(215,520,o),
(164,490,o),
(122,420,c),
(112,420,l),
(130,520,l),
(40,520,l),
(-52,0,l)
);
}
);
width = 370;
},
{
anchors = (
{
name = bottom;
pos = (8,0);
},
{
name = top;
pos = (241,530);
}
);
hints = (
{
horizontal = 1;
origin = (0,14);
target = up;
type = BottomGhost;
},
{
horizontal = 1;
origin = (0,13);
target = (0,4);
type = Stem;
},
{
origin = (0,14);
target = (0,0);
type = Stem;
}
);
layerId = "B51EB05F-9FBB-4087-814F-400611B2D4B0";
shapes = (
{
closed = 1;
nodes = (
(83,0,l),
(132,280,ls),
(148,370,o),
(212,420,o),
(272,420,c),
(362,420,l),
(381,530,l),
(331,530,l),
(261,530,o),
(213,510,o),
(172,450,c),
(162,450,l),
(176,530,l),
(26,530,l),
(-67,0,l)
);
}
);
width = 415;
}
);
unicode = 114;
},
{
glyphname = s;
kernLeft = s;
kernRight = s;
lastChange = "2025-12-25 20:24:24 +0000";
layers = (
{
anchors = (
{
name = bottom;
pos = (108,0);
},
{
name = top;
pos = (201,530);
}
);
hints = (
{
horizontal = 1;
origin = (0,37);
target = (0,30);
type = Stem;
},
{
horizontal = 1;
origin = (0,18);
target = (0,11);
type = Stem;
},
{
origin = (0,21);
target = (0,8);
type = Stem;
},
{
origin = (0,27);
target = (0,2);
type = Stem;
},
{
origin = (0,14);
target = (0,15);
type = Stem;
}
);
layerId = "05246BF3-0764-4143-87C4-5D2B296D3790";
shapes = (
{
closed = 1;
nodes = (
(226,-10,o),
(330,40,o),
(349,150,cs),
(365,240,o),
(307,280,o),
(182,304,cs),
(104,319,o),
(77,335,o),
(84,375,cs),
(93,425,o),
(137,450,o),
(187,450,cs),
(267,450,o),
(284,415,o),
(289,385,c),
(379,385,l),
(383,469,o),
(311,530,o),
(201,530,cs),
(91,530,o),
(8,455,o),
(-6,375,cs),
(-23,275,o),
(32,248,o),
(148,226,cs),
(216,213,o),
(268,200,o),
(259,150,cs),
(249,90,o),
(190,70,o),
(120,70,cs),
(60,70,o),
(27,105,o),
(22,135,c),
(-68,135,l),
(-70,65,o),
(-14,-10,o),
(106,-10,cs)
);
}
);
width = 485;
},
{
anchors = (
{
name = bottom;
pos = (129,0);
},
{
name = top;
pos = (224,540);
}
);
hints = (
{
horizontal = 1;
origin = (0,37);
target = (0,30);
type = Stem;
},
{
horizontal = 1;
origin = (0,18);
target = (0,11);
type = Stem;
},
{
horizontal = 1;
origin = (0,18);
target = (0,14);
type = Stem;
},
{
horizontal = 1;
origin = (0,37);
target = (0,34);
type = Stem;
},
{
origin = (0,21);
target = (0,8);
type = Stem;
},
{
origin = (0,27);
target = (0,2);
type = Stem;
}
);
layerId = "B51EB05F-9FBB-4087-814F-400611B2D4B0";
shapes = (
{
closed = 1;
nodes = (
(262,-10,o),
(370,35,o),
(392,160,cs),
(408,250,o),
(352,303,o),
(186,325,cs),
(134,332,o),
(133,360,o),
(137,385,cs),
(141,410,o),
(165,430,o),
(205,430,cs),
(250,430,o),
(266,416,o),
(268,375,c),
(418,375,l),
(425,474,o),
(369,540,o),
(224,540,cs),
(109,540,o),
(5,485,o),
(-17,365,cs),
(-34,265,o),
(48,220,o),
(165,205,cs),
(226,197,o),
(246,180,o),
(240,150,cs),
(233,110,o),
(197,100,o),
(147,100,cs),
(102,100,o),
(83,112,o),
(74,150,c),
(-76,150,l),
(-81,50,o),
(-8,-10,o),
(127,-10,cs)
);
}
);
width = 516;
}
);
unicode = 115;
},
{
glyphname = germandbls;
kernLeft = f;
kernRight = germandbls;
lastChange = "2025-12-25 20:24:24 +0000";
layers = (
{
hints = (
{
horizontal = 1;
origin = (0,35);
target = (0,17);
type = Stem;
},
{
horizontal = 1;
origin = (0,31);
target = (0,4);
type = Stem;
},
{
origin = (0,35);
target = (0,0);
type = Stem;
},
{
origin = (0,18);
target = (0,25);
type = Stem;
},
{
origin = (0,13);
target = (0,22);
type = Stem;
},
{
origin = (0,7);
target = (0,28);
type = Stem;
}
);
layerId = "05246BF3-0764-4143-87C4-5D2B296D3790";
shapes = (
{
closed = 1;
nodes = (
(28,0,l),
(123,540,l),
(136,610,o),
(174,660,o),
(254,660,cs),
(334,660,o),
(356,610,o),
(343,540,cs),
(329,460,o),
(214,490,o),
(195,380,cs),
(170,240,o),
(363,320,o),
(337,170,cs),
(323,90,o),
(240,70,o),
(160,70,c),
(140,70,l),
(128,0,l),
(148,0,l),
(258,0,o),
(391,23,o),
(417,170,cs),
(449,350,o),
(264,320,o),
(275,380,cs),
(286,440,o),
(402,420,o),
(423,540,cs),
(443,650,o),
(387,730,o),
(267,730,cs),
(147,730,o),
(63,650,o),
(43,540,c),
(-52,0,l)
);
}
);
width = 564;
},
{
hints = (
{
horizontal = 1;
origin = (0,35);
target = (0,17);
type = Stem;
},
{
horizontal = 1;
origin = (0,31);
target = (0,4);
type = Stem;
},
{
origin = (0,35);
target = (0,0);
type = Stem;
},
{
origin = (0,13);
target = (0,22);
type = Stem;
},
{
origin = (0,7);
target = (0,28);
type = Stem;
},
{
origin = (0,18);
target = (0,25);
type = Stem;
}
);
layerId = "B51EB05F-9FBB-4087-814F-400611B2D4B0";
shapes = (
{
closed = 1;
nodes = (
(83,0,l),
(178,540,l),
(187,590,o),
(217,620,o),
(277,620,cs),
(337,620,o),
(352,590,o),
(343,540,cs),
(332,475,o),
(217,505,o),
(195,380,cs),
(168,225,o),
(359,305,o),
(335,170,cs),
(324,105,o),
(262,110,o),
(207,110,c),
(147,110,l),
(128,0,l),
(188,0,l),
(313,0,o),
(456,8,o),
(485,170,cs),
(519,365,o),
(337,335,o),
(345,380,cs),
(353,425,o),
(469,405,o),
(493,540,cs),
(515,665,o),
(432,730,o),
(297,730,cs),
(162,730,o),
(50,665,o),
(28,540,c),
(-67,0,l)
);
}
);
width = 622;
}
);
unicode = 223;
},
{
glyphname = t;
kernLeft = t;
kernRight = t;
lastChange = "2025-12-25 20:24:24 +0000";
layers = (
{
anchors = (
{
name = bottom;
pos = (80,10);
},
{
name = center;
pos = (102,260);
},
{
name = top;
pos = (143,680);
},
{
name = topright;
pos = (315,520);
}
);
hints = (
{
horizontal = 1;
origin = (1,9);
target = (1,2);
type = Stem;
},
{
horizontal = 1;
origin = (2,2);
target = (2,3);
type = Stem;
},
{
origin = (0,3);
target = (1,0);
type = Stem;
},
{
origin = (0,3);
target = (0,0);
type = Stem;
}
);
layerId = "05246BF3-0764-4143-87C4-5D2B296D3790";
shapes = (
{
closed = 1;
nodes = (
(89,120,l),
(188,680,l),
(98,680,l),
(-3,110,l)
);
},
{
closed = 1;
nodes = (
(193,0,l),
(207,80,l),
(122,80,ls),
(102,80,o),
(84,90,o),
(89,120,c),
(-3,110,l),
(-15,40,o),
(28,0,o),
(78,0,cs)
);
},
{
closed = 1;
nodes = (
(271,440,l),
(285,520,l),
(-5,520,l),
(-19,440,l)
);
}
);
width = 350;
},
{
anchors = (
{
name = bottom;
pos = (115,10);
},
{
name = center;
pos = (89,260);
},
{
name = top;
pos = (158,680);
},
{
name = topright;
pos = (303,525);
}
);
hints = (
{
horizontal = 1;
origin = (1,9);
target = (1,2);
type = Stem;
},
{
horizontal = 1;
origin = (2,2);
target = (2,3);
type = Stem;
},
{
origin = (0,3);
target = (1,9);
type = Stem;
}
);
layerId = "B51EB05F-9FBB-4087-814F-400611B2D4B0";
shapes = (
{
closed = 1;
nodes = (
(139,150,l),
(233,680,l),
(83,680,l),
(-12,140,l)
);
},
{
closed = 1;
nodes = (
(233,0,l),
(252,110,l),
(172,110,ls),
(152,110,o),
(134,120,o),
(139,150,c),
(-12,140,l),
(-28,50,o),
(33,0,o),
(113,0,cs)
);
},
{
closed = 1;
nodes = (
(307,420,l),
(326,530,l),
(-14,530,l),
(-33,420,l)
);
}
);
width = 380;
}
);
unicode = 116;
},
{
glyphname = tbar;
lastChange = "2025-12-25 20:24:24 +0000";
layers = (
{
hints = (
{
horizontal = 1;
origin = (0,3);
target = (0,2);
type = Stem;
},
{
origin = (0,3);
target = (0,0);
type = Stem;
}
);
layerId = "05246BF3-0764-4143-87C4-5D2B296D3790";
shapes = (
{
closed = 1;
nodes = (
(214,237,l),
(226,307,l),
(-44,307,l),
(-56,237,l)
);
},
{
ref = t;
}
);
width = 343;
},
{
hints = (
{
horizontal = 1;
origin = (0,3);
target = (0,2);
type = Stem;
},
{
origin = (0,3);
target = (0,0);
type = Stem;
}
);
layerId = "B51EB05F-9FBB-4087-814F-400611B2D4B0";
shapes = (
{
closed = 1;
nodes = (
(270,217,l),
(290,327,l),
(-50,327,l),
(-70,217,l)
);
},
{
ref = t;
}
);
width = 383;
}
);
unicode = 359;
},
{
glyphname = u;
kernLeft = u;
kernRight = g;
lastChange = "2025-12-25 20:24:24 +0000";
layers = (
{
anchors = (
{
name = bottom;
pos = (278,0);
},
{
name = ogonek;
pos = (350,10);
},
{
name = top;
pos = (235,520);
},
{
name = topright;
pos = (475,520);
}
);
hints = (
{
horizontal = 1;
origin = (0,11);
target = (0,20);
type = Stem;
},
{
horizontal = 1;
origin = (0,16);
target = down;
type = TopGhost;
},
{
horizontal = 1;
origin = (0,4);
target = up;
type = BottomGhost;
},
{
origin = (0,17);
target = (0,14);
type = Stem;
},
{
origin = (0,4);
target = (0,5);
type = Stem;
}
);
layerId = "05246BF3-0764-4143-87C4-5D2B296D3790";
shapes = (
{
closed = 1;
nodes = (
(191,-10,o),
(243,30,o),
(286,100,c),
(296,100,l),
(278,0,l),
(368,0,l),
(460,520,l),
(370,520,l),
(320,240,ls),
(301,130,o),
(225,70,o),
(155,70,cs),
(85,70,o),
(46,100,o),
(62,190,c),
(120,520,l),
(30,520,l),
(-28,190,l),
(-53,50,o),
(11,-10,o),
(111,-10,cs)
);
}
);
width = 570;
},
{
anchors = (
{
name = bottom;
pos = (253,0);
},
{
name = ogonek;
pos = (370,10);
},
{
name = top;
pos = (251,530);
},
{
name = topright;
pos = (495,520);
}
);
hints = (
{
horizontal = 1;
origin = (0,11);
target = (0,20);
type = Stem;
},
{
horizontal = 1;
origin = (0,16);
target = down;
type = TopGhost;
},
{
horizontal = 1;
origin = (0,11);
target = (0,4);
type = Stem;
},
{
origin = (0,17);
target = (0,14);
type = Stem;
},
{
origin = (0,4);
target = (0,5);
type = Stem;
}
);
layerId = "B51EB05F-9FBB-4087-814F-400611B2D4B0";
shapes = (
{
closed = 1;
nodes = (
(166,-10,o),
(217,20,o),
(257,80,c),
(267,80,l),
(253,0,l),
(403,0,l),
(496,530,l),
(346,530,l),
(297,250,l),
(281,160,o),
(236,100,o),
(176,100,c),
(116,100,o),
(96,130,o),
(108,200,cs),
(166,530,l),
(16,530,l),
(-42,200,ls),
(-66,60,o),
(-4,-10,o),
(96,-10,c)
);
}
);
width = 590;
}
);
unicode = 117;
},
{
glyphname = v;
kernLeft = v;
kernRight = v;
lastChange = "2025-12-25 20:24:24 +0000";
layers = (
{
anchors = (
{
name = bottom;
pos = (113,0);
},
{
name = top;
pos = (205,520);
}
);
hints = (
{
horizontal = 1;
origin = (0,5);
target = (0,4);
type = Stem;
},
{
horizontal = 1;
origin = (1,4);
target = down;
type = TopGhost;
}
);
layerId = "05246BF3-0764-4143-87C4-5D2B296D3790";
shapes = (
{
closed = 1;
nodes = (
(187,0,l),
(469,520,l),
(375,520,l),
(159,110,l),
(149,110,l),
(83,0,l)
);
},
{
closed = 1;
nodes = (
(187,0,l),
(159,110,l),
(149,110,l),
(79,520,l),
(-15,520,l),
(83,0,l)
);
}
);
width = 524;
},
{
anchors = (
{
name = bottom;
pos = (147,0);
},
{
name = top;
pos = (239,520);
}
);
hints = (
{
horizontal = 1;
origin = (0,5);
target = (0,4);
type = Stem;
},
{
horizontal = 1;
origin = (1,4);
target = down;
type = TopGhost;
}
);
layerId = "B51EB05F-9FBB-4087-814F-400611B2D4B0";
shapes = (
{
closed = 1;
nodes = (
(236,0,l),
(523,530,l),
(369,530,l),
(199,196,l),
(189,196,l),
(82,0,l)
);
},
{
closed = 1;
nodes = (
(236,0,l),
(199,196,l),
(189,196,l),
(135,530,l),
(-19,530,l),
(82,0,l)
);
}
);
width = 572;
}
);
unicode = 118;
},
{
glyphname = w;
kernLeft = v;
kernRight = v;
lastChange = "2025-12-25 20:24:24 +0000";
layers = (
{
anchors = (
{
name = bottom;
pos = (290,0);
},
{
name = top;
pos = (382,520);
}
);
hints = (
{
horizontal = 1;
origin = (1,5);
target = (1,2);
type = Stem;
},
{
horizontal = 1;
origin = (1,4);
target = (2,1);
type = Stem;
}
);
layerId = "05246BF3-0764-4143-87C4-5D2B296D3790";
shapes = (
{
closed = 1;
nodes = (
(512,0,l),
(764,520,l),
(670,520,l),
(484,110,l),
(474,110,l),
(408,0,l)
);
},
{
closed = 1;
nodes = (
(172,0,l),
(144,110,l),
(134,110,l),
(94,520,l),
(0,520,l),
(68,0,l)
);
},
{
closed = 1;
nodes = (
(172,0,l),
(355,397,l),
(365,397,l),
(434,520,l),
(330,520,l),
(144,110,l),
(134,110,l),
(68,0,l)
);
},
{
closed = 1;
nodes = (
(512,0,l),
(484,110,l),
(474,110,l),
(434,520,l),
(330,520,l),
(355,397,l),
(365,397,l),
(408,0,l)
);
}
);
width = 834;
},
{
anchors = (
{
name = bottom;
pos = (289,0);
},
{
name = top;
pos = (382,530);
}
);
hints = (
{
horizontal = 1;
origin = (1,5);
target = (1,2);
type = Stem;
},
{
horizontal = 1;
origin = (1,4);
target = down;
type = TopGhost;
},
{
horizontal = 1;
origin = (1,5);
target = up;
type = BottomGhost;
},
{
horizontal = 1;
origin = (1,4);
target = (2,1);
type = Stem;
}
);
layerId = "B51EB05F-9FBB-4087-814F-400611B2D4B0";
shapes = (
{
closed = 1;
nodes = (
(527,0,l),
(783,530,l),
(633,530,l),
(494,210,l),
(484,210,l),
(377,0,l)
);
},
{
closed = 1;
nodes = (
(201,0,l),
(168,210,l),
(158,210,l),
(131,530,l),
(-19,530,l),
(51,0,l)
);
},
{
closed = 1;
nodes = (
(201,0,l),
(340,320,l),
(350,320,l),
(457,530,l),
(307,530,l),
(168,210,l),
(158,210,l),
(51,0,l)
);
},
{
closed = 1;
nodes = (
(527,0,l),
(494,210,l),
(484,210,l),
(457,530,l),
(307,530,l),
(340,320,l),
(350,320,l),
(377,0,l)
);
}
);
width = 832;
}
);
unicode = 119;
},
{
glyphname = x;
kernLeft = x;
kernRight = x;
lastChange = "2025-12-25 20:24:24 +0000";
layers = (
{
anchors = (
{
name = bottom;
pos = (137,0);
},
{
name = top;
pos = (229,520);
}
);
hints = (
{
horizontal = 1;
origin = (1,7);
target = up;
type = BottomGhost;
},
{
horizontal = 1;
origin = (0,4);
target = down;
type = TopGhost;
}
);
layerId = "05246BF3-0764-4143-87C4-5D2B296D3790";
shapes = (
{
closed = 1;
nodes = (
(378,0,l),
(204,360,l),
(200,360,l),
(120,520,l),
(20,520,l),
(172,205,l),
(176,205,l),
(278,0,l)
);
},
{
closed = 1;
nodes = (
(-2,0,l),
(172,205,l),
(176,205,l),
(440,520,l),
(340,520,l),
(204,360,l),
(200,360,l),
(-102,0,l)
);
}
);
width = 530;
},
{
anchors = (
{
name = bottom;
pos = (147,0);
},
{
name = top;
pos = (239,520);
}
);
hints = (
{
horizontal = 1;
origin = (1,7);
target = up;
type = BottomGhost;
},
{
horizontal = 1;
origin = (0,4);
target = down;
type = TopGhost;
}
);
layerId = "B51EB05F-9FBB-4087-814F-400611B2D4B0";
shapes = (
{
closed = 1;
nodes = (
(413,0,l),
(224,401,l),
(214,401,l),
(153,530,l),
(-7,530,l),
(170,155,l),
(180,155,l),
(253,0,l)
);
},
{
closed = 1;
nodes = (
(43,0,l),
(170,155,l),
(180,155,l),
(489,530,l),
(329,530,l),
(224,401,l),
(214,401,l),
(-117,0,l)
);
}
);
width = 550;
}
);
unicode = 120;
},
{
glyphname = y;
kernLeft = y;
kernRight = y;
lastChange = "2025-12-25 20:24:24 +0000";
layers = (
{
anchors = (
{
name = bottom;
pos = (142,0);
},
{
name = top;
pos = (235,520);
}
);
hints = (
{
horizontal = 1;
origin = (1,8);
target = (1,9);
type = Stem;
},
{
horizontal = 1;
origin = (3,4);
target = down;
type = TopGhost;
}
);
layerId = "05246BF3-0764-4143-87C4-5D2B296D3790";
shapes = (
{
closed = 1;
nodes = (
(193,0,l),
(485,520,l),
(390,520,l),
(164,110,l),
(160,110,l),
(93,0,l)
);
},
{
closed = 1;
nodes = (
(2,-220,ls),
(41,-220,o),
(89,-195,o),
(112,-152,c),
(34,-114,l),
(24,-132,o),
(3,-140,o),
(-13,-140,cs),
(-79,-140,l),
(-93,-220,l)
);
},
{
closed = 1;
nodes = (
(193,0,l),
(93,0,l),
(34,-114,l),
(112,-152,l)
);
},
{
closed = 1;
nodes = (
(193,0,l),
(164,110,l),
(160,110,l),
(80,520,l),
(-15,520,l),
(93,0,l)
);
}
);
width = 540;
},
{
anchors = (
{
name = bottom;
pos = (136,0);
},
{
name = top;
pos = (260,530);
}
);
hints = (
{
horizontal = 1;
origin = (1,8);
target = (1,9);
type = Stem;
},
{
horizontal = 1;
origin = (3,4);
target = down;
type = TopGhost;
}
);
layerId = "B51EB05F-9FBB-4087-814F-400611B2D4B0";
shapes = (
{
closed = 1;
nodes = (
(247,0,l),
(544,530,l),
(389,530,l),
(205,188,l),
(195,188,l),
(87,0,l)
);
},
{
closed = 1;
nodes = (
(62,-220,ls),
(101,-220,o),
(149,-195,o),
(172,-152,c),
(47,-84,l),
(34,-106,o),
(19,-110,o),
(-7,-110,cs),
(-63,-110,l),
(-83,-220,l)
);
},
{
closed = 1;
nodes = (
(247,0,l),
(87,0,l),
(47,-84,l),
(172,-152,l)
);
},
{
closed = 1;
nodes = (
(247,0,l),
(205,188,l),
(195,188,l),
(131,530,l),
(-24,530,l),
(87,0,l)
);
}
);
width = 588;
}
);
unicode = 121;
},
{
glyphname = z;
kernLeft = z;
kernRight = z;
lastChange = "2025-12-25 20:24:24 +0000";
layers = (
{
anchors = (
{
name = bottom;
pos = (105,0);
},
{
name = center;
pos = (149,260);
},
{
name = top;
pos = (197,520);
}
);
hints = (
{
horizontal = 1;
origin = (1,3);
target = (0,3);
type = Stem;
},
{
horizontal = 1;
origin = (2,2);
target = (2,3);
type = Stem;
}
);
layerId = "05246BF3-0764-4143-87C4-5D2B296D3790";
shapes = (
{
closed = 1;
nodes = (
(32,80,l),
(371,440,l),
(266,440,l),
(-73,80,l)
);
},
{
closed = 1;
nodes = (
(293,0,l),
(307,80,l),
(-73,80,l),
(-87,0,l)
);
},
{
closed = 1;
nodes = (
(371,440,l),
(385,520,l),
(10,520,l),
(-4,440,l)
);
}
);
width = 460;
},
{
anchors = (
{
name = bottom;
pos = (115,0);
},
{
name = center;
pos = (159,260);
},
{
name = top;
pos = (208,530);
}
);
hints = (
{
horizontal = 1;
origin = (1,3);
target = (0,3);
type = Stem;
},
{
horizontal = 1;
origin = (2,2);
target = (2,3);
type = Stem;
},
{
origin = (1,3);
target = (1,0);
type = Stem;
}
);
layerId = "B51EB05F-9FBB-4087-814F-400611B2D4B0";
shapes = (
{
closed = 1;
nodes = (
(97,110,l),
(407,420,l),
(222,420,l),
(-88,110,l)
);
},
{
closed = 1;
nodes = (
(333,0,l),
(352,110,l),
(-88,110,l),
(-107,0,l)
);
},
{
closed = 1;
nodes = (
(407,420,l),
(426,530,l),
(-9,530,l),
(-28,420,l)
);
}
);
width = 480;
}
);
unicode = 122;
},
{
glyphname = fi;
kernLeft = f;
kernRight = i;
lastChange = "2025-12-25 20:24:24 +0000";
layers = (
{
anchors = (
{
name = bottom;
pos = (46,0);
},
{
name = top;
pos = (184,780);
}
);
hints = (
{
horizontal = 1;
origin = (0,3);
target = up;
type = BottomGhost;
},
{
horizontal = 1;
origin = (2,2);
target = (2,3);
type = Stem;
},
{
horizontal = 1;
origin = (4,5);
target = (4,11);
type = Stem;
},
{
horizontal = 1;
origin = (3,5);
target = (3,2);
type = Stem;
},
{
origin = (0,3);
target = (0,0);
type = Stem;
},
{
origin = (4,8);
target = (4,2);
type = Stem;
},
{
origin = (1,3);
target = (1,0);
type = Stem;
}
);
layerId = "05246BF3-0764-4143-87C4-5D2B296D3790";
shapes = (
{
closed = 1;
nodes = (
(73,0,l),
(179,600,l),
(91,610,l),
(-17,0,l)
);
},
{
closed = 1;
nodes = (
(368,0,l),
(460,520,l),
(370,520,l),
(278,0,l)
);
},
{
closed = 1;
nodes = (
(446,440,l),
(460,520,l),
(0,520,l),
(-14,440,l)
);
},
{
closed = 1;
nodes = (
(184,630,o),
(206,640,o),
(226,640,cs),
(311,640,l),
(325,720,l),
(210,720,ls),
(160,720,o),
(103,680,o),
(91,610,c),
(179,600,l)
);
},
{
closed = 1;
nodes = (
(463,620,o),
(492,644,o),
(497,675,cs),
(503,706,o),
(483,730,o),
(452,730,cs),
(421,730,o),
(393,706,o),
(387,675,cs),
(382,644,o),
(401,620,o),
(432,620,cs)
);
}
);
width = 570;
},
{
anchors = (
{
name = bottom;
pos = (58,0);
},
{
name = top;
pos = (196,780);
}
);
hints = (
{
horizontal = 1;
origin = (0,3);
target = up;
type = BottomGhost;
},
{
horizontal = 1;
origin = (2,2);
target = (2,3);
type = Stem;
},
{
horizontal = 1;
origin = (4,5);
target = (0,2);
type = Stem;
},
{
horizontal = 1;
origin = (3,5);
target = (3,2);
type = Stem;
},
{
origin = (0,3);
target = (0,0);
type = Stem;
},
{
origin = (4,8);
target = (4,2);
type = Stem;
},
{
origin = (1,3);
target = (1,0);
type = Stem;
}
);
layerId = "B51EB05F-9FBB-4087-814F-400611B2D4B0";
shapes = (
{
closed = 1;
nodes = (
(133,0,l),
(234,570,l),
(85,580,l),
(-17,0,l)
);
},
{
closed = 1;
nodes = (
(483,0,l),
(576,530,l),
(426,530,l),
(333,0,l)
);
},
{
closed = 1;
nodes = (
(557,420,l),
(576,530,l),
(-4,530,l),
(-23,420,l)
);
},
{
closed = 1;
nodes = (
(239,600,o),
(251,610,o),
(281,610,cs),
(371,610,l),
(390,720,l),
(260,720,ls),
(180,720,o),
(101,670,o),
(85,580,c),
(234,570,l)
);
},
{
closed = 1;
nodes = (
(558,580,o),
(602,617,o),
(610,665,cs),
(619,713,o),
(588,750,o),
(540,750,cs),
(492,750,o),
(449,713,o),
(440,665,cs),
(432,617,o),
(462,580,o),
(510,580,cs)
);
}
);
width = 675;
}
);
unicode = 64257;
},
{
glyphname = fl;
kernLeft = f;
kernRight = l;
lastChange = "2025-12-25 20:24:24 +0000";
layers = (
{
anchors = (
{
name = bottom;
pos = (50,0);
},
{
name = top;
pos = (188,780);
}
);
hints = (
{
horizontal = 1;
origin = (1,3);
target = (2,2);
type = Stem;
},
{
horizontal = 1;
origin = (3,2);
target = (3,3);
type = Stem;
},
{
horizontal = 1;
origin = (4,5);
target = (4,2);
type = Stem;
},
{
origin = (1,3);
target = (1,0);
type = Stem;
},
{
origin = (0,3);
target = (0,0);
type = Stem;
}
);
layerId = "05246BF3-0764-4143-87C4-5D2B296D3790";
shapes = (
{
closed = 1;
nodes = (
(403,121,l),
(509,721,l),
(419,721,l),
(312,111,l)
);
},
{
closed = 1;
nodes = (
(77,1,l),
(183,601,l),
(95,611,l),
(-13,1,l)
);
},
{
closed = 1;
nodes = (
(457,1,l),
(471,81,l),
(436,81,l),
(416,81,o),
(398,91,o),
(403,121,c),
(312,111,l),
(299,41,o),
(342,1,o),
(392,1,c)
);
},
{
closed = 1;
nodes = (
(280,441,l),
(294,521,l),
(4,521,l),
(-10,441,l)
);
},
{
closed = 1;
nodes = (
(188,631,o),
(210,641,o),
(230,641,cs),
(495,641,l),
(509,721,l),
(214,721,ls),
(164,721,o),
(107,681,o),
(95,611,c),
(183,601,l)
);
}
);
width = 605;
},
{
anchors = (
{
name = bottom;
pos = (103,0);
},
{
name = top;
pos = (241,780);
}
);
hints = (
{
horizontal = 1;
origin = (1,3);
target = (2,2);
type = Stem;
},
{
horizontal = 1;
origin = (3,2);
target = (3,3);
type = Stem;
},
{
horizontal = 1;
origin = (4,5);
target = (4,2);
type = Stem;
},
{
origin = (1,3);
target = (1,0);
type = Stem;
},
{
origin = (0,3);
target = (2,9);
type = Stem;
}
);
layerId = "B51EB05F-9FBB-4087-814F-400611B2D4B0";
shapes = (
{
closed = 1;
nodes = (
(509,150,l),
(610,720,l),
(460,720,l),
(358,140,l)
);
},
{
closed = 1;
nodes = (
(133,0,l),
(234,570,l),
(85,580,l),
(-17,0,l)
);
},
{
closed = 1;
nodes = (
(578,0,l),
(597,110,l),
(542,110,l),
(522,110,o),
(504,120,o),
(509,150,c),
(358,140,l),
(342,50,o),
(403,0,o),
(483,0,c)
);
},
{
closed = 1;
nodes = (
(337,420,l),
(356,530,l),
(-4,530,l),
(-23,420,l)
);
},
{
closed = 1;
nodes = (
(239,600,o),
(251,610,o),
(281,610,cs),
(590,610,l),
(609,720,l),
(260,720,ls),
(180,720,o),
(101,670,o),
(85,580,c),
(234,570,l)
);
}
);
width = 720;
}
);
unicode = 64258;
},
{
glyphname = Delta;
kernLeft = Delta;
kernRight = Delta;
lastChange = "2025-12-25 20:24:24 +0000";
layers = (
{
hints = (
{
horizontal = 1;
origin = (1,3);
target = (1,2);
type = Stem;
},
{
horizontal = 1;
origin = (0,2);
target = down;
type = TopGhost;
},
{
horizontal = 1;
origin = (0,2);
target = (0,3);
type = Stem;
}
);
layerId = "05246BF3-0764-4143-87C4-5D2B296D3790";
shapes = (
{
closed = 1;
nodes = (
(483,90,l),
(359,720,l),
(265,720,l),
(291,610,l),
(295,610,l),
(389,90,l)
);
},
{
closed = 1;
nodes = (
(467,0,l),
(483,90,l),
(-81,90,l),
(-97,0,l)
);
},
{
closed = 1;
nodes = (
(13,90,l),
(291,610,l),
(295,610,l),
(359,720,l),
(265,720,l),
(-81,90,l)
);
}
);
width = 624;
},
{
hints = (
{
horizontal = 1;
origin = (1,3);
target = (1,2);
type = Stem;
},
{
horizontal = 1;
origin = (0,2);
target = (0,3);
type = Stem;
},
{
origin = (1,3);
target = (2,0);
type = Stem;
},
{
origin = (0,5);
target = (1,0);
type = Stem;
}
);
layerId = "B51EB05F-9FBB-4087-814F-400611B2D4B0";
shapes = (
{
closed = 1;
nodes = (
(540,130,l),
(409,720,l),
(255,720,l),
(298,557,l),
(308,557,l),
(390,130,l)
);
},
{
closed = 1;
nodes = (
(517,0,l),
(540,130,l),
(-84,130,l),
(-107,0,l)
);
},
{
closed = 1;
nodes = (
(66,130,l),
(298,557,l),
(308,557,l),
(409,720,l),
(255,720,l),
(-84,130,l)
);
}
);
width = 664;
}
);
unicode = 916;
},
{
glyphname = Omega;
kernLeft = Omega;
kernRight = Omega;
lastChange = "2025-12-25 20:24:24 +0000";
layers = (
{
hints = (
{
horizontal = 1;
origin = (0,31);
target = (0,30);
type = Stem;
},
{
horizontal = 1;
origin = (0,23);
target = (0,7);
type = Stem;
},
{
origin = (0,31);
target = (0,4);
type = Stem;
},
{
origin = (0,10);
target = (0,15);
type = Stem;
}
);
layerId = "05246BF3-0764-4143-87C4-5D2B296D3790";
shapes = (
{
closed = 1;
nodes = (
(173,0,l),
(191,100,l),
(139,150,o),
(57,250,o),
(84,400,cs),
(110,550,o),
(208,650,o),
(358,650,cs),
(508,650,o),
(570,550,o),
(544,400,cs),
(517,250,o),
(399,150,o),
(331,100,c),
(313,0,l),
(563,0,l),
(577,80,l),
(407,80,l),
(476,130,o),
(602,220,o),
(634,400,cs),
(665,580,o),
(572,730,o),
(372,730,cs),
(172,730,o),
(25,580,o),
(-6,400,cs),
(-38,220,o),
(56,130,o),
(107,80,c),
(-63,80,l),
(-77,0,l)
);
}
);
width = 740;
},
{
hints = (
{
horizontal = 1;
origin = (0,31);
target = (0,30);
type = Stem;
},
{
horizontal = 1;
origin = (0,23);
target = (0,7);
type = Stem;
},
{
origin = (0,31);
target = (0,4);
type = Stem;
},
{
origin = (0,29);
target = (0,0);
type = Stem;
},
{
origin = (0,14);
target = (0,17);
type = Stem;
},
{
origin = (0,10);
target = (0,15);
type = Stem;
}
);
layerId = "B51EB05F-9FBB-4087-814F-400611B2D4B0";
shapes = (
{
closed = 1;
nodes = (
(193,0,l),
(216,130,l),
(165,180,o),
(109,260,o),
(134,400,cs),
(158,540,o),
(232,620,o),
(362,620,cs),
(492,620,o),
(538,540,o),
(514,400,cs),
(489,260,o),
(405,180,o),
(336,130,c),
(313,0,l),
(593,0,l),
(612,110,l),
(412,110,l),
(481,160,o),
(632,220,o),
(664,400,cs),
(697,590,o),
(592,730,o),
(382,730,cs),
(172,730,o),
(17,590,o),
(-16,400,cs),
(-48,220,o),
(81,160,o),
(132,110,c),
(-68,110,l),
(-87,0,l)
);
}
);
width = 760;
}
);
unicode = 937;
},
{
glyphname = mu;
kernLeft = mu;
lastChange = "2025-12-25 20:24:24 +0000";
layers = (
{
hints = (
{
horizontal = 1;
origin = (2,9);
target = (2,2);
type = Stem;
},
{
horizontal = 1;
origin = (0,16);
target = down;
type = TopGhost;
},
{
horizontal = 1;
origin = (0,20);
target = (0,11);
type = Stem;
},
{
origin = (1,3);
target = (1,0);
type = Stem;
},
{
origin = (0,4);
target = (0,5);
type = Stem;
}
);
layerId = "05246BF3-0764-4143-87C4-5D2B296D3790";
shapes = (
{
closed = 1;
nodes = (
(201,-10,o),
(253,30,o),
(296,100,c),
(306,100,l),
(304,90,l),
(399,120,l),
(470,520,l),
(380,520,l),
(330,240,ls),
(311,130,o),
(235,70,o),
(165,70,cs),
(95,70,o),
(56,100,o),
(72,190,c),
(130,520,l),
(40,520,l),
(32,190,l),
(14,90,o),
(31,-10,o),
(121,-10,cs)
);
},
{
closed = 1;
nodes = (
(10,-160,l),
(130,520,l),
(40,520,l),
(-80,-160,l)
);
},
{
closed = 1;
nodes = (
(424,0,l),
(438,80,l),
(422,80,ls),
(402,80,o),
(394,90,o),
(399,120,c),
(304,90,l),
(292,20,o),
(338,0,o),
(388,0,cs)
);
}
);
width = 571;
},
{
hints = (
{
horizontal = 1;
origin = (2,9);
target = (2,2);
type = Stem;
},
{
horizontal = 1;
origin = (1,2);
target = down;
type = TopGhost;
},
{
horizontal = 1;
origin = (0,20);
target = (0,11);
type = Stem;
},
{
origin = (1,3);
target = (1,0);
type = Stem;
},
{
origin = (0,4);
target = (0,5);
type = Stem;
}
);
layerId = "B51EB05F-9FBB-4087-814F-400611B2D4B0";
shapes = (
{
closed = 1;
nodes = (
(216,-10,o),
(247,20,o),
(287,80,c),
(297,80,l),
(295,70,l),
(459,150,l),
(526,530,l),
(376,530,l),
(327,250,l),
(311,160,o),
(256,100,o),
(196,100,c),
(136,100,o),
(106,130,o),
(118,200,cs),
(176,530,l),
(116,530,l),
(58,200,ls),
(37,80,o),
(66,-10,o),
(146,-10,c)
);
},
{
closed = 1;
nodes = (
(55,-160,l),
(176,530,l),
(26,530,l),
(-95,-160,l)
);
},
{
closed = 1;
nodes = (
(479,0,l),
(498,110,l),
(482,110,l),
(462,110,o),
(454,120,o),
(459,150,c),
(295,70,l),
(288,30,o),
(323,0,o),
(373,0,c)
);
}
);
width = 626;
}
);
unicode = 956;
},
{
glyphname = pi;
kernLeft = pi;
kernRight = pi;
lastChange = "2025-12-25 20:24:24 +0000";
layers = (
{
hints = (
{
horizontal = 1;
origin = (0,3);
target = (1,2);
type = Stem;
},
{
horizontal = 1;
origin = (3,2);
target = (3,3);
type = Stem;
},
{
origin = (0,3);
target = (0,0);
type = Stem;
},
{
origin = (1,6);
target = (1,5);
type = Stem;
}
);
layerId = "05246BF3-0764-4143-87C4-5D2B296D3790";
shapes = (
{
closed = 1;
nodes = (
(83,0,l),
(175,520,l),
(85,520,l),
(-7,0,l)
);
},
{
closed = 1;
nodes = (
(433,0,l),
(447,80,l),
(407,80,ls),
(387,80,o),
(369,90,o),
(374,120,c),
(282,110,l),
(270,40,o),
(313,0,o),
(363,0,cs)
);
},
{
closed = 1;
nodes = (
(374,120,l),
(445,520,l),
(355,520,l),
(282,110,l)
);
},
{
closed = 1;
nodes = (
(531,440,l),
(545,520,l),
(-15,520,l),
(-29,440,l)
);
}
);
width = 600;
},
{
hints = (
{
horizontal = 1;
origin = (0,3);
target = (1,6);
type = Stem;
},
{
horizontal = 1;
origin = (3,2);
target = (3,3);
type = Stem;
},
{
origin = (0,3);
target = (0,0);
type = Stem;
},
{
origin = (1,6);
target = (1,5);
type = Stem;
}
);
layerId = "B51EB05F-9FBB-4087-814F-400611B2D4B0";
shapes = (
{
closed = 1;
nodes = (
(138,0,l),
(231,530,l),
(81,530,l),
(-12,0,l)
);
},
{
closed = 1;
nodes = (
(488,0,l),
(507,110,l),
(467,110,ls),
(447,110,o),
(429,120,o),
(434,150,c),
(277,110,l),
(265,40,o),
(308,0,o),
(358,0,cs)
);
},
{
closed = 1;
nodes = (
(434,150,l),
(501,530,l),
(351,530,l),
(277,110,l)
);
},
{
closed = 1;
nodes = (
(582,420,l),
(601,530,l),
(-19,530,l),
(-38,420,l)
);
}
);
width = 650;
}
);
unicode = 960;
},
{
glyphname = zero;
kernLeft = C;
kernRight = "0";
lastChange = "2025-12-25 20:24:24 +0000";
layers = (
{
hints = (
{
horizontal = 1;
origin = (1,11);
target = (0,11);
type = Stem;
},
{
horizontal = 1;
origin = (0,5);
target = (1,5);
type = Stem;
},
{
origin = (0,8);
target = (1,2);
type = Stem;
},
{
origin = (1,8);
target = (0,2);
type = Stem;
}
);
layerId = "05246BF3-0764-4143-87C4-5D2B296D3790";
shapes = (
{
closed = 1;
nodes = (
(406,-10,o),
(511,160,o),
(547,360,cs),
(582,560,o),
(537,730,o),
(337,730,cs),
(137,730,o),
(32,560,o),
(-3,360,cs),
(-37,170,o),
(6,-10,o),
(206,-10,cs)
);
},
{
closed = 1;
nodes = (
(70,70,o),
(60,210,o),
(87,360,cs),
(115,520,o),
(173,650,o),
(323,650,cs),
(473,650,o),
(485,520,o),
(457,360,cs),
(428,200,o),
(370,70,o),
(220,70,cs)
);
}
);
width = 670;
},
{
hints = (
{
horizontal = 1;
origin = (0,11);
target = (1,11);
type = Stem;
},
{
horizontal = 1;
origin = (0,5);
target = (1,5);
type = Stem;
},
{
origin = (0,8);
target = (1,2);
type = Stem;
},
{
origin = (1,8);
target = (0,2);
type = Stem;
}
);
layerId = "B51EB05F-9FBB-4087-814F-400611B2D4B0";
shapes = (
{
closed = 1;
nodes = (
(416,-10,o),
(529,150,o),
(567,360,cs),
(604,570,o),
(547,730,o),
(337,730,cs),
(127,730,o),
(14,570,o),
(-23,360,cs),
(-59,160,o),
(-4,-10,o),
(206,-10,cs)
);
},
{
closed = 1;
nodes = (
(96,100,o),
(104,230,o),
(127,360,cs),
(151,500,o),
(187,620,o),
(317,620,cs),
(447,620,o),
(441,500,o),
(417,360,cs),
(392,220,o),
(356,100,o),
(226,100,cs)
);
}
);
width = 670;
}
);
unicode = 48;
},
{
glyphname = one;
kernLeft = "1";
kernRight = "1";
lastChange = "2025-12-25 20:24:24 +0000";
layers = (
{
hints = (
{
horizontal = 1;
origin = (0,3);
target = up;
type = BottomGhost;
},
{
horizontal = 1;
origin = (0,2);
target = (1,0);
type = Stem;
},
{
origin = (0,3);
target = (0,0);
type = Stem;
}
);
layerId = "05246BF3-0764-4143-87C4-5D2B296D3790";
shapes = (
{
closed = 1;
nodes = (
(168,0,l),
(295,720,l),
(205,720,l),
(78,0,l)
);
},
{
closed = 1;
nodes = (
(189,630,l),
(205,720,l),
(12,620,l),
(-4,530,l)
);
}
);
width = 385;
},
{
hints = (
{
horizontal = 1;
origin = (0,3);
target = up;
type = BottomGhost;
},
{
horizontal = 1;
origin = (0,2);
target = (1,0);
type = Stem;
},
{
origin = (0,3);
target = (0,0);
type = Stem;
}
);
layerId = "B51EB05F-9FBB-4087-814F-400611B2D4B0";
shapes = (
{
closed = 1;
nodes = (
(218,0,l),
(345,720,l),
(195,720,l),
(68,0,l)
);
},
{
closed = 1;
nodes = (
(174,600,l),
(195,720,l),
(2,620,l),
(-19,500,l)
);
}
);
width = 415;
}
);
unicode = 49;
},
{
glyphname = two;
kernLeft = "2";
kernRight = "2";
lastChange = "2025-12-25 20:24:24 +0000";
layers = (
{
hints = (
{
horizontal = 1;
origin = (0,21);
target = (1,3);
type = Stem;
},
{
horizontal = 1;
origin = (0,7);
target = (0,14);
type = Stem;
},
{
origin = (0,10);
target = (0,11);
type = Stem;
},
{
origin = (0,17);
target = (0,4);
type = Stem;
}
);
layerId = "05246BF3-0764-4143-87C4-5D2B296D3790";
shapes = (
{
closed = 1;
nodes = (
(47,80,l),
(296,300,l),
(390,380,o),
(462,450,o),
(476,530,cs),
(496,640,o),
(410,730,o),
(270,730,cs),
(140,730,o),
(26,640,o),
(5,520,c),
(95,520,l),
(107,590,o),
(166,650,o),
(256,650,cs),
(346,650,o),
(399,600,o),
(386,530,cs),
(376,470,o),
(331,427,o),
(249,357,c),
(-63,80,l)
);
},
{
closed = 1;
nodes = (
(373,0,l),
(387,80,l),
(-63,80,l),
(-77,0,l)
);
}
);
width = 560;
},
{
hints = (
{
horizontal = 1;
origin = (1,3);
target = (0,21);
type = Stem;
},
{
horizontal = 1;
origin = (0,7);
target = (0,14);
type = Stem;
},
{
origin = (0,10);
target = (0,11);
type = Stem;
},
{
origin = (0,17);
target = (1,0);
type = Stem;
}
);
layerId = "B51EB05F-9FBB-4087-814F-400611B2D4B0";
shapes = (
{
closed = 1;
nodes = (
(142,110,l),
(413,340,ls),
(495,410,o),
(514,460,o),
(526,530,cs),
(548,650,o),
(440,730,o),
(300,730,cs),
(160,730,o),
(26,640,o),
(3,510,c),
(153,510,l),
(162,560,o),
(210,620,o),
(280,620,cs),
(350,620,o),
(385,580,o),
(376,530,cs),
(369,490,o),
(352,447,o),
(270,380,cs),
(-58,110,l)
);
},
{
closed = 1;
nodes = (
(433,0,l),
(452,110,l),
(-58,110,l),
(-77,0,l)
);
}
);
width = 600;
}
);
unicode = 50;
},
{
glyphname = three;
kernLeft = "3";
kernRight = "3";
lastChange = "2025-12-25 20:24:24 +0000";
layers = (
{
hints = (
{
horizontal = 1;
origin = (0,18);
target = (0,25);
type = Stem;
},
{
horizontal = 1;
origin = (1,24);
target = (0,11);
type = Stem;
},
{
horizontal = 1;
origin = (1,10);
target = (1,17);
type = Stem;
},
{
origin = (0,22);
target = (0,21);
type = Stem;
},
{
origin = (0,11);
target = (0,5);
type = Stem;
},
{
origin = (0,15);
target = (0,2);
type = Stem;
},
{
origin = (1,13);
target = (1,14);
type = Stem;
},
{
origin = (1,20);
target = (1,7);
type = Stem;
}
);
layerId = "05246BF3-0764-4143-87C4-5D2B296D3790";
shapes = (
{
closed = 1;
nodes = (
(316,-10,o),
(436,75,o),
(459,205,cs),
(474,291,o),
(436,353,o),
(355,380,c),
(357,391,l),
(325,401,o),
(282,400,o),
(239,400,c),
(169,400,l),
(159,345,l),
(229,345,l),
(339,345,o),
(383,285,o),
(369,205,cs),
(355,125,o),
(290,70,o),
(180,70,cs),
(70,70,o),
(25,125,o),
(39,205,c),
(-51,205,l),
(-74,75,o),
(16,-10,o),
(166,-10,cs)
);
},
{
closed = 1;
nodes = (
(233,370,l),
(277,370,o),
(319,369,o),
(355,380,c),
(357,391,l),
(430,415,o),
(480,466,o),
(493,540,cs),
(514,660,o),
(427,730,o),
(297,730,cs),
(167,730,o),
(54,655,o),
(32,535,c),
(122,535,l),
(135,605,o),
(193,650,o),
(283,650,cs),
(373,650,o),
(416,610,o),
(403,540,cs),
(391,470,o),
(333,425,o),
(243,425,c),
(173,425,l),
(163,370,l)
);
}
);
width = 600;
},
{
hints = (
{
horizontal = 1;
origin = (0,25);
target = (0,18);
type = Stem;
},
{
horizontal = 1;
origin = (0,11);
target = (1,24);
type = Stem;
},
{
horizontal = 1;
origin = (1,10);
target = (1,17);
type = Stem;
},
{
origin = (0,22);
target = (0,21);
type = Stem;
},
{
origin = (0,15);
target = (0,2);
type = Stem;
},
{
origin = (1,13);
target = (1,14);
type = Stem;
},
{
origin = (1,20);
target = (1,7);
type = Stem;
}
);
layerId = "B51EB05F-9FBB-4087-814F-400611B2D4B0";
shapes = (
{
closed = 1;
nodes = (
(346,-10,o),
(485,65,o),
(509,205,cs),
(526,301,o),
(466,353,o),
(385,380,c),
(387,391,l),
(355,401,o),
(302,400,o),
(259,400,c),
(159,400,l),
(146,330,l),
(246,330,l),
(356,330,o),
(372,275,o),
(359,205,cs),
(349,145,o),
(306,100,o),
(206,100,cs),
(106,100,o),
(78,140,o),
(92,220,c),
(-58,220,l),
(-83,80,o),
(26,-10,o),
(186,-10,cs)
);
},
{
closed = 1;
nodes = (
(253,370,l),
(297,370,o),
(349,369,o),
(385,380,c),
(387,391,l),
(460,415,o),
(528,446,o),
(544,540,cs),
(565,660,o),
(457,730,o),
(317,730,cs),
(187,730,o),
(44,655,o),
(19,515,c),
(169,515,l),
(181,585,o),
(227,620,o),
(297,620,cs),
(367,620,o),
(402,590,o),
(393,540,cs),
(384,490,o),
(356,440,o),
(266,440,c),
(166,440,l),
(153,370,l)
);
}
);
width = 640;
}
);
unicode = 51;
},
{
glyphname = four;
kernLeft = "4";
kernRight = "4";
lastChange = "2025-12-25 20:24:24 +0000";
layers = (
{
hints = (
{
horizontal = 1;
origin = (2,3);
target = up;
type = BottomGhost;
},
{
horizontal = 1;
origin = (0,3);
target = (1,3);
type = Stem;
},
{
horizontal = 1;
origin = (0,2);
target = down;
type = TopGhost;
},
{
horizontal = 1;
place = (474,-8);
type = Stem;
},
{
origin = (2,3);
target = (2,0);
type = Stem;
}
);
layerId = "05246BF3-0764-4143-87C4-5D2B296D3790";
shapes = (
{
closed = 1;
nodes = (
(44,230,l),
(460,720,l),
(360,720,l),
(-56,230,l)
);
},
{
closed = 1;
nodes = (
(469,150,l),
(484,230,l),
(-56,230,l),
(-71,150,l)
);
},
{
closed = 1;
nodes = (
(343,0,l),
(470,720,l),
(380,720,l),
(253,0,l)
);
}
);
width = 620;
},
{
hints = (
{
horizontal = 1;
origin = (2,3);
target = up;
type = BottomGhost;
},
{
horizontal = 1;
origin = (1,3);
target = (0,3);
type = Stem;
},
{
horizontal = 1;
origin = (0,2);
target = down;
type = TopGhost;
},
{
origin = (2,3);
target = (2,0);
type = Stem;
}
);
layerId = "B51EB05F-9FBB-4087-814F-400611B2D4B0";
shapes = (
{
closed = 1;
nodes = (
(97,250,l),
(490,720,l),
(340,720,l),
(-53,250,l)
);
},
{
closed = 1;
nodes = (
(498,140,l),
(517,250,l),
(-53,250,l),
(-72,140,l)
);
},
{
closed = 1;
nodes = (
(383,0,l),
(510,720,l),
(360,720,l),
(233,0,l)
);
}
);
width = 630;
}
);
unicode = 52;
},
{
glyphname = five;
kernLeft = "5";
kernRight = "5";
lastChange = "2025-12-25 20:24:24 +0000";
layers = (
{
hints = (
{
horizontal = 1;
origin = (0,22);
target = (0,29);
type = Stem;
},
{
horizontal = 1;
origin = (0,5);
target = (0,16);
type = Stem;
},
{
horizontal = 1;
origin = (1,2);
target = (2,3);
type = Stem;
},
{
horizontal = 1;
origin = (0,9);
target = (1,3);
type = Stem;
},
{
origin = (0,26);
target = (0,25);
type = Stem;
},
{
origin = (0,19);
target = (0,2);
type = Stem;
}
);
layerId = "05246BF3-0764-4143-87C4-5D2B296D3790";
shapes = (
{
closed = 1;
nodes = (
(341,-10,o),
(471,100,o),
(494,230,cs),
(518,370,o),
(426,470,o),
(286,470,cs),
(202,470,o),
(139,431,o),
(114,391,c),
(104,391,l),
(82,364,o),
(65,336,o),
(54,320,c),
(84,320,l),
(122,360,o),
(182,390,o),
(262,390,cs),
(362,390,o),
(419,320,o),
(404,230,cs),
(388,140,o),
(305,70,o),
(205,70,cs),
(95,70,o),
(56,130,o),
(53,170,c),
(-37,170,l),
(-43,80,o),
(31,-10,o),
(191,-10,cs)
);
},
{
closed = 1;
nodes = (
(84,320,l),
(195,720,l),
(105,720,l),
(-6,320,l)
);
},
{
closed = 1;
nodes = (
(517,640,l),
(531,720,l),
(105,720,l),
(91,640,l)
);
}
);
width = 620;
},
{
hints = (
{
horizontal = 1;
origin = (0,29);
target = (0,22);
type = Stem;
},
{
horizontal = 1;
origin = (0,16);
target = (0,5);
type = Stem;
},
{
horizontal = 1;
origin = (1,2);
target = (2,3);
type = Stem;
},
{
horizontal = 1;
origin = (1,3);
target = (0,9);
type = Stem;
},
{
origin = (0,26);
target = (0,25);
type = Stem;
},
{
origin = (0,19);
target = (0,2);
type = Stem;
}
);
layerId = "B51EB05F-9FBB-4087-814F-400611B2D4B0";
shapes = (
{
closed = 1;
nodes = (
(371,-10,o),
(519,90,o),
(544,230,cs),
(570,380,o),
(456,470,o),
(316,470,cs),
(242,470,o),
(181,431,o),
(164,391,c),
(154,391,l),
(132,364,o),
(82,316,o),
(71,300,c),
(131,300,l),
(158,340,o),
(197,360,o),
(277,360,cs),
(357,360,o),
(386,300,o),
(374,230,cs),
(361,160,o),
(311,100,o),
(231,100,cs),
(151,100,o),
(116,130,o),
(127,190,c),
(-43,190,l),
(-63,80,o),
(51,-10,o),
(211,-10,cs)
);
},
{
closed = 1;
nodes = (
(131,300,l),
(245,720,l),
(95,720,l),
(-19,300,l)
);
},
{
closed = 1;
nodes = (
(562,610,l),
(581,720,l),
(135,720,l),
(116,610,l)
);
}
);
width = 670;
}
);
unicode = 53;
},
{
glyphname = six;
kernLeft = "6";
kernRight = "6";
lastChange = "2025-12-25 20:24:24 +0000";
layers = (
{
hints = (
{
horizontal = 1;
origin = (1,11);
target = (0,25);
type = Stem;
},
{
horizontal = 1;
origin = (0,5);
target = (1,5);
type = Stem;
},
{
horizontal = 1;
origin = (0,19);
target = (0,12);
type = Stem;
},
{
origin = (0,22);
target = (0,9);
type = Stem;
},
{
origin = (1,8);
target = (0,2);
type = Stem;
},
{
origin = (0,15);
target = (0,16);
type = Stem;
},
{
origin = (0,22);
target = (1,2);
type = Stem;
}
);
layerId = "05246BF3-0764-4143-87C4-5D2B296D3790";
shapes = (
{
closed = 1;
nodes = (
(366,-10,o),
(481,100,o),
(504,230,cs),
(527,360,o),
(451,470,o),
(291,470,cs),
(202,470,o),
(124,411,o),
(91,341,c),
(80,341,l),
(108,532,o),
(186,650,o),
(323,650,cs),
(433,650,o),
(457,590,o),
(458,540,c),
(548,540,l),
(556,640,o),
(497,730,o),
(337,730,cs),
(177,730,o),
(42,620,o),
(-5,350,cs),
(-55,70,o),
(56,-10,o),
(206,-10,cs)
);
},
{
closed = 1;
nodes = (
(120,70,o),
(66,130,o),
(84,230,cs),
(101,330,o),
(177,390,o),
(277,390,cs),
(377,390,o),
(431,330,o),
(414,230,cs),
(396,130,o),
(320,70,o),
(220,70,cs)
);
}
);
width = 650;
},
{
hints = (
{
horizontal = 1;
origin = (0,25);
target = (1,11);
type = Stem;
},
{
horizontal = 1;
origin = (1,5);
target = (0,5);
type = Stem;
},
{
horizontal = 1;
origin = (0,19);
target = (0,12);
type = Stem;
},
{
origin = (0,22);
target = (0,9);
type = Stem;
},
{
origin = (1,8);
target = (0,2);
type = Stem;
},
{
origin = (0,15);
target = (0,16);
type = Stem;
},
{
origin = (0,22);
target = (1,2);
type = Stem;
}
);
layerId = "B51EB05F-9FBB-4087-814F-400611B2D4B0";
shapes = (
{
closed = 1;
nodes = (
(401,-10,o),
(521,100,o),
(544,230,cs),
(570,380,o),
(466,470,o),
(326,470,cs),
(247,470,o),
(182,431,o),
(138,351,c),
(127,351,l),
(158,529,o),
(223,620,o),
(332,620,cs),
(432,620,o),
(445,580,o),
(435,520,c),
(585,520,l),
(606,640,o),
(522,730,o),
(352,730,cs),
(192,730,o),
(34,630,o),
(-15,350,cs),
(-66,60,o),
(51,-10,o),
(221,-10,cs)
);
},
{
closed = 1;
nodes = (
(171,100,o),
(118,140,o),
(134,230,cs),
(149,320,o),
(217,360,o),
(287,360,cs),
(357,360,o),
(409,320,o),
(394,230,cs),
(378,140,o),
(311,100,o),
(241,100,cs)
);
}
);
width = 670;
}
);
unicode = 54;
},
{
glyphname = seven;
kernLeft = "7";
kernRight = "7";
lastChange = "2025-12-25 20:24:24 +0000";
layers = (
{
hints = (
{
horizontal = 1;
origin = (0,3);
target = up;
type = BottomGhost;
},
{
horizontal = 1;
origin = (1,2);
target = (1,3);
type = Stem;
},
{
origin = (0,2);
target = (0,1);
type = Stem;
}
);
layerId = "05246BF3-0764-4143-87C4-5D2B296D3790";
shapes = (
{
closed = 1;
nodes = (
(83,0,l),
(491,640,l),
(401,640,l),
(-12,0,l)
);
},
{
closed = 1;
nodes = (
(491,640,l),
(505,720,l),
(30,720,l),
(16,640,l)
);
}
);
width = 545;
},
{
hints = (
{
horizontal = 1;
origin = (0,3);
target = up;
type = BottomGhost;
},
{
horizontal = 1;
origin = (1,2);
target = (1,3);
type = Stem;
}
);
layerId = "B51EB05F-9FBB-4087-814F-400611B2D4B0";
shapes = (
{
closed = 1;
nodes = (
(103,0,l),
(526,610,l),
(371,610,l),
(-57,0,l)
);
},
{
closed = 1;
nodes = (
(526,610,l),
(545,720,l),
(20,720,l),
(1,610,l)
);
}
);
width = 565;
}
);
unicode = 55;
},
{
glyphname = eight;
kernLeft = "8";
kernRight = "8";
lastChange = "2025-12-25 20:24:24 +0000";
layers = (
{
hints = (
{
horizontal = 1;
origin = (1,11);
target = (0,19);
type = Stem;
},
{
horizontal = 1;
origin = (2,11);
target = (1,5);
type = Stem;
},
{
horizontal = 1;
origin = (3,9);
target = (2,5);
type = Stem;
},
{
origin = (0,16);
target = (1,2);
type = Stem;
},
{
origin = (1,8);
target = (0,2);
type = Stem;
},
{
origin = (3,12);
target = (2,2);
type = Stem;
},
{
origin = (2,8);
target = (3,6);
type = Stem;
}
);
layerId = "05246BF3-0764-4143-87C4-5D2B296D3790";
shapes = (
{
closed = 1;
nodes = (
(336,-10,o),
(466,75,o),
(489,205,cs),
(504,291,o),
(456,353,o),
(375,380,c),
(377,391,l),
(345,402,o),
(303,400,o),
(259,400,cs),
(215,400,o),
(172,400,o),
(137,391,c),
(135,381,l),
(44,353,o),
(-24,301,o),
(-41,205,cs),
(-64,75,o),
(36,-10,o),
(186,-10,cs)
);
},
{
closed = 1;
nodes = (
(80,70,o),
(37,135,o),
(49,205,cs),
(62,275,o),
(129,345,o),
(249,345,cs),
(369,345,o),
(412,275,o),
(399,205,cs),
(387,135,o),
(320,70,o),
(200,70,cs)
);
},
{
closed = 1;
nodes = (
(173,425,o),
(126,470,o),
(138,540,cs),
(151,610,o),
(213,650,o),
(303,650,cs),
(393,650,o),
(441,610,o),
(428,540,cs),
(416,470,o),
(353,425,o),
(263,425,cs)
);
},
{
closed = 1;
nodes = (
(299,370,o),
(339,368,o),
(375,380,c),
(377,391,l),
(450,415,o),
(505,466,o),
(518,540,cs),
(539,660,o),
(447,730,o),
(317,730,cs),
(187,730,o),
(69,660,o),
(48,540,cs),
(35,466,o),
(72,415,o),
(137,391,c),
(135,381,l),
(167,370,o),
(208,370,o),
(253,370,cs)
);
}
);
width = 630;
},
{
hints = (
{
horizontal = 1;
origin = (0,19);
target = (1,11);
type = Stem;
},
{
horizontal = 1;
origin = (1,5);
target = (2,11);
type = Stem;
},
{
horizontal = 1;
origin = (3,9);
target = (2,5);
type = Stem;
},
{
origin = (0,16);
target = (1,2);
type = Stem;
},
{
origin = (1,8);
target = (0,2);
type = Stem;
},
{
origin = (3,12);
target = (2,2);
type = Stem;
},
{
origin = (2,8);
target = (3,6);
type = Stem;
}
);
layerId = "B51EB05F-9FBB-4087-814F-400611B2D4B0";
shapes = (
{
closed = 1;
nodes = (
(346,-10,o),
(496,75,o),
(521,215,cs),
(535,295,o),
(488,356,o),
(409,380,c),
(411,390,l),
(373,401,o),
(323,400,o),
(269,400,cs),
(215,400,o),
(165,401,o),
(123,390,c),
(121,380,l),
(34,356,o),
(-35,295,o),
(-49,215,cs),
(-74,75,o),
(46,-10,o),
(196,-10,cs)
);
},
{
closed = 1;
nodes = (
(136,100,o),
(89,145,o),
(101,215,cs),
(113,285,o),
(176,330,o),
(256,330,cs),
(336,330,o),
(383,285,o),
(371,215,cs),
(359,145,o),
(296,100,o),
(216,100,cs)
);
},
{
closed = 1;
nodes = (
(206,440,o),
(173,480,o),
(181,530,cs),
(190,580,o),
(237,620,o),
(307,620,cs),
(377,620,o),
(410,580,o),
(401,530,cs),
(393,480,o),
(346,440,o),
(276,440,cs)
);
},
{
closed = 1;
nodes = (
(318,370,o),
(368,369,o),
(409,380,c),
(411,390,l),
(482,411,o),
(539,460,o),
(551,530,cs),
(574,660,o),
(467,730,o),
(327,730,cs),
(187,730,o),
(54,660,o),
(31,530,cs),
(19,460,o),
(60,411,o),
(123,390,c),
(121,380,l),
(158,369,o),
(208,370,o),
(263,370,cs)
);
}
);
width = 650;
}
);
unicode = 56;
},
{
glyphname = nine;
kernLeft = "9";
kernRight = "9";
lastChange = "2025-12-25 20:24:24 +0000";
layers = (
{
hints = (
{
horizontal = 1;
origin = (0,18);
target = (0,25);
type = Stem;
},
{
horizontal = 1;
origin = (1,11);
target = (0,11);
type = Stem;
},
{
horizontal = 1;
origin = (0,5);
target = (1,5);
type = Stem;
},
{
origin = (0,8);
target = (1,2);
type = Stem;
},
{
origin = (0,15);
target = (0,2);
type = Stem;
},
{
origin = (0,22);
target = (0,21);
type = Stem;
},
{
origin = (1,8);
target = (0,2);
type = Stem;
}
);
layerId = "05246BF3-0764-4143-87C4-5D2B296D3790";
shapes = (
{
closed = 1;
nodes = (
(346,-10,o),
(481,100,o),
(528,370,cs),
(578,650,o),
(467,730,o),
(317,730,cs),
(157,730,o),
(42,620,o),
(19,490,cs),
(-3,360,o),
(72,250,o),
(232,250,cs),
(321,250,o),
(400,309,o),
(432,379,c),
(443,379,l),
(415,188,o),
(337,70,o),
(200,70,cs),
(90,70,o),
(66,130,o),
(65,180,c),
(-25,180,l),
(-33,80,o),
(26,-10,o),
(186,-10,cs)
);
},
{
closed = 1;
nodes = (
(146,330,o),
(92,390,o),
(109,490,cs),
(127,590,o),
(203,650,o),
(303,650,cs),
(403,650,o),
(457,590,o),
(439,490,cs),
(422,390,o),
(346,330,o),
(246,330,cs)
);
}
);
width = 650;
},
{
hints = (
{
horizontal = 1;
origin = (0,25);
target = (0,18);
type = Stem;
},
{
horizontal = 1;
origin = (0,11);
target = (1,11);
type = Stem;
},
{
horizontal = 1;
origin = (0,5);
target = (1,5);
type = Stem;
},
{
origin = (0,8);
target = (1,2);
type = Stem;
},
{
origin = (0,15);
target = (0,2);
type = Stem;
},
{
origin = (0,22);
target = (0,21);
type = Stem;
},
{
origin = (1,8);
target = (0,2);
type = Stem;
}
);
layerId = "B51EB05F-9FBB-4087-814F-400611B2D4B0";
shapes = (
{
closed = 1;
nodes = (
(351,-10,o),
(509,90,o),
(558,370,cs),
(609,660,o),
(492,730,o),
(322,730,cs),
(142,730,o),
(22,620,o),
(-1,490,cs),
(-27,340,o),
(77,250,o),
(217,250,cs),
(296,250,o),
(361,289,o),
(405,369,c),
(416,369,l),
(389,191,o),
(320,100,o),
(211,100,cs),
(111,100,o),
(98,140,o),
(108,200,c),
(-42,200,l),
(-63,80,o),
(21,-10,o),
(191,-10,cs)
);
},
{
closed = 1;
nodes = (
(187,360,o),
(134,400,o),
(149,490,cs),
(165,580,o),
(232,620,o),
(302,620,cs),
(372,620,o),
(425,580,o),
(409,490,cs),
(394,400,o),
(327,360,o),
(257,360,cs)
);
}
);
width = 670;
}
);
unicode = 57;
},
{
glyphname = onesuperior;
kernLeft = onesuperior;
kernRight = onesuperior;
lastChange = "2025-12-25 20:24:24 +0000";
layers = (
{
hints = (
{
origin = (0,3);
target = (0,0);
type = Stem;
}
);
layerId = "05246BF3-0764-4143-87C4-5D2B296D3790";
shapes = (
{
closed = 1;
nodes = (
(185,410,l),
(245,750,l),
(175,750,l),
(115,410,l)
);
},
{
closed = 1;
nodes = (
(165,690,l),
(175,750,l),
(65,690,l),
(54,630,l)
);
}
);
width = 310;
},
{
hints = (
{
origin = (0,3);
target = (0,0);
type = Stem;
}
);
layerId = "B51EB05F-9FBB-4087-814F-400611B2D4B0";
shapes = (
{
closed = 1;
nodes = (
(215,410,l),
(275,750,l),
(165,750,l),
(105,410,l)
);
},
{
closed = 1;
nodes = (
(148,650,l),
(165,750,l),
(55,690,l),
(37,590,l)
);
}
);
width = 330;
}
);
unicode = 185;
},
{
glyphname = twosuperior;
kernLeft = twosuperior;
kernRight = twosuperior;
lastChange = "2025-12-25 20:24:24 +0000";
layers = (
{
hints = (
{
horizontal = 1;
origin = (0,21);
target = (1,3);
type = Stem;
},
{
horizontal = 1;
origin = (0,7);
target = (0,14);
type = Stem;
},
{
origin = (1,3);
target = (0,11);
type = Stem;
},
{
origin = (0,17);
target = (0,4);
type = Stem;
},
{
origin = (1,3);
target = (1,0);
type = Stem;
}
);
layerId = "05246BF3-0764-4143-87C4-5D2B296D3790";
shapes = (
{
closed = 1;
nodes = (
(122,470,l),
(239,567,ls),
(275,597,o),
(291,625,o),
(297,659,cs),
(306,707,o),
(273,760,o),
(196,760,cs),
(129,760,o),
(70,722,o),
(58,650,c),
(128,650,l),
(132,673,o),
(151,700,o),
(185,700,cs),
(229,700,o),
(228,664,o),
(225,649,cs),
(224,639,o),
(221,623,o),
(181,592,cs),
(26,470,l)
);
},
{
closed = 1;
nodes = (
(259,410,l),
(270,470,l),
(26,470,l),
(15,410,l)
);
}
);
width = 384;
},
{
hints = (
{
horizontal = 1;
origin = (1,3);
target = (0,21);
type = Stem;
},
{
horizontal = 1;
origin = (0,10);
target = (0,7);
type = Stem;
},
{
horizontal = 1;
origin = (0,14);
target = (0,7);
type = Stem;
},
{
origin = (0,10);
target = (0,11);
type = Stem;
},
{
origin = (0,17);
target = (0,4);
type = Stem;
},
{
origin = (1,3);
target = (1,0);
type = Stem;
}
);
layerId = "B51EB05F-9FBB-4087-814F-400611B2D4B0";
shapes = (
{
closed = 1;
nodes = (
(145,490,l),
(249,567,ls),
(286,595,o),
(301,625,o),
(307,659,cs),
(317,717,o),
(283,760,o),
(196,760,cs),
(129,760,o),
(60,722,o),
(48,650,c),
(138,650,l),
(142,673,o),
(150,690,o),
(184,690,cs),
(228,690,o),
(218,664,o),
(215,649,cs),
(214,639,o),
(211,620,o),
(171,592,cs),
(24,490,l)
);
},
{
closed = 1;
nodes = (
(274,410,l),
(288,490,l),
(24,490,l),
(10,410,l)
);
}
);
width = 378;
}
);
unicode = 178;
},
{
glyphname = threesuperior;
kernLeft = threesuperior;
kernRight = threesuperior;
lastChange = "2025-12-25 20:24:24 +0000";
layers = (
{
hints = (
{
horizontal = 1;
origin = (0,18);
target = (0,25);
type = Stem;
},
{
horizontal = 1;
origin = (1,24);
target = (0,11);
type = Stem;
},
{
horizontal = 1;
origin = (1,10);
target = (1,17);
type = Stem;
},
{
origin = (0,11);
target = (0,5);
type = Stem;
},
{
origin = (1,13);
target = (1,14);
type = Stem;
},
{
origin = (1,20);
target = (1,7);
type = Stem;
},
{
origin = (0,22);
target = (0,21);
type = Stem;
},
{
origin = (0,15);
target = (0,2);
type = Stem;
}
);
layerId = "05246BF3-0764-4143-87C4-5D2B296D3790";
shapes = (
{
closed = 1;
nodes = (
(218,405,o),
(288,450,o),
(299,512,cs),
(306,552,o),
(285,577,o),
(237,589,c),
(238,595,l),
(223,599,o),
(202,599,o),
(182,599,c),
(149,599,l),
(142,562,l),
(175,562,l),
(227,562,o),
(232,530,o),
(229,512,cs),
(224,484,o),
(200,465,o),
(158,465,cs),
(116,465,o),
(98,479,o),
(103,512,c),
(33,512,l),
(21,440,o),
(76,405,o),
(147,405,cs)
);
},
{
closed = 1;
nodes = (
(179,585,l),
(200,585,o),
(220,584,o),
(237,589,c),
(238,595,l),
(282,606,o),
(308,630,o),
(314,665,cs),
(324,722,o),
(270,755,o),
(209,755,cs),
(148,755,o),
(80,725,o),
(68,658,c),
(138,658,l),
(143,686,o),
(166,695,o),
(199,695,cs),
(232,695,o),
(247,683,o),
(243,660,cs),
(239,637,o),
(219,622,o),
(186,622,c),
(153,622,l),
(146,585,l)
);
}
);
width = 406;
},
{
hints = (
{
horizontal = 1;
origin = (0,25);
target = (0,18);
type = Stem;
},
{
horizontal = 1;
origin = (0,11);
target = (1,24);
type = Stem;
},
{
horizontal = 1;
origin = (1,17);
target = (1,10);
type = Stem;
},
{
origin = (0,22);
target = (0,21);
type = Stem;
},
{
origin = (0,11);
target = (0,5);
type = Stem;
},
{
origin = (1,13);
target = (1,14);
type = Stem;
},
{
origin = (1,20);
target = (1,7);
type = Stem;
},
{
origin = (0,15);
target = (0,2);
type = Stem;
}
);
layerId = "B51EB05F-9FBB-4087-814F-400611B2D4B0";
shapes = (
{
closed = 1;
nodes = (
(208,405,o),
(278,450,o),
(289,512,cs),
(296,552,o),
(275,577,o),
(227,589,c),
(228,595,l),
(213,599,o),
(192,599,o),
(172,599,c),
(139,599,l),
(132,562,l),
(165,562,l),
(217,562,o),
(222,530,o),
(219,512,cs),
(214,484,o),
(190,465,o),
(148,465,cs),
(106,465,o),
(88,479,o),
(93,512,c),
(23,512,l),
(11,440,o),
(66,405,o),
(137,405,cs)
);
},
{
closed = 1;
nodes = (
(169,585,l),
(190,585,o),
(210,584,o),
(227,589,c),
(228,595,l),
(272,606,o),
(298,630,o),
(304,665,cs),
(314,722,o),
(260,755,o),
(199,755,cs),
(138,755,o),
(70,725,o),
(58,658,c),
(128,658,l),
(133,686,o),
(156,695,o),
(189,695,cs),
(222,695,o),
(237,683,o),
(233,660,cs),
(229,637,o),
(209,622,o),
(176,622,c),
(143,622,l),
(136,585,l)
);
}
);
width = 386;
}
);
unicode = 179;
},
{
glyphname = fraction;
lastChange = "2025-12-25 20:24:24 +0000";
layers = (
{
hints = (
{
horizontal = 1;
origin = (0,3);
target = up;
type = BottomGhost;
},
{
horizontal = 1;
origin = (0,2);
target = down;
type = TopGhost;
}
);
layerId = "05246BF3-0764-4143-87C4-5D2B296D3790";
shapes = (
{
closed = 1;
nodes = (
(-2,0,l),
(580,720,l),
(485,720,l),
(-97,0,l)
);
}
);
width = 610;
},
{
hints = (
{
horizontal = 1;
origin = (0,3);
target = up;
type = BottomGhost;
},
{
horizontal = 1;
origin = (0,2);
target = down;
type = TopGhost;
}
);
layerId = "B51EB05F-9FBB-4087-814F-400611B2D4B0";
shapes = (
{
closed = 1;
nodes = (
(53,0,l),
(635,720,l),
(485,720,l),
(-97,0,l)
);
}
);
width = 665;
}
);
unicode = 8260;
},
{
glyphname = onehalf;
lastChange = "2025-12-25 20:24:24 +0000";
layers = (
{
hints = (
{
horizontal = 1;
origin = (1,2);
target = (1,3);
type = Stem;
},
{
horizontal = 1;
origin = (4,7);
target = (4,14);
type = Stem;
},
{
horizontal = 1;
origin = (2,1);
target = down;
type = TopGhost;
},
{
horizontal = 1;
origin = (0,3);
target = up;
type = BottomGhost;
},
{
horizontal = 1;
origin = (2,1);
target = (2,2);
type = Stem;
},
{
horizontal = 1;
origin = (0,2);
target = down;
type = TopGhost;
},
{
origin = (3,3);
target = (3,0);
type = Stem;
},
{
origin = (1,3);
target = (4,11);
type = Stem;
},
{
origin = (4,17);
target = (4,4);
type = Stem;
},
{
origin = (1,3);
target = (1,0);
type = Stem;
}
);
layerId = "05246BF3-0764-4143-87C4-5D2B296D3790";
shapes = (
{
closed = 1;
nodes = (
(68,0,l),
(650,720,l),
(555,720,l),
(-27,0,l)
);
},
{
closed = 1;
nodes = (
(608,-10,l),
(619,50,l),
(375,50,l),
(364,-10,l)
);
},
{
closed = 1;
nodes = (
(141,670,l),
(152,730,l),
(41,670,l),
(31,610,l)
);
},
{
closed = 1;
nodes = (
(162,390,l),
(222,730,l),
(152,730,l),
(92,390,l)
);
},
{
closed = 1;
nodes = (
(471,50,l),
(588,147,ls),
(624,177,o),
(640,205,o),
(646,239,cs),
(655,287,o),
(622,340,o),
(545,340,cs),
(478,340,o),
(419,302,o),
(407,230,c),
(477,230,l),
(481,253,o),
(500,280,o),
(534,280,cs),
(578,280,o),
(577,244,o),
(574,229,cs),
(573,219,o),
(570,203,o),
(530,172,cs),
(375,50,l)
);
}
);
width = 787;
},
{
hints = (
{
horizontal = 1;
origin = (1,3);
target = (1,2);
type = Stem;
},
{
horizontal = 1;
origin = (4,10);
target = (4,7);
type = Stem;
},
{
horizontal = 1;
origin = (2,1);
target = down;
type = TopGhost;
},
{
horizontal = 1;
origin = (0,3);
target = up;
type = BottomGhost;
},
{
horizontal = 1;
origin = (2,1);
target = (2,0);
type = Stem;
},
{
horizontal = 1;
origin = (0,2);
target = down;
type = TopGhost;
},
{
horizontal = 1;
origin = (4,14);
target = (4,7);
type = Stem;
},
{
origin = (3,3);
target = (3,0);
type = Stem;
},
{
origin = (4,10);
target = (4,11);
type = Stem;
},
{
origin = (4,17);
target = (4,4);
type = Stem;
},
{
origin = (1,3);
target = (1,0);
type = Stem;
}
);
layerId = "B51EB05F-9FBB-4087-814F-400611B2D4B0";
shapes = (
{
closed = 1;
nodes = (
(143,0,l),
(725,720,l),
(575,720,l),
(-7,0,l)
);
},
{
closed = 1;
nodes = (
(699,-10,l),
(713,70,l),
(449,70,l),
(435,-10,l)
);
},
{
closed = 1;
nodes = (
(134,630,l),
(152,730,l),
(41,670,l),
(24,570,l)
);
},
{
closed = 1;
nodes = (
(202,390,l),
(262,730,l),
(152,730,l),
(92,390,l)
);
},
{
closed = 1;
nodes = (
(570,70,l),
(674,147,ls),
(711,175,o),
(726,205,o),
(732,239,cs),
(742,297,o),
(708,340,o),
(621,340,cs),
(554,340,o),
(485,302,o),
(473,230,c),
(563,230,l),
(567,253,o),
(575,270,o),
(609,270,cs),
(653,270,o),
(643,244,o),
(640,229,cs),
(639,219,o),
(636,200,o),
(596,172,cs),
(449,70,l)
);
}
);
width = 878;
}
);
unicode = 189;
},
{
glyphname = onequarter;
lastChange = "2025-12-25 20:24:24 +0000";
layers = (
{
hints = (
{
horizontal = 1;
origin = (1,2);
target = (4,3);
type = Stem;
},
{
horizontal = 1;
origin = (3,2);
target = down;
type = TopGhost;
},
{
horizontal = 1;
origin = (0,3);
target = up;
type = BottomGhost;
},
{
horizontal = 1;
origin = (3,2);
target = (5,2);
type = Stem;
},
{
horizontal = 1;
origin = (0,2);
target = down;
type = TopGhost;
},
{
horizontal = 1;
origin = (1,2);
target = (1,3);
type = Stem;
},
{
origin = (3,3);
target = (3,0);
type = Stem;
},
{
origin = (4,3);
target = (4,0);
type = Stem;
}
);
layerId = "05246BF3-0764-4143-87C4-5D2B296D3790";
shapes = (
{
closed = 1;
nodes = (
(58,0,l),
(640,720,l),
(545,720,l),
(-37,0,l)
);
},
{
closed = 1;
nodes = (
(565,56,l),
(574,108,l),
(304,108,l),
(295,56,l)
);
},
{
closed = 1;
nodes = (
(375,108,l),
(561,330,l),
(490,330,l),
(304,108,l)
);
},
{
closed = 1;
nodes = (
(162,390,l),
(222,730,l),
(152,730,l),
(92,390,l)
);
},
{
closed = 1;
nodes = (
(510,-10,l),
(570,330,l),
(499,330,l),
(439,-10,l)
);
},
{
closed = 1;
nodes = (
(141,670,l),
(152,730,l),
(41,670,l),
(31,610,l)
);
}
);
width = 732;
},
{
hints = (
{
horizontal = 1;
origin = (4,3);
target = (1,2);
type = Stem;
},
{
horizontal = 1;
origin = (3,2);
target = down;
type = TopGhost;
},
{
horizontal = 1;
origin = (0,3);
target = up;
type = BottomGhost;
},
{
horizontal = 1;
origin = (3,2);
target = (5,0);
type = Stem;
},
{
horizontal = 1;
origin = (0,2);
target = down;
type = TopGhost;
},
{
horizontal = 1;
origin = (1,3);
target = (1,2);
type = Stem;
},
{
origin = (3,3);
target = (3,0);
type = Stem;
},
{
origin = (4,3);
target = (4,0);
type = Stem;
}
);
layerId = "B51EB05F-9FBB-4087-814F-400611B2D4B0";
shapes = (
{
closed = 1;
nodes = (
(163,0,l),
(725,720,l),
(575,720,l),
(-7,0,l)
);
},
{
closed = 1;
nodes = (
(713,46,l),
(728,128,l),
(398,128,l),
(383,46,l)
);
},
{
closed = 1;
nodes = (
(499,128,l),
(681,330,l),
(580,330,l),
(398,128,l)
);
},
{
closed = 1;
nodes = (
(202,390,l),
(262,730,l),
(152,730,l),
(92,390,l)
);
},
{
closed = 1;
nodes = (
(660,-10,l),
(720,330,l),
(609,330,l),
(549,-10,l)
);
},
{
closed = 1;
nodes = (
(134,630,l),
(152,730,l),
(41,670,l),
(24,570,l)
);
}
);
width = 882;
}
);
unicode = 188;
},
{
glyphname = threequarters;
lastChange = "2025-12-25 20:24:24 +0000";
layers = (
{
hints = (
{
horizontal = 1;
origin = (1,2);
target = (5,3);
type = Stem;
},
{
horizontal = 1;
origin = (2,18);
target = (2,25);
type = Stem;
},
{
horizontal = 1;
origin = (3,24);
target = (2,11);
type = Stem;
},
{
horizontal = 1;
origin = (3,10);
target = (3,17);
type = Stem;
},
{
horizontal = 1;
origin = (0,3);
target = up;
type = BottomGhost;
},
{
horizontal = 1;
origin = (0,2);
target = down;
type = TopGhost;
},
{
horizontal = 1;
origin = (1,2);
target = (1,3);
type = Stem;
},
{
origin = (2,15);
target = (2,2);
type = Stem;
},
{
origin = (5,3);
target = (5,0);
type = Stem;
},
{
origin = (2,11);
target = (2,5);
type = Stem;
},
{
origin = (3,13);
target = (3,14);
type = Stem;
},
{
origin = (3,20);
target = (3,7);
type = Stem;
},
{
origin = (2,22);
target = (2,21);
type = Stem;
}
);
layerId = "05246BF3-0764-4143-87C4-5D2B296D3790";
shapes = (
{
closed = 1;
nodes = (
(78,0,l),
(660,720,l),
(565,720,l),
(-17,0,l)
);
},
{
closed = 1;
nodes = (
(585,56,l),
(594,108,l),
(324,108,l),
(315,56,l)
);
},
{
closed = 1;
nodes = (
(194,380,o),
(264,425,o),
(275,487,cs),
(282,527,o),
(260,552,o),
(212,564,c),
(214,570,l),
(198,574,o),
(177,574,o),
(157,574,c),
(124,574,l),
(118,537,l),
(151,537,l),
(203,537,o),
(208,505,o),
(205,487,cs),
(200,459,o),
(176,440,o),
(134,440,cs),
(92,440,o),
(73,454,o),
(79,487,c),
(9,487,l),
(-4,415,o),
(52,380,o),
(123,380,cs)
);
},
{
closed = 1;
nodes = (
(155,560,l),
(176,560,o),
(196,559,o),
(212,564,c),
(214,570,l),
(257,581,o),
(284,605,o),
(290,640,cs),
(300,697,o),
(246,730,o),
(185,730,cs),
(124,730,o),
(55,700,o),
(44,633,c),
(114,633,l),
(119,661,o),
(141,670,o),
(174,670,cs),
(207,670,o),
(223,658,o),
(219,635,cs),
(215,612,o),
(194,597,o),
(161,597,c),
(128,597,l),
(122,560,l)
);
},
{
closed = 1;
nodes = (
(395,108,l),
(581,330,l),
(510,330,l),
(324,108,l)
);
},
{
closed = 1;
nodes = (
(530,-10,l),
(590,330,l),
(519,330,l),
(459,-10,l)
);
}
);
width = 752;
},
{
hints = (
{
horizontal = 1;
origin = (5,3);
target = (1,2);
type = Stem;
},
{
horizontal = 1;
origin = (2,25);
target = (2,18);
type = Stem;
},
{
horizontal = 1;
origin = (2,11);
target = (3,24);
type = Stem;
},
{
horizontal = 1;
origin = (3,10);
target = (3,17);
type = Stem;
},
{
horizontal = 1;
origin = (0,3);
target = up;
type = BottomGhost;
},
{
horizontal = 1;
origin = (0,2);
target = down;
type = TopGhost;
},
{
horizontal = 1;
origin = (1,3);
target = (1,2);
type = Stem;
},
{
origin = (2,15);
target = (2,2);
type = Stem;
},
{
origin = (5,3);
target = (5,0);
type = Stem;
},
{
origin = (2,11);
target = (2,5);
type = Stem;
},
{
origin = (3,13);
target = (3,14);
type = Stem;
},
{
origin = (3,20);
target = (3,7);
type = Stem;
},
{
origin = (2,22);
target = (2,21);
type = Stem;
}
);
layerId = "B51EB05F-9FBB-4087-814F-400611B2D4B0";
shapes = (
{
closed = 1;
nodes = (
(163,0,l),
(745,720,l),
(595,720,l),
(13,0,l)
);
},
{
closed = 1;
nodes = (
(733,46,l),
(748,128,l),
(418,128,l),
(403,46,l)
);
},
{
closed = 1;
nodes = (
(194,380,o),
(264,425,o),
(275,487,cs),
(282,527,o),
(260,552,o),
(212,564,c),
(214,570,l),
(198,574,o),
(177,574,o),
(157,574,c),
(124,574,l),
(118,537,l),
(151,537,l),
(203,537,o),
(208,505,o),
(205,487,cs),
(200,459,o),
(176,440,o),
(134,440,cs),
(92,440,o),
(73,454,o),
(79,487,c),
(9,487,l),
(-4,415,o),
(52,380,o),
(123,380,cs)
);
},
{
closed = 1;
nodes = (
(155,560,l),
(176,560,o),
(196,559,o),
(212,564,c),
(214,570,l),
(257,581,o),
(284,605,o),
(290,640,cs),
(300,697,o),
(246,730,o),
(185,730,cs),
(124,730,o),
(55,700,o),
(44,633,c),
(114,633,l),
(119,661,o),
(141,670,o),
(174,670,cs),
(207,670,o),
(223,658,o),
(219,635,cs),
(215,612,o),
(194,597,o),
(161,597,c),
(128,597,l),
(122,560,l)
);
},
{
closed = 1;
nodes = (
(519,128,l),
(701,330,l),
(600,330,l),
(418,128,l)
);
},
{
closed = 1;
nodes = (
(680,-10,l),
(740,330,l),
(629,330,l),
(569,-10,l)
);
}
);
width = 902;
}
);
unicode = 190;
},
{
glyphname = period;
kernLeft = period;
kernRight = period;
lastChange = "2025-12-25 20:24:24 +0000";
layers = (
{
hints = (
{
horizontal = 1;
origin = (0,5);
target = (0,11);
type = Stem;
},
{
origin = (0,8);
target = (0,2);
type = Stem;
}
);
layerId = "05246BF3-0764-4143-87C4-5D2B296D3790";
shapes = (
{
closed = 1;
nodes = (
(32,-10,o),
(66,19,o),
(73,55,cs),
(79,91,o),
(55,120,o),
(19,120,cs),
(-17,120,o),
(-51,91,o),
(-57,55,cs),
(-64,19,o),
(-40,-10,o),
(-4,-10,cs)
);
}
);
width = 250;
},
{
hints = (
{
horizontal = 1;
origin = (0,11);
target = (0,5);
type = Stem;
},
{
origin = (0,8);
target = (0,2);
type = Stem;
}
);
layerId = "B51EB05F-9FBB-4087-814F-400611B2D4B0";
shapes = (
{
closed = 1;
nodes = (
(61,-15,o),
(107,24,o),
(115,70,cs),
(123,116,o),
(91,155,o),
(45,155,cs),
(-1,155,o),
(-47,116,o),
(-55,70,cs),
(-63,24,o),
(-31,-15,o),
(15,-15,cs)
);
}
);
width = 290;
}
);
unicode = 46;
},
{
glyphname = comma;
kernLeft = period;
kernRight = period;
lastChange = "2025-12-25 20:24:24 +0000";
layers = (
{
hints = (
{
origin = (0,3);
target = (0,1);
type = Stem;
}
);
layerId = "05246BF3-0764-4143-87C4-5D2B296D3790";
shapes = (
{
closed = 1;
nodes = (
(-41,-165,l),
(76,100,l),
(-19,100,l),
(-116,-165,l)
);
}
);
width = 245;
},
{
hints = (
{
horizontal = 1;
origin = (0,3);
target = (0,2);
type = Stem;
},
{
origin = (0,3);
target = (0,1);
type = Stem;
}
);
layerId = "B51EB05F-9FBB-4087-814F-400611B2D4B0";
shapes = (
{
closed = 1;
nodes = (
(13,-140,l),
(122,135,l),
(-33,135,l),
(-112,-140,l)
);
}
);
width = 285;
}
);
unicode = 44;
},
{
glyphname = colon;
kernLeft = colon;
kernRight = colon;
lastChange = "2025-12-25 20:24:24 +0000";
layers = (
{
hints = (
{
horizontal = 1;
origin = (1,5);
target = (1,11);
type = Stem;
},
{
horizontal = 1;
origin = (0,5);
target = (0,11);
type = Stem;
},
{
origin = (1,8);
target = (1,2);
type = Stem;
}
);
layerId = "05246BF3-0764-4143-87C4-5D2B296D3790";
shapes = (
{
closed = 1;
nodes = (
(103,390,o),
(137,419,o),
(143,455,cs),
(150,491,o),
(126,520,o),
(90,520,cs),
(54,520,o),
(20,491,o),
(13,455,cs),
(7,419,o),
(31,390,o),
(67,390,cs)
);
},
{
closed = 1;
nodes = (
(32,-10,o),
(66,18,o),
(73,55,cs),
(79,91,o),
(55,120,o),
(19,120,cs),
(-18,120,o),
(-51,91,o),
(-57,55,cs),
(-64,18,o),
(-41,-10,o),
(-4,-10,cs)
);
}
);
width = 250;
},
{
hints = (
{
horizontal = 1;
origin = (1,11);
target = (1,5);
type = Stem;
},
{
horizontal = 1;
origin = (0,5);
target = (0,11);
type = Stem;
},
{
origin = (1,8);
target = (1,2);
type = Stem;
}
);
layerId = "B51EB05F-9FBB-4087-814F-400611B2D4B0";
shapes = (
{
closed = 1;
nodes = (
(129,360,o),
(173,398,o),
(182,445,cs),
(190,492,o),
(158,530,o),
(111,530,cs),
(64,530,o),
(20,492,o),
(12,445,cs),
(3,398,o),
(35,360,o),
(82,360,cs)
);
},
{
closed = 1;
nodes = (
(62,-15,o),
(107,22,o),
(115,70,cs),
(124,117,o),
(92,155,o),
(45,155,cs),
(-3,155,o),
(-46,117,o),
(-55,70,cs),
(-63,22,o),
(-33,-15,o),
(15,-15,cs)
);
}
);
width = 290;
}
);
unicode = 58;
},
{
glyphname = semicolon;
kernLeft = colon;
kernRight = colon;
lastChange = "2025-12-25 20:24:24 +0000";
layers = (
{
hints = (
{
horizontal = 1;
origin = (0,5);
target = (0,11);
type = Stem;
},
{
origin = (0,8);
target = (0,2);
type = Stem;
}
);
layerId = "05246BF3-0764-4143-87C4-5D2B296D3790";
shapes = (
{
closed = 1;
nodes = (
(114,390,o),
(147,418,o),
(153,455,cs),
(160,492,o),
(137,520,o),
(100,520,cs),
(63,520,o),
(30,492,o),
(23,455,cs),
(17,418,o),
(40,390,o),
(77,390,cs)
);
},
{
closed = 1;
nodes = (
(-41,-165,l),
(76,100,l),
(-19,100,l),
(-116,-165,l)
);
}
);
width = 260;
},
{
hints = (
{
horizontal = 1;
origin = (1,3);
target = (1,2);
type = Stem;
},
{
horizontal = 1;
origin = (0,5);
target = (0,11);
type = Stem;
},
{
origin = (0,8);
target = (0,2);
type = Stem;
}
);
layerId = "B51EB05F-9FBB-4087-814F-400611B2D4B0";
shapes = (
{
closed = 1;
nodes = (
(125,360,o),
(169,398,o),
(178,445,cs),
(186,492,o),
(154,530,o),
(107,530,cs),
(60,530,o),
(16,492,o),
(8,445,cs),
(-1,398,o),
(31,360,o),
(78,360,cs)
);
},
{
closed = 1;
nodes = (
(13,-140,l),
(122,135,l),
(-33,135,l),
(-112,-140,l)
);
}
);
width = 286;
}
);
unicode = 59;
},
{
glyphname = ellipsis;
kernLeft = period;
kernRight = period;
lastChange = "2025-12-25 20:24:24 +0000";
layers = (
{
hints = (
{
horizontal = 1;
origin = (1,5);
target = (1,11);
type = Stem;
},
{
origin = (1,8);
target = (1,2);
type = Stem;
},
{
origin = (2,8);
target = (2,2);
type = Stem;
},
{
origin = (0,8);
target = (0,2);
type = Stem;
}
);
layerId = "05246BF3-0764-4143-87C4-5D2B296D3790";
shapes = (
{
closed = 1;
nodes = (
(462,-10,o),
(496,19,o),
(503,55,cs),
(509,91,o),
(485,120,o),
(449,120,cs),
(413,120,o),
(379,91,o),
(373,55,cs),
(366,19,o),
(390,-10,o),
(426,-10,cs)
);
},
{
closed = 1;
nodes = (
(22,-10,o),
(56,19,o),
(63,55,cs),
(69,91,o),
(45,120,o),
(9,120,cs),
(-27,120,o),
(-61,91,o),
(-67,55,cs),
(-74,19,o),
(-50,-10,o),
(-14,-10,cs)
);
},
{
closed = 1;
nodes = (
(242,-10,o),
(276,19,o),
(283,55,cs),
(289,91,o),
(265,120,o),
(229,120,cs),
(193,120,o),
(159,91,o),
(153,55,cs),
(146,19,o),
(170,-10,o),
(206,-10,cs)
);
}
);
width = 670;
},
{
hints = (
{
horizontal = 1;
origin = (1,11);
target = (1,5);
type = Stem;
},
{
origin = (1,8);
target = (1,2);
type = Stem;
},
{
origin = (2,8);
target = (2,2);
type = Stem;
},
{
origin = (0,8);
target = (0,2);
type = Stem;
}
);
layerId = "B51EB05F-9FBB-4087-814F-400611B2D4B0";
shapes = (
{
closed = 1;
nodes = (
(472,-10,o),
(518,29,o),
(526,75,cs),
(534,121,o),
(502,160,o),
(456,160,cs),
(410,160,o),
(364,121,o),
(356,75,cs),
(348,29,o),
(380,-10,o),
(426,-10,cs)
);
},
{
closed = 1;
nodes = (
(32,-10,o),
(78,29,o),
(86,75,cs),
(94,121,o),
(62,160,o),
(16,160,cs),
(-30,160,o),
(-76,121,o),
(-84,75,cs),
(-92,29,o),
(-60,-10,o),
(-14,-10,cs)
);
},
{
closed = 1;
nodes = (
(252,-10,o),
(298,29,o),
(306,75,cs),
(314,121,o),
(282,160,o),
(236,160,cs),
(190,160,o),
(144,121,o),
(136,75,cs),
(128,29,o),
(160,-10,o),
(206,-10,cs)
);
}
);
width = 670;
}
);
unicode = 8230;
},
{
glyphname = exclam;
kernLeft = exclam;
lastChange = "2025-12-25 20:24:24 +0000";
layers = (
{
hints = (
{
horizontal = 1;
origin = (1,5);
target = (1,11);
type = Stem;
},
{
horizontal = 1;
origin = (0,2);
target = down;
type = TopGhost;
},
{
place = (-37,-37);
type = Stem;
},
{
origin = (1,8);
target = (1,2);
type = Stem;
}
);
layerId = "05246BF3-0764-4143-87C4-5D2B296D3790";
shapes = (
{
closed = 1;
nodes = (
(88,225,l),
(185,720,l),
(85,720,l),
(8,225,l)
);
},
{
closed = 1;
nodes = (
(42,-10,o),
(76,19,o),
(83,55,cs),
(89,91,o),
(65,120,o),
(29,120,cs),
(-7,120,o),
(-41,91,o),
(-47,55,cs),
(-54,19,o),
(-30,-10,o),
(6,-10,cs)
);
}
);
width = 270;
},
{
hints = (
{
horizontal = 1;
origin = (1,11);
target = (1,5);
type = Stem;
},
{
horizontal = 1;
origin = (0,2);
target = down;
type = TopGhost;
},
{
place = (-53,8);
type = Stem;
},
{
origin = (1,8);
target = (1,2);
type = Stem;
}
);
layerId = "B51EB05F-9FBB-4087-814F-400611B2D4B0";
shapes = (
{
closed = 1;
nodes = (
(112,215,l),
(216,720,l),
(66,720,l),
(-8,215,l)
);
},
{
closed = 1;
nodes = (
(59,-15,o),
(103,22,o),
(111,70,cs),
(120,118,o),
(89,155,o),
(41,155,cs),
(-7,155,o),
(-50,118,o),
(-59,70,cs),
(-67,22,o),
(-37,-15,o),
(11,-15,cs)
);
}
);
width = 282;
}
);
unicode = 33;
},
{
glyphname = exclamdown;
kernRight = exclamdown;
lastChange = "2025-12-25 20:24:24 +0000";
layers = (
{
hints = (
{
horizontal = 1;
origin = (1,5);
target = (1,11);
type = Stem;
},
{
origin = (1,8);
target = (1,2);
type = Stem;
},
{
place = (-37,-37);
type = Stem;
}
);
layerId = "05246BF3-0764-4143-87C4-5D2B296D3790";
shapes = (
{
closed = 1;
nodes = (
(23,-200,l),
(100,295,l),
(20,295,l),
(-77,-200,l)
);
},
{
closed = 1;
nodes = (
(115,400,o),
(149,429,o),
(155,465,cs),
(161,501,o),
(137,530,o),
(101,530,cs),
(65,530,o),
(31,501,o),
(25,465,cs),
(19,429,o),
(43,400,o),
(79,400,cs)
);
}
);
width = 270;
},
{
hints = (
{
horizontal = 1;
origin = (1,5);
target = (1,11);
type = Stem;
},
{
origin = (1,8);
target = (1,2);
type = Stem;
},
{
place = (-53,8);
type = Stem;
}
);
layerId = "B51EB05F-9FBB-4087-814F-400611B2D4B0";
shapes = (
{
closed = 1;
nodes = (
(54,-200,l),
(128,305,l),
(8,305,l),
(-96,-200,l)
);
},
{
closed = 1;
nodes = (
(126,365,o),
(170,402,o),
(178,450,cs),
(187,498,o),
(156,535,o),
(108,535,cs),
(60,535,o),
(17,498,o),
(8,450,cs),
(0,402,o),
(30,365,o),
(78,365,cs)
);
}
);
width = 282;
}
);
unicode = 161;
},
{
glyphname = question;
kernLeft = question;
kernRight = question;
lastChange = "2025-12-25 20:24:24 +0000";
layers = (
{
hints = (
{
horizontal = 1;
origin = (1,5);
target = (1,11);
type = Stem;
},
{
horizontal = 1;
origin = (0,10);
target = (0,17);
type = Stem;
},
{
origin = (0,13);
target = (0,14);
type = Stem;
},
{
origin = (0,27);
target = (0,0);
type = Stem;
},
{
origin = (0,20);
target = (0,7);
type = Stem;
},
{
origin = (1,8);
target = (1,2);
type = Stem;
}
);
layerId = "05246BF3-0764-4143-87C4-5D2B296D3790";
shapes = (
{
closed = 1;
nodes = (
(216,225,l),
(219,245,l),
(230,305,o),
(276,327,o),
(321,357,c),
(412,417,o),
(437,478,o),
(448,540,cs),
(468,650,o),
(390,730,o),
(260,730,cs),
(130,730,o),
(28,650,o),
(8,540,c),
(98,540,l),
(109,600,o),
(166,650,o),
(246,650,cs),
(326,650,o),
(369,600,o),
(358,540,cs),
(351,496,o),
(343,454,o),
(264,404,c),
(185,354,o),
(142,315,o),
(129,245,c),
(126,225,l)
);
},
{
closed = 1;
nodes = (
(166,-10,o),
(199,18,o),
(206,55,cs),
(212,92,o),
(189,120,o),
(152,120,cs),
(115,120,o),
(82,92,o),
(76,55,cs),
(69,18,o),
(92,-10,o),
(129,-10,cs)
);
}
);
width = 530;
},
{
hints = (
{
horizontal = 1;
origin = (1,11);
target = (1,5);
type = Stem;
},
{
horizontal = 1;
origin = (0,10);
target = (0,17);
type = Stem;
},
{
origin = (0,27);
target = (0,0);
type = Stem;
},
{
origin = (0,13);
target = (0,14);
type = Stem;
},
{
origin = (0,20);
target = (0,7);
type = Stem;
},
{
origin = (1,8);
target = (1,2);
type = Stem;
}
);
layerId = "B51EB05F-9FBB-4087-814F-400611B2D4B0";
shapes = (
{
closed = 1;
nodes = (
(249,215,l),
(254,245,l),
(266,310,o),
(296,316,o),
(357,360,cs),
(437,418,o),
(466,468,o),
(476,525,cs),
(499,655,o),
(395,730,o),
(270,730,cs),
(135,730,o),
(19,655,o),
(-4,525,c),
(146,525,l),
(154,575,o),
(180,620,o),
(250,620,cs),
(320,620,o),
(335,580,o),
(326,525,cs),
(321,501,o),
(320,463,o),
(239,405,cs),
(152,342,o),
(117,320,o),
(104,245,c),
(99,215,l)
);
},
{
closed = 1;
nodes = (
(182,-10,o),
(226,27,o),
(234,75,cs),
(243,123,o),
(212,160,o),
(164,160,cs),
(116,160,o),
(73,123,o),
(64,75,cs),
(56,27,o),
(86,-10,o),
(134,-10,cs)
);
}
);
width = 540;
}
);
unicode = 63;
},
{
glyphname = questiondown;
kernLeft = questiondown;
kernRight = questiondown;
lastChange = "2025-12-25 20:24:24 +0000";
layers = (
{
hints = (
{
horizontal = 1;
origin = (0,17);
target = (0,10);
type = Stem;
},
{
horizontal = 1;
origin = (1,11);
target = (1,5);
type = Stem;
},
{
origin = (0,7);
target = (0,20);
type = Stem;
},
{
origin = (1,2);
target = (1,8);
type = Stem;
},
{
origin = (0,14);
target = (0,13);
type = Stem;
},
{
origin = (0,1);
target = (0,26);
type = Stem;
}
);
layerId = "05246BF3-0764-4143-87C4-5D2B296D3790";
shapes = (
{
closed = 1;
nodes = (
(152,295,l),
(149,275,l),
(138,215,o),
(92,193,o),
(47,163,c),
(-44,103,o),
(-70,42,o),
(-80,-20,cs),
(-100,-130,o),
(-22,-210,o),
(108,-210,cs),
(238,-210,o),
(340,-130,o),
(360,-20,c),
(270,-20,l),
(259,-80,o),
(202,-130,o),
(122,-130,cs),
(42,-130,o),
(-1,-80,o),
(10,-20,cs),
(17,24,o),
(25,66,o),
(103,116,c),
(182,166,o),
(226,205,o),
(239,275,c),
(242,295,l)
);
},
{
closed = 1;
nodes = (
(201,530,o),
(169,502,o),
(162,465,cs),
(156,428,o),
(179,400,o),
(216,400,cs),
(253,400,o),
(286,428,o),
(292,465,cs),
(299,502,o),
(275,530,o),
(238,530,cs)
);
}
);
width = 540;
},
{
hints = (
{
horizontal = 1;
origin = (0,10);
target = (0,17);
type = Stem;
},
{
horizontal = 1;
origin = (1,11);
target = (1,5);
type = Stem;
},
{
origin = (1,2);
target = (1,8);
type = Stem;
},
{
origin = (0,1);
target = (0,26);
type = Stem;
},
{
origin = (0,7);
target = (0,20);
type = Stem;
},
{
origin = (0,14);
target = (0,13);
type = Stem;
}
);
layerId = "B51EB05F-9FBB-4087-814F-400611B2D4B0";
shapes = (
{
closed = 1;
nodes = (
(131,315,l),
(125,285,l),
(114,220,o),
(84,214,o),
(23,170,cs),
(-57,112,o),
(-86,62,o),
(-96,5,cs),
(-119,-125,o),
(-15,-200,o),
(110,-200,cs),
(245,-200,o),
(361,-125,o),
(384,5,c),
(234,5,l),
(225,-45,o),
(199,-90,o),
(129,-90,cs),
(59,-90,o),
(44,-50,o),
(54,5,cs),
(58,29,o),
(60,67,o),
(140,125,cs),
(227,188,o),
(262,210,o),
(275,285,c),
(281,315,l)
);
},
{
closed = 1;
nodes = (
(197,540,o),
(154,503,o),
(145,455,cs),
(137,407,o),
(167,370,o),
(215,370,cs),
(263,370,o),
(307,407,o),
(315,455,cs),
(324,503,o),
(293,540,o),
(245,540,cs)
);
}
);
width = 540;
}
);
unicode = 191;
},
{
glyphname = periodcentered;
lastChange = "2025-12-25 20:24:24 +0000";
layers = (
{
hints = (
{
horizontal = 1;
origin = (0,5);
target = (0,11);
type = Stem;
},
{
origin = (0,8);
target = (0,2);
type = Stem;
}
);
layerId = "05246BF3-0764-4143-87C4-5D2B296D3790";
shapes = (
{
closed = 1;
nodes = (
(294,195,o),
(330,225,o),
(336,260,cs),
(342,295,o),
(317,325,o),
(282,325,cs),
(247,325,o),
(212,295,o),
(206,260,cs),
(200,225,o),
(224,195,o),
(259,195,cs)
);
}
);
width = 702;
},
{
hints = (
{
horizontal = 1;
origin = (0,11);
target = (0,5);
type = Stem;
},
{
origin = (0,8);
target = (0,2);
type = Stem;
}
);
layerId = "B51EB05F-9FBB-4087-814F-400611B2D4B0";
shapes = (
{
closed = 1;
nodes = (
(302,175,o),
(348,214,o),
(356,260,cs),
(364,306,o),
(332,345,o),
(286,345,cs),
(240,345,o),
(194,306,o),
(186,260,cs),
(178,214,o),
(210,175,o),
(256,175,cs)
);
}
);
width = 702;
}
);
unicode = 183;
},
{
glyphname = bullet;
lastChange = "2025-12-25 20:24:24 +0000";
layers = (
{
layerId = "05246BF3-0764-4143-87C4-5D2B296D3790";
shapes = (
{
closed = 1;
nodes = (
(241,120,o),
(315,183,o),
(329,260,cs),
(342,337,o),
(291,400,o),
(214,400,cs),
(137,400,o),
(62,337,o),
(49,260,cs),
(35,183,o),
(87,120,o),
(164,120,cs)
);
}
);
width = 540;
},
{
hints = (
{
origin = (0,8);
target = (0,2);
type = Stem;
}
);
layerId = "B51EB05F-9FBB-4087-814F-400611B2D4B0";
shapes = (
{
closed = 1;
nodes = (
(263,90,o),
(352,166,o),
(369,260,cs),
(385,354,o),
(323,430,o),
(229,430,cs),
(135,430,o),
(45,354,o),
(29,260,cs),
(12,166,o),
(75,90,o),
(169,90,cs)
);
}
);
width = 560;
}
);
unicode = 8226;
},
{
glyphname = asterisk;
kernLeft = quotesingle;
kernRight = quotesingle;
lastChange = "2025-12-25 20:24:24 +0000";
layers = (
{
hints = (
{
horizontal = 1;
origin = (0,9);
target = down;
type = TopGhost;
},
{
origin = (0,17);
target = (0,0);
type = Stem;
}
);
layerId = "05246BF3-0764-4143-87C4-5D2B296D3790";
shapes = (
{
closed = 1;
nodes = (
(200,390,l),
(220,502,l),
(307,446,l),
(347,500,l),
(261,555,l),
(367,611,l),
(345,664,l),
(238,608,l),
(258,720,l),
(198,720,l),
(178,608,l),
(91,664,l),
(51,610,l),
(137,555,l),
(31,499,l),
(53,446,l),
(160,502,l),
(140,390,l)
);
}
);
width = 456;
},
{
hints = (
{
horizontal = 1;
origin = (0,9);
target = down;
type = TopGhost;
},
{
origin = (0,17);
target = (0,0);
type = Stem;
}
);
layerId = "B51EB05F-9FBB-4087-814F-400611B2D4B0";
shapes = (
{
closed = 1;
nodes = (
(202,390,l),
(217,478,l),
(286,434,l),
(343,512,l),
(276,555,l),
(359,599,l),
(327,676,l),
(245,633,l),
(260,720,l),
(170,720,l),
(154,632,l),
(86,676,l),
(28,598,l),
(96,555,l),
(13,511,l),
(45,434,l),
(127,477,l),
(112,390,l)
);
}
);
width = 430;
}
);
unicode = 42;
},
{
glyphname = numbersign;
lastChange = "2025-12-25 20:24:24 +0000";
layers = (
{
hints = (
{
horizontal = 1;
origin = (2,3);
target = up;
type = BottomGhost;
},
{
horizontal = 1;
origin = (1,2);
target = (1,3);
type = Stem;
},
{
horizontal = 1;
origin = (3,2);
target = (3,3);
type = Stem;
}
);
layerId = "05246BF3-0764-4143-87C4-5D2B296D3790";
shapes = (
{
closed = 1;
nodes = (
(333,0,l),
(606,700,l),
(516,700,l),
(243,0,l)
);
},
{
closed = 1;
nodes = (
(545,180,l),
(559,260,l),
(-21,260,l),
(-35,180,l)
);
},
{
closed = 1;
nodes = (
(83,0,l),
(356,700,l),
(266,700,l),
(-7,0,l)
);
},
{
closed = 1;
nodes = (
(631,440,l),
(645,520,l),
(65,520,l),
(51,440,l)
);
}
);
width = 740;
},
{
hints = (
{
horizontal = 1;
origin = (2,3);
target = up;
type = BottomGhost;
},
{
horizontal = 1;
origin = (1,3);
target = (1,2);
type = Stem;
},
{
horizontal = 1;
origin = (3,2);
target = (3,3);
type = Stem;
}
);
layerId = "B51EB05F-9FBB-4087-814F-400611B2D4B0";
shapes = (
{
closed = 1;
nodes = (
(383,0,l),
(656,700,l),
(516,700,l),
(243,0,l)
);
},
{
closed = 1;
nodes = (
(592,165,l),
(612,275,l),
(-28,275,l),
(-48,165,l)
);
},
{
closed = 1;
nodes = (
(123,0,l),
(396,700,l),
(256,700,l),
(-17,0,l)
);
},
{
closed = 1;
nodes = (
(677,420,l),
(696,530,l),
(56,530,l),
(37,420,l)
);
}
);
width = 780;
}
);
unicode = 35;
},
{
glyphname = slash;
kernLeft = slash;
kernRight = slash;
lastChange = "2025-12-25 20:24:24 +0000";
layers = (
{
hints = (
{
horizontal = 1;
origin = (0,2);
target = down;
type = TopGhost;
}
);
layerId = "05246BF3-0764-4143-87C4-5D2B296D3790";
shapes = (
{
closed = 1;
nodes = (
(-47,-140,l),
(355,720,l),
(260,720,l),
(-142,-140,l)
);
}
);
width = 385;
},
{
hints = (
{
horizontal = 1;
origin = (0,2);
target = down;
type = TopGhost;
},
{
origin = (0,3);
target = (0,1);
type = Stem;
}
);
layerId = "B51EB05F-9FBB-4087-814F-400611B2D4B0";
shapes = (
{
closed = 1;
nodes = (
(12,-140,l),
(414,720,l),
(259,720,l),
(-143,-140,l)
);
}
);
width = 450;
}
);
unicode = 47;
},
{
glyphname = backslash;
lastChange = "2025-12-25 20:24:24 +0000";
layers = (
{
hints = (
{
horizontal = 1;
origin = (0,2);
target = down;
type = TopGhost;
}
);
layerId = "05246BF3-0764-4143-87C4-5D2B296D3790";
shapes = (
{
closed = 1;
nodes = (
(223,-140,l),
(125,720,l),
(30,720,l),
(128,-140,l)
);
}
);
width = 385;
},
{
hints = (
{
horizontal = 1;
origin = (0,2);
target = down;
type = TopGhost;
},
{
origin = (0,2);
target = (0,0);
type = Stem;
}
);
layerId = "B51EB05F-9FBB-4087-814F-400611B2D4B0";
shapes = (
{
closed = 1;
nodes = (
(262,-140,l),
(164,720,l),
(9,720,l),
(107,-140,l)
);
}
);
width = 450;
}
);
unicode = 92;
},
{
glyphname = colon.case;
kernLeft = colon;
kernRight = colon;
lastChange = "2025-12-25 20:24:24 +0000";
layers = (
{
hints = (
{
horizontal = 1;
origin = (1,5);
target = (1,11);
type = Stem;
},
{
horizontal = 1;
origin = (0,5);
target = (0,11);
type = Stem;
},
{
origin = (1,8);
target = (1,2);
type = Stem;
}
);
layerId = "05246BF3-0764-4143-87C4-5D2B296D3790";
shapes = (
{
closed = 1;
nodes = (
(130,485,o),
(164,514,o),
(170,550,cs),
(176,586,o),
(152,615,o),
(116,615,cs),
(80,615,o),
(46,586,o),
(40,550,cs),
(34,514,o),
(58,485,o),
(94,485,cs)
);
},
{
closed = 1;
nodes = (
(59,85,o),
(93,113,o),
(99,150,cs),
(106,186,o),
(82,215,o),
(46,215,cs),
(9,215,o),
(-24,186,o),
(-31,150,cs),
(-37,113,o),
(-14,85,o),
(23,85,cs)
);
}
);
width = 270;
},
{
hints = (
{
horizontal = 1;
origin = (1,11);
target = (1,5);
type = Stem;
},
{
horizontal = 1;
origin = (0,11);
target = (0,5);
type = Stem;
},
{
origin = (1,8);
target = (1,2);
type = Stem;
}
);
layerId = "B51EB05F-9FBB-4087-814F-400611B2D4B0";
shapes = (
{
closed = 1;
nodes = (
(146,460,o),
(191,498,o),
(199,545,cs),
(207,592,o),
(176,630,o),
(129,630,cs),
(82,630,o),
(37,592,o),
(29,545,cs),
(21,498,o),
(52,460,o),
(99,460,cs)
);
},
{
closed = 1;
nodes = (
(80,85,o),
(125,122,o),
(133,170,cs),
(141,217,o),
(110,255,o),
(63,255,cs),
(15,255,o),
(-29,217,o),
(-37,170,cs),
(-45,122,o),
(-15,85,o),
(33,85,cs)
);
}
);
width = 290;
}
);
},
{
glyphname = parenleft;
kernRight = parenleft;
lastChange = "2025-12-25 20:24:24 +0000";
layers = (
{
hints = (
{
horizontal = 1;
origin = (0,7);
target = down;
type = TopGhost;
},
{
origin = (0,10);
target = (0,3);
type = Stem;
}
);
layerId = "05246BF3-0764-4143-87C4-5D2B296D3790";
shapes = (
{
closed = 1;
nodes = (
(148,-140,l),
(148,-140,o),
(55,70,o),
(94,290,cs),
(133,510,o),
(300,720,o),
(300,720,c),
(210,720,l),
(210,720,o),
(36,530,o),
(-6,290,cs),
(-48,50,o),
(58,-140,o),
(58,-140,c)
);
}
);
width = 350;
},
{
hints = (
{
horizontal = 1;
origin = (0,7);
target = down;
type = TopGhost;
},
{
origin = (0,10);
target = (0,3);
type = Stem;
}
);
layerId = "B51EB05F-9FBB-4087-814F-400611B2D4B0";
shapes = (
{
closed = 1;
nodes = (
(211,-140,l),
(211,-140,o),
(118,70,o),
(157,290,cs),
(196,510,o),
(363,720,o),
(363,720,c),
(213,720,l),
(213,720,o),
(39,530,o),
(-3,290,cs),
(-45,50,o),
(61,-140,o),
(61,-140,c)
);
}
);
width = 413;
}
);
unicode = 40;
},
{
glyphname = parenright;
kernLeft = parenright;
lastChange = "2025-12-25 20:24:24 +0000";
layers = (
{
hints = (
{
horizontal = 1;
origin = (0,7);
target = down;
type = TopGhost;
},
{
origin = (0,10);
target = (0,3);
type = Stem;
}
);
layerId = "05246BF3-0764-4143-87C4-5D2B296D3790";
shapes = (
{
closed = 1;
nodes = (
(-12,-140,l),
(-12,-140,o),
(162,50,o),
(204,290,cs),
(246,530,o),
(140,720,o),
(140,720,c),
(50,720,l),
(50,720,o),
(143,510,o),
(104,290,cs),
(65,70,o),
(-102,-140,o),
(-102,-140,c)
);
}
);
width = 350;
},
{
hints = (
{
horizontal = 1;
origin = (0,7);
target = down;
type = TopGhost;
},
{
origin = (0,10);
target = (0,3);
type = Stem;
}
);
layerId = "B51EB05F-9FBB-4087-814F-400611B2D4B0";
shapes = (
{
closed = 1;
nodes = (
(48,-140,l),
(48,-140,o),
(222,50,o),
(264,290,cs),
(306,530,o),
(200,720,o),
(200,720,c),
(50,720,l),
(50,720,o),
(143,510,o),
(104,290,cs),
(65,70,o),
(-102,-140,o),
(-102,-140,c)
);
}
);
width = 413;
}
);
unicode = 41;
},
